G04 EAGLE Gerber RS-274X export*
G75*
%MOMM*%
%FSLAX34Y34*%
%LPD*%
%INBottom Copper*%
%IPPOS*%
%AMOC8*
5,1,8,0,0,1.08239X$1,22.5*%
G01*
%ADD10C,1.320800*%
%ADD11C,1.950000*%
%ADD12R,1.650000X1.650000*%
%ADD13C,1.650000*%
%ADD14C,1.524000*%
%ADD15P,1.649562X8X22.600000*%
%ADD16C,1.108000*%
%ADD17C,1.524000*%
%ADD18C,0.756400*%
%ADD19C,0.406400*%

G36*
X408843Y32200D02*
X408843Y32200D01*
X408917Y32198D01*
X409043Y32220D01*
X409171Y32233D01*
X409241Y32254D01*
X409313Y32267D01*
X409433Y32313D01*
X409556Y32351D01*
X409621Y32386D01*
X409689Y32412D01*
X409797Y32481D01*
X409910Y32543D01*
X409966Y32589D01*
X410028Y32629D01*
X410121Y32718D01*
X410219Y32800D01*
X410265Y32857D01*
X410318Y32908D01*
X410391Y33014D01*
X410472Y33114D01*
X410505Y33179D01*
X410547Y33239D01*
X410598Y33357D01*
X410657Y33471D01*
X410677Y33542D01*
X410706Y33609D01*
X410733Y33735D01*
X410769Y33858D01*
X410775Y33931D01*
X410790Y34003D01*
X410791Y34131D01*
X410801Y34260D01*
X410793Y34332D01*
X410794Y34406D01*
X410770Y34532D01*
X410755Y34659D01*
X410732Y34729D01*
X410718Y34801D01*
X410670Y34920D01*
X410630Y35042D01*
X410594Y35106D01*
X410566Y35174D01*
X410495Y35281D01*
X410432Y35393D01*
X410384Y35448D01*
X410343Y35509D01*
X410253Y35600D01*
X410169Y35697D01*
X410111Y35742D01*
X410059Y35794D01*
X409919Y35891D01*
X409851Y35944D01*
X409821Y35959D01*
X409786Y35983D01*
X406351Y37966D01*
X401666Y42651D01*
X398354Y48388D01*
X396639Y54788D01*
X396639Y61412D01*
X398354Y67812D01*
X401666Y73549D01*
X406351Y78234D01*
X412088Y81546D01*
X418488Y83261D01*
X425112Y83261D01*
X431512Y81546D01*
X437249Y78234D01*
X441934Y73549D01*
X445246Y67812D01*
X446961Y61412D01*
X446961Y54788D01*
X445246Y48388D01*
X441934Y42651D01*
X437249Y37966D01*
X433814Y35983D01*
X433754Y35940D01*
X433690Y35905D01*
X433591Y35823D01*
X433487Y35748D01*
X433437Y35695D01*
X433381Y35648D01*
X433300Y35548D01*
X433213Y35453D01*
X433174Y35391D01*
X433128Y35334D01*
X433069Y35220D01*
X433002Y35110D01*
X432976Y35042D01*
X432943Y34977D01*
X432907Y34853D01*
X432863Y34733D01*
X432852Y34660D01*
X432831Y34590D01*
X432821Y34461D01*
X432801Y34335D01*
X432805Y34262D01*
X432799Y34188D01*
X432813Y34061D01*
X432819Y33932D01*
X432837Y33861D01*
X432845Y33789D01*
X432885Y33666D01*
X432916Y33542D01*
X432948Y33476D01*
X432970Y33406D01*
X433033Y33294D01*
X433088Y33178D01*
X433132Y33119D01*
X433168Y33055D01*
X433252Y32958D01*
X433329Y32855D01*
X433383Y32806D01*
X433431Y32750D01*
X433533Y32672D01*
X433628Y32586D01*
X433692Y32549D01*
X433749Y32504D01*
X433865Y32446D01*
X433975Y32381D01*
X434044Y32357D01*
X434110Y32324D01*
X434234Y32291D01*
X434355Y32249D01*
X434428Y32239D01*
X434499Y32220D01*
X434668Y32206D01*
X434754Y32194D01*
X434787Y32196D01*
X434829Y32193D01*
X811136Y32193D01*
X811272Y32206D01*
X811410Y32211D01*
X811472Y32226D01*
X811536Y32233D01*
X811668Y32273D01*
X811801Y32305D01*
X811860Y32332D01*
X811921Y32351D01*
X812042Y32416D01*
X812167Y32474D01*
X812219Y32512D01*
X812275Y32543D01*
X812381Y32631D01*
X812492Y32712D01*
X812535Y32759D01*
X812585Y32800D01*
X812671Y32907D01*
X812763Y33009D01*
X812797Y33064D01*
X812837Y33114D01*
X812900Y33236D01*
X812971Y33354D01*
X812993Y33414D01*
X813022Y33471D01*
X813060Y33603D01*
X813107Y33733D01*
X813116Y33796D01*
X813134Y33858D01*
X813145Y33995D01*
X813165Y34131D01*
X813161Y34195D01*
X813167Y34260D01*
X813151Y34396D01*
X813143Y34533D01*
X813127Y34596D01*
X813120Y34659D01*
X813077Y34790D01*
X813043Y34923D01*
X813015Y34981D01*
X812995Y35042D01*
X812927Y35162D01*
X812868Y35285D01*
X812829Y35337D01*
X812797Y35393D01*
X812707Y35497D01*
X812624Y35606D01*
X812576Y35649D01*
X812534Y35697D01*
X812425Y35782D01*
X812322Y35873D01*
X812267Y35905D01*
X812216Y35944D01*
X812093Y36005D01*
X811974Y36074D01*
X811904Y36099D01*
X811855Y36124D01*
X811778Y36144D01*
X811661Y36186D01*
X810288Y36554D01*
X804551Y39866D01*
X799866Y44551D01*
X796554Y50288D01*
X794839Y56688D01*
X794839Y63312D01*
X796554Y69712D01*
X799866Y75449D01*
X804551Y80134D01*
X810288Y83446D01*
X816688Y85161D01*
X823312Y85161D01*
X829712Y83446D01*
X835449Y80134D01*
X840134Y75449D01*
X843446Y69712D01*
X845161Y63312D01*
X845161Y56688D01*
X843446Y50288D01*
X840134Y44551D01*
X835449Y39866D01*
X829712Y36554D01*
X828339Y36186D01*
X828210Y36137D01*
X828079Y36097D01*
X828022Y36067D01*
X827962Y36044D01*
X827845Y35971D01*
X827725Y35905D01*
X827675Y35864D01*
X827621Y35830D01*
X827521Y35736D01*
X827415Y35648D01*
X827375Y35598D01*
X827328Y35553D01*
X827249Y35441D01*
X827163Y35334D01*
X827133Y35277D01*
X827096Y35224D01*
X827041Y35098D01*
X826978Y34977D01*
X826960Y34915D01*
X826934Y34856D01*
X826904Y34722D01*
X826866Y34590D01*
X826861Y34526D01*
X826847Y34463D01*
X826845Y34325D01*
X826833Y34188D01*
X826841Y34125D01*
X826840Y34060D01*
X826864Y33925D01*
X826880Y33789D01*
X826900Y33727D01*
X826912Y33664D01*
X826962Y33536D01*
X827005Y33406D01*
X827037Y33350D01*
X827060Y33290D01*
X827135Y33175D01*
X827203Y33055D01*
X827245Y33006D01*
X827280Y32953D01*
X827376Y32854D01*
X827466Y32750D01*
X827517Y32711D01*
X827562Y32665D01*
X827676Y32588D01*
X827784Y32504D01*
X827842Y32475D01*
X827895Y32439D01*
X828022Y32386D01*
X828145Y32324D01*
X828207Y32308D01*
X828266Y32283D01*
X828401Y32256D01*
X828534Y32220D01*
X828607Y32214D01*
X828661Y32203D01*
X828741Y32203D01*
X828864Y32193D01*
X1195776Y32193D01*
X1195794Y32195D01*
X1195812Y32193D01*
X1195994Y32214D01*
X1196177Y32233D01*
X1196194Y32238D01*
X1196211Y32240D01*
X1196386Y32297D01*
X1196562Y32351D01*
X1196577Y32359D01*
X1196594Y32365D01*
X1196754Y32455D01*
X1196916Y32543D01*
X1196929Y32554D01*
X1196945Y32563D01*
X1197084Y32683D01*
X1197225Y32800D01*
X1197236Y32814D01*
X1197250Y32826D01*
X1197362Y32971D01*
X1197477Y33114D01*
X1197485Y33130D01*
X1197496Y33144D01*
X1197578Y33309D01*
X1197663Y33471D01*
X1197668Y33488D01*
X1197676Y33504D01*
X1197723Y33683D01*
X1197774Y33858D01*
X1197776Y33876D01*
X1197780Y33893D01*
X1197807Y34224D01*
X1197807Y405776D01*
X1197805Y405794D01*
X1197807Y405812D01*
X1197786Y405994D01*
X1197767Y406177D01*
X1197762Y406194D01*
X1197760Y406211D01*
X1197703Y406386D01*
X1197649Y406562D01*
X1197641Y406577D01*
X1197635Y406594D01*
X1197545Y406754D01*
X1197457Y406916D01*
X1197446Y406929D01*
X1197437Y406945D01*
X1197317Y407084D01*
X1197200Y407225D01*
X1197186Y407236D01*
X1197174Y407250D01*
X1197029Y407362D01*
X1196886Y407477D01*
X1196870Y407485D01*
X1196856Y407496D01*
X1196691Y407578D01*
X1196529Y407663D01*
X1196512Y407668D01*
X1196496Y407676D01*
X1196317Y407723D01*
X1196142Y407774D01*
X1196124Y407776D01*
X1196107Y407780D01*
X1195776Y407807D01*
X-5776Y407807D01*
X-5794Y407805D01*
X-5812Y407807D01*
X-5994Y407786D01*
X-6177Y407767D01*
X-6194Y407762D01*
X-6211Y407760D01*
X-6386Y407703D01*
X-6562Y407649D01*
X-6577Y407641D01*
X-6594Y407635D01*
X-6754Y407545D01*
X-6916Y407457D01*
X-6929Y407446D01*
X-6945Y407437D01*
X-7084Y407317D01*
X-7225Y407200D01*
X-7236Y407186D01*
X-7250Y407174D01*
X-7362Y407029D01*
X-7477Y406886D01*
X-7485Y406870D01*
X-7496Y406856D01*
X-7578Y406691D01*
X-7663Y406529D01*
X-7668Y406512D01*
X-7676Y406496D01*
X-7723Y406317D01*
X-7774Y406142D01*
X-7776Y406124D01*
X-7780Y406107D01*
X-7807Y405776D01*
X-7807Y68864D01*
X-7794Y68728D01*
X-7789Y68590D01*
X-7774Y68528D01*
X-7767Y68464D01*
X-7727Y68332D01*
X-7695Y68199D01*
X-7668Y68140D01*
X-7649Y68079D01*
X-7584Y67958D01*
X-7526Y67833D01*
X-7488Y67781D01*
X-7457Y67725D01*
X-7369Y67619D01*
X-7288Y67508D01*
X-7241Y67465D01*
X-7200Y67415D01*
X-7093Y67329D01*
X-6991Y67237D01*
X-6936Y67203D01*
X-6886Y67163D01*
X-6764Y67100D01*
X-6646Y67029D01*
X-6586Y67007D01*
X-6529Y66978D01*
X-6397Y66940D01*
X-6267Y66893D01*
X-6204Y66884D01*
X-6142Y66866D01*
X-6005Y66855D01*
X-5869Y66835D01*
X-5805Y66839D01*
X-5740Y66833D01*
X-5604Y66849D01*
X-5467Y66857D01*
X-5404Y66873D01*
X-5341Y66880D01*
X-5210Y66923D01*
X-5077Y66957D01*
X-5019Y66985D01*
X-4958Y67005D01*
X-4838Y67073D01*
X-4715Y67132D01*
X-4663Y67171D01*
X-4607Y67203D01*
X-4503Y67293D01*
X-4394Y67376D01*
X-4351Y67424D01*
X-4303Y67466D01*
X-4218Y67575D01*
X-4127Y67678D01*
X-4095Y67733D01*
X-4056Y67784D01*
X-3995Y67907D01*
X-3926Y68026D01*
X-3901Y68096D01*
X-3876Y68145D01*
X-3856Y68222D01*
X-3814Y68339D01*
X-3446Y69712D01*
X-134Y75449D01*
X4551Y80134D01*
X10288Y83446D01*
X16688Y85161D01*
X23312Y85161D01*
X29712Y83446D01*
X35449Y80134D01*
X40134Y75449D01*
X43446Y69712D01*
X45161Y63312D01*
X45161Y56688D01*
X43446Y50288D01*
X40134Y44551D01*
X35449Y39866D01*
X29712Y36554D01*
X28339Y36186D01*
X28210Y36137D01*
X28079Y36097D01*
X28022Y36067D01*
X27962Y36044D01*
X27845Y35971D01*
X27725Y35905D01*
X27675Y35864D01*
X27621Y35830D01*
X27521Y35736D01*
X27415Y35648D01*
X27375Y35598D01*
X27328Y35553D01*
X27249Y35441D01*
X27163Y35334D01*
X27133Y35277D01*
X27096Y35224D01*
X27041Y35098D01*
X26978Y34977D01*
X26960Y34915D01*
X26934Y34856D01*
X26904Y34722D01*
X26866Y34590D01*
X26861Y34526D01*
X26847Y34463D01*
X26845Y34325D01*
X26833Y34188D01*
X26841Y34125D01*
X26840Y34060D01*
X26864Y33925D01*
X26880Y33789D01*
X26900Y33727D01*
X26912Y33664D01*
X26962Y33536D01*
X27005Y33406D01*
X27037Y33350D01*
X27060Y33290D01*
X27135Y33175D01*
X27203Y33055D01*
X27245Y33006D01*
X27280Y32953D01*
X27376Y32854D01*
X27466Y32750D01*
X27517Y32711D01*
X27562Y32665D01*
X27676Y32588D01*
X27784Y32504D01*
X27842Y32475D01*
X27895Y32439D01*
X28022Y32386D01*
X28145Y32324D01*
X28207Y32308D01*
X28266Y32283D01*
X28401Y32256D01*
X28534Y32220D01*
X28607Y32214D01*
X28661Y32203D01*
X28741Y32203D01*
X28864Y32193D01*
X408771Y32193D01*
X408843Y32200D01*
G37*
%LPC*%
G36*
X403088Y322339D02*
X403088Y322339D01*
X396688Y324054D01*
X390951Y327366D01*
X386266Y332051D01*
X382954Y337788D01*
X381239Y344188D01*
X381239Y350812D01*
X382954Y357212D01*
X386266Y362949D01*
X390951Y367634D01*
X396688Y370946D01*
X403088Y372661D01*
X409712Y372661D01*
X416112Y370946D01*
X421849Y367634D01*
X426534Y362949D01*
X429846Y357212D01*
X431561Y350812D01*
X431561Y344188D01*
X429846Y337788D01*
X426534Y332051D01*
X421849Y327366D01*
X416112Y324054D01*
X409712Y322339D01*
X403088Y322339D01*
G37*
%LPD*%
%LPC*%
G36*
X658008Y297019D02*
X658008Y297019D01*
X651608Y298734D01*
X645871Y302046D01*
X641186Y306731D01*
X637874Y312468D01*
X636159Y318868D01*
X636159Y325492D01*
X637874Y331892D01*
X641186Y337629D01*
X645871Y342314D01*
X651608Y345626D01*
X658008Y347341D01*
X664632Y347341D01*
X671032Y345626D01*
X676769Y342314D01*
X681454Y337629D01*
X684766Y331892D01*
X686481Y325492D01*
X686481Y318868D01*
X684766Y312468D01*
X681454Y306731D01*
X676769Y302046D01*
X671032Y298734D01*
X664632Y297019D01*
X658008Y297019D01*
G37*
%LPD*%
%LPC*%
G36*
X505608Y297019D02*
X505608Y297019D01*
X499208Y298734D01*
X493471Y302046D01*
X488786Y306731D01*
X485474Y312468D01*
X483759Y318868D01*
X483759Y325492D01*
X485474Y331892D01*
X488786Y337629D01*
X493471Y342314D01*
X499208Y345626D01*
X505608Y347341D01*
X512232Y347341D01*
X518632Y345626D01*
X524369Y342314D01*
X529054Y337629D01*
X532366Y331892D01*
X534081Y325492D01*
X534081Y318868D01*
X532366Y312468D01*
X529054Y306731D01*
X524369Y302046D01*
X518632Y298734D01*
X512232Y297019D01*
X505608Y297019D01*
G37*
%LPD*%
%LPC*%
G36*
X19868Y352819D02*
X19868Y352819D01*
X13468Y354534D01*
X7731Y357846D01*
X3046Y362531D01*
X-266Y368268D01*
X-1981Y374668D01*
X-1981Y381292D01*
X-266Y387692D01*
X3046Y393429D01*
X7731Y398114D01*
X13468Y401426D01*
X19868Y403141D01*
X26492Y403141D01*
X32892Y401426D01*
X38629Y398114D01*
X43314Y393429D01*
X46626Y387692D01*
X48341Y381292D01*
X48341Y374668D01*
X46626Y368268D01*
X43314Y362531D01*
X38629Y357846D01*
X32892Y354534D01*
X26492Y352819D01*
X19868Y352819D01*
G37*
%LPD*%
%LPC*%
G36*
X1156137Y334484D02*
X1156137Y334484D01*
X1149368Y337288D01*
X1144188Y342468D01*
X1141384Y349237D01*
X1141384Y356563D01*
X1144188Y363332D01*
X1149368Y368512D01*
X1151846Y369538D01*
X1156137Y371316D01*
X1163463Y371316D01*
X1170232Y368512D01*
X1175412Y363332D01*
X1178216Y356563D01*
X1178216Y349237D01*
X1175412Y342468D01*
X1170232Y337288D01*
X1163962Y334691D01*
X1163463Y334484D01*
X1156137Y334484D01*
G37*
%LPD*%
%LPC*%
G36*
X749737Y334484D02*
X749737Y334484D01*
X742968Y337288D01*
X737788Y342468D01*
X734984Y349237D01*
X734984Y356563D01*
X737788Y363332D01*
X742968Y368512D01*
X745446Y369538D01*
X749737Y371316D01*
X757063Y371316D01*
X763832Y368512D01*
X769012Y363332D01*
X771816Y356563D01*
X771816Y349237D01*
X769012Y342468D01*
X763832Y337288D01*
X757562Y334691D01*
X757063Y334484D01*
X749737Y334484D01*
G37*
%LPD*%
%LPC*%
G36*
X1156137Y182084D02*
X1156137Y182084D01*
X1149368Y184888D01*
X1144188Y190068D01*
X1141384Y196837D01*
X1141384Y204163D01*
X1144188Y210932D01*
X1149368Y216112D01*
X1156137Y218916D01*
X1163463Y218916D01*
X1170232Y216112D01*
X1175412Y210932D01*
X1178216Y204163D01*
X1178216Y196837D01*
X1175412Y190068D01*
X1170232Y184888D01*
X1169002Y184378D01*
X1163463Y182084D01*
X1156137Y182084D01*
G37*
%LPD*%
%LPC*%
G36*
X749737Y182084D02*
X749737Y182084D01*
X742968Y184888D01*
X737788Y190068D01*
X734984Y196837D01*
X734984Y204163D01*
X737788Y210932D01*
X742968Y216112D01*
X749737Y218916D01*
X757063Y218916D01*
X763832Y216112D01*
X769012Y210932D01*
X771816Y204163D01*
X771816Y196837D01*
X769012Y190068D01*
X763832Y184888D01*
X762602Y184378D01*
X757063Y182084D01*
X749737Y182084D01*
G37*
%LPD*%
%LPC*%
G36*
X113244Y202493D02*
X113244Y202493D01*
X111294Y203301D01*
X109801Y204794D01*
X108993Y206744D01*
X108993Y208856D01*
X109801Y210806D01*
X110402Y211407D01*
X110419Y211428D01*
X110440Y211445D01*
X110547Y211583D01*
X110657Y211719D01*
X110670Y211742D01*
X110686Y211763D01*
X110764Y211920D01*
X110846Y212074D01*
X110854Y212100D01*
X110866Y212124D01*
X110911Y212293D01*
X110961Y212460D01*
X110963Y212487D01*
X110970Y212513D01*
X110997Y212844D01*
X110997Y221868D01*
X125632Y236503D01*
X150191Y236503D01*
X150217Y236505D01*
X150244Y236503D01*
X150418Y236525D01*
X150591Y236543D01*
X150617Y236550D01*
X150643Y236554D01*
X150809Y236609D01*
X150976Y236661D01*
X151000Y236674D01*
X151025Y236682D01*
X151177Y236769D01*
X151330Y236853D01*
X151351Y236870D01*
X151374Y236883D01*
X151627Y237098D01*
X158628Y244099D01*
X158640Y244113D01*
X158653Y244125D01*
X158767Y244269D01*
X158883Y244411D01*
X158892Y244426D01*
X158903Y244441D01*
X158987Y244605D01*
X159072Y244766D01*
X159077Y244783D01*
X159085Y244799D01*
X159135Y244977D01*
X159187Y245152D01*
X159189Y245170D01*
X159193Y245187D01*
X159207Y245370D01*
X159223Y245553D01*
X159221Y245571D01*
X159223Y245589D01*
X159200Y245770D01*
X159180Y245954D01*
X159174Y245971D01*
X159172Y245988D01*
X159114Y246162D01*
X159058Y246337D01*
X159050Y246353D01*
X159044Y246370D01*
X158952Y246530D01*
X158864Y246690D01*
X158852Y246703D01*
X158843Y246719D01*
X158628Y246972D01*
X158209Y247391D01*
X156971Y250379D01*
X156971Y266821D01*
X158209Y269809D01*
X160495Y272095D01*
X163483Y273333D01*
X166717Y273333D01*
X169705Y272095D01*
X171991Y269809D01*
X173229Y266821D01*
X173229Y250379D01*
X171991Y247391D01*
X169705Y245105D01*
X168833Y244744D01*
X168806Y244729D01*
X168776Y244719D01*
X168629Y244634D01*
X168479Y244554D01*
X168454Y244534D01*
X168427Y244518D01*
X168174Y244304D01*
X165873Y242002D01*
X153768Y229897D01*
X129209Y229897D01*
X129183Y229895D01*
X129156Y229897D01*
X128982Y229875D01*
X128809Y229857D01*
X128783Y229850D01*
X128757Y229846D01*
X128591Y229791D01*
X128424Y229739D01*
X128400Y229726D01*
X128375Y229718D01*
X128223Y229631D01*
X128070Y229547D01*
X128049Y229530D01*
X128026Y229517D01*
X127773Y229302D01*
X118198Y219727D01*
X118181Y219706D01*
X118160Y219689D01*
X118053Y219551D01*
X117943Y219415D01*
X117930Y219392D01*
X117914Y219371D01*
X117836Y219214D01*
X117754Y219060D01*
X117746Y219034D01*
X117734Y219010D01*
X117689Y218841D01*
X117639Y218674D01*
X117637Y218647D01*
X117630Y218621D01*
X117603Y218291D01*
X117603Y212844D01*
X117605Y212817D01*
X117603Y212790D01*
X117625Y212616D01*
X117643Y212443D01*
X117650Y212417D01*
X117654Y212391D01*
X117709Y212225D01*
X117761Y212058D01*
X117774Y212034D01*
X117782Y212009D01*
X117869Y211857D01*
X117953Y211704D01*
X117970Y211683D01*
X117983Y211660D01*
X118198Y211407D01*
X118799Y210806D01*
X119607Y208856D01*
X119607Y206744D01*
X118799Y204794D01*
X117306Y203301D01*
X115356Y202493D01*
X113244Y202493D01*
G37*
%LPD*%
%LPC*%
G36*
X592921Y125755D02*
X592921Y125755D01*
X589560Y127147D01*
X586987Y129720D01*
X585595Y133081D01*
X585595Y151959D01*
X586987Y155320D01*
X589560Y157893D01*
X592921Y159285D01*
X596559Y159285D01*
X599920Y157893D01*
X602493Y155320D01*
X603885Y151959D01*
X603885Y133081D01*
X602493Y129720D01*
X599920Y127147D01*
X596559Y125755D01*
X592921Y125755D01*
G37*
%LPD*%
%LPC*%
G36*
X618321Y125755D02*
X618321Y125755D01*
X614960Y127147D01*
X612387Y129720D01*
X610995Y133081D01*
X610995Y151959D01*
X612387Y155320D01*
X614960Y157893D01*
X618321Y159285D01*
X621959Y159285D01*
X625320Y157893D01*
X627893Y155320D01*
X629285Y151959D01*
X629285Y133081D01*
X627893Y129720D01*
X625320Y127147D01*
X621959Y125755D01*
X618321Y125755D01*
G37*
%LPD*%
%LPC*%
G36*
X643721Y125755D02*
X643721Y125755D01*
X640360Y127147D01*
X637787Y129720D01*
X636395Y133081D01*
X636395Y151959D01*
X637787Y155320D01*
X640360Y157893D01*
X643721Y159285D01*
X647359Y159285D01*
X650720Y157893D01*
X653293Y155320D01*
X654685Y151959D01*
X654685Y133081D01*
X653293Y129720D01*
X650720Y127147D01*
X647359Y125755D01*
X643721Y125755D01*
G37*
%LPD*%
%LPC*%
G36*
X669121Y125755D02*
X669121Y125755D01*
X665760Y127147D01*
X663187Y129720D01*
X661795Y133081D01*
X661795Y151959D01*
X663187Y155320D01*
X665760Y157893D01*
X669121Y159285D01*
X672759Y159285D01*
X676120Y157893D01*
X678693Y155320D01*
X680085Y151959D01*
X680085Y133081D01*
X678693Y129720D01*
X676120Y127147D01*
X672759Y125755D01*
X669121Y125755D01*
G37*
%LPD*%
%LPC*%
G36*
X1030383Y47967D02*
X1030383Y47967D01*
X1027395Y49205D01*
X1025109Y51491D01*
X1023871Y54479D01*
X1023871Y70921D01*
X1025109Y73909D01*
X1027395Y76195D01*
X1030383Y77433D01*
X1033617Y77433D01*
X1036605Y76195D01*
X1038891Y73909D01*
X1040129Y70921D01*
X1040129Y54479D01*
X1038891Y51491D01*
X1036605Y49205D01*
X1033617Y47967D01*
X1030383Y47967D01*
G37*
%LPD*%
%LPC*%
G36*
X1055783Y47967D02*
X1055783Y47967D01*
X1052795Y49205D01*
X1050509Y51491D01*
X1049271Y54479D01*
X1049271Y70921D01*
X1050509Y73909D01*
X1052795Y76195D01*
X1055783Y77433D01*
X1059017Y77433D01*
X1062005Y76195D01*
X1064291Y73909D01*
X1065529Y70921D01*
X1065529Y54479D01*
X1064291Y51491D01*
X1062005Y49205D01*
X1059017Y47967D01*
X1055783Y47967D01*
G37*
%LPD*%
%LPC*%
G36*
X1081183Y47967D02*
X1081183Y47967D01*
X1078195Y49205D01*
X1075909Y51491D01*
X1074671Y54479D01*
X1074671Y70921D01*
X1075909Y73909D01*
X1078195Y76195D01*
X1081183Y77433D01*
X1084417Y77433D01*
X1087405Y76195D01*
X1089691Y73909D01*
X1090929Y70921D01*
X1090929Y54479D01*
X1089691Y51491D01*
X1087405Y49205D01*
X1084417Y47967D01*
X1081183Y47967D01*
G37*
%LPD*%
%LPC*%
G36*
X877983Y47967D02*
X877983Y47967D01*
X874995Y49205D01*
X872709Y51491D01*
X871471Y54479D01*
X871471Y70921D01*
X872709Y73909D01*
X874995Y76195D01*
X877983Y77433D01*
X881217Y77433D01*
X884205Y76195D01*
X886491Y73909D01*
X887729Y70921D01*
X887729Y54479D01*
X886491Y51491D01*
X884205Y49205D01*
X881217Y47967D01*
X877983Y47967D01*
G37*
%LPD*%
%LPC*%
G36*
X1106583Y47967D02*
X1106583Y47967D01*
X1103595Y49205D01*
X1101309Y51491D01*
X1100071Y54479D01*
X1100071Y70921D01*
X1101309Y73909D01*
X1103595Y76195D01*
X1106583Y77433D01*
X1109817Y77433D01*
X1112805Y76195D01*
X1115091Y73909D01*
X1116329Y70921D01*
X1116329Y54479D01*
X1115091Y51491D01*
X1112805Y49205D01*
X1109817Y47967D01*
X1106583Y47967D01*
G37*
%LPD*%
%LPC*%
G36*
X1157383Y47967D02*
X1157383Y47967D01*
X1154395Y49205D01*
X1152109Y51491D01*
X1150871Y54479D01*
X1150871Y70921D01*
X1152109Y73909D01*
X1154395Y76195D01*
X1157383Y77433D01*
X1160617Y77433D01*
X1163605Y76195D01*
X1165891Y73909D01*
X1167129Y70921D01*
X1167129Y54479D01*
X1165891Y51491D01*
X1163605Y49205D01*
X1160617Y47967D01*
X1157383Y47967D01*
G37*
%LPD*%
%LPC*%
G36*
X315883Y243867D02*
X315883Y243867D01*
X312895Y245105D01*
X310609Y247391D01*
X309371Y250379D01*
X309371Y266821D01*
X310609Y269809D01*
X312895Y272095D01*
X315883Y273333D01*
X319117Y273333D01*
X322105Y272095D01*
X324391Y269809D01*
X325629Y266821D01*
X325629Y250379D01*
X324391Y247391D01*
X322105Y245105D01*
X319117Y243867D01*
X315883Y243867D01*
G37*
%LPD*%
%LPC*%
G36*
X290483Y243867D02*
X290483Y243867D01*
X287495Y245105D01*
X285209Y247391D01*
X283971Y250379D01*
X283971Y266821D01*
X285209Y269809D01*
X287495Y272095D01*
X290483Y273333D01*
X293717Y273333D01*
X296705Y272095D01*
X298991Y269809D01*
X300229Y266821D01*
X300229Y250379D01*
X298991Y247391D01*
X296705Y245105D01*
X293717Y243867D01*
X290483Y243867D01*
G37*
%LPD*%
%LPC*%
G36*
X265083Y243867D02*
X265083Y243867D01*
X262095Y245105D01*
X259809Y247391D01*
X258571Y250379D01*
X258571Y266821D01*
X259809Y269809D01*
X262095Y272095D01*
X265083Y273333D01*
X268317Y273333D01*
X271305Y272095D01*
X273591Y269809D01*
X274829Y266821D01*
X274829Y250379D01*
X273591Y247391D01*
X271305Y245105D01*
X268317Y243867D01*
X265083Y243867D01*
G37*
%LPD*%
%LPC*%
G36*
X188883Y243867D02*
X188883Y243867D01*
X185895Y245105D01*
X183609Y247391D01*
X182371Y250379D01*
X182371Y266821D01*
X183609Y269809D01*
X185895Y272095D01*
X188883Y273333D01*
X192117Y273333D01*
X195105Y272095D01*
X197391Y269809D01*
X198629Y266821D01*
X198629Y250379D01*
X197391Y247391D01*
X195105Y245105D01*
X192117Y243867D01*
X188883Y243867D01*
G37*
%LPD*%
%LPC*%
G36*
X138083Y243867D02*
X138083Y243867D01*
X135095Y245105D01*
X132809Y247391D01*
X131571Y250379D01*
X131571Y266821D01*
X132809Y269809D01*
X135095Y272095D01*
X138083Y273333D01*
X141317Y273333D01*
X144305Y272095D01*
X146591Y269809D01*
X147829Y266821D01*
X147829Y250379D01*
X146591Y247391D01*
X144305Y245105D01*
X141317Y243867D01*
X138083Y243867D01*
G37*
%LPD*%
%LPC*%
G36*
X1131983Y47967D02*
X1131983Y47967D01*
X1128995Y49205D01*
X1126709Y51491D01*
X1125471Y54479D01*
X1125471Y70921D01*
X1126709Y73909D01*
X1128995Y76195D01*
X1131983Y77433D01*
X1135217Y77433D01*
X1138205Y76195D01*
X1140491Y73909D01*
X1141729Y70921D01*
X1141729Y54479D01*
X1140491Y51491D01*
X1138205Y49205D01*
X1135217Y47967D01*
X1131983Y47967D01*
G37*
%LPD*%
%LPC*%
G36*
X903383Y47967D02*
X903383Y47967D01*
X900395Y49205D01*
X898109Y51491D01*
X896871Y54479D01*
X896871Y70921D01*
X898109Y73909D01*
X900395Y76195D01*
X903383Y77433D01*
X906617Y77433D01*
X909605Y76195D01*
X911891Y73909D01*
X913129Y70921D01*
X913129Y54479D01*
X911891Y51491D01*
X909605Y49205D01*
X906617Y47967D01*
X903383Y47967D01*
G37*
%LPD*%
%LPC*%
G36*
X928783Y47967D02*
X928783Y47967D01*
X925795Y49205D01*
X923509Y51491D01*
X922271Y54479D01*
X922271Y70921D01*
X923509Y73909D01*
X925795Y76195D01*
X928783Y77433D01*
X932017Y77433D01*
X935005Y76195D01*
X937291Y73909D01*
X938529Y70921D01*
X938529Y54479D01*
X937291Y51491D01*
X935005Y49205D01*
X932017Y47967D01*
X928783Y47967D01*
G37*
%LPD*%
%LPC*%
G36*
X954183Y47967D02*
X954183Y47967D01*
X951195Y49205D01*
X948909Y51491D01*
X947671Y54479D01*
X947671Y70921D01*
X948909Y73909D01*
X951195Y76195D01*
X954183Y77433D01*
X957417Y77433D01*
X960405Y76195D01*
X962691Y73909D01*
X963929Y70921D01*
X963929Y54479D01*
X962691Y51491D01*
X960405Y49205D01*
X957417Y47967D01*
X954183Y47967D01*
G37*
%LPD*%
%LPC*%
G36*
X979583Y47967D02*
X979583Y47967D01*
X976595Y49205D01*
X974309Y51491D01*
X973071Y54479D01*
X973071Y70921D01*
X974309Y73909D01*
X976595Y76195D01*
X979583Y77433D01*
X982817Y77433D01*
X985805Y76195D01*
X988091Y73909D01*
X989329Y70921D01*
X989329Y54479D01*
X988091Y51491D01*
X985805Y49205D01*
X982817Y47967D01*
X979583Y47967D01*
G37*
%LPD*%
%LPC*%
G36*
X1004983Y47967D02*
X1004983Y47967D01*
X1001995Y49205D01*
X999709Y51491D01*
X998471Y54479D01*
X998471Y70921D01*
X999709Y73909D01*
X1001995Y76195D01*
X1004983Y77433D01*
X1008217Y77433D01*
X1011205Y76195D01*
X1013491Y73909D01*
X1014729Y70921D01*
X1014729Y54479D01*
X1013491Y51491D01*
X1011205Y49205D01*
X1008217Y47967D01*
X1004983Y47967D01*
G37*
%LPD*%
%LPC*%
G36*
X138083Y167667D02*
X138083Y167667D01*
X135095Y168905D01*
X132809Y171191D01*
X131571Y174179D01*
X131571Y190621D01*
X132809Y193609D01*
X135095Y195895D01*
X138083Y197133D01*
X141317Y197133D01*
X144305Y195895D01*
X146591Y193609D01*
X147829Y190621D01*
X147829Y174179D01*
X146591Y171191D01*
X144305Y168905D01*
X142430Y168128D01*
X141317Y167667D01*
X138083Y167667D01*
G37*
%LPD*%
%LPC*%
G36*
X265083Y167667D02*
X265083Y167667D01*
X262095Y168905D01*
X259809Y171191D01*
X258571Y174179D01*
X258571Y190621D01*
X259809Y193609D01*
X262095Y195895D01*
X265083Y197133D01*
X268317Y197133D01*
X271305Y195895D01*
X273591Y193609D01*
X274829Y190621D01*
X274829Y174179D01*
X273591Y171191D01*
X271305Y168905D01*
X269430Y168128D01*
X268317Y167667D01*
X265083Y167667D01*
G37*
%LPD*%
%LPC*%
G36*
X188883Y167667D02*
X188883Y167667D01*
X185895Y168905D01*
X183609Y171191D01*
X182371Y174179D01*
X182371Y190621D01*
X183609Y193609D01*
X185895Y195895D01*
X188883Y197133D01*
X192117Y197133D01*
X195105Y195895D01*
X197391Y193609D01*
X198629Y190621D01*
X198629Y174179D01*
X197391Y171191D01*
X195105Y168905D01*
X193230Y168128D01*
X192117Y167667D01*
X188883Y167667D01*
G37*
%LPD*%
%LPC*%
G36*
X315883Y167667D02*
X315883Y167667D01*
X312895Y168905D01*
X310609Y171191D01*
X309371Y174179D01*
X309371Y190621D01*
X310609Y193609D01*
X312895Y195895D01*
X315883Y197133D01*
X319117Y197133D01*
X322105Y195895D01*
X324391Y193609D01*
X325629Y190621D01*
X325629Y174179D01*
X324391Y171191D01*
X322105Y168905D01*
X320230Y168128D01*
X319117Y167667D01*
X315883Y167667D01*
G37*
%LPD*%
%LPC*%
G36*
X290483Y167667D02*
X290483Y167667D01*
X287495Y168905D01*
X285209Y171191D01*
X283971Y174179D01*
X283971Y190621D01*
X285209Y193609D01*
X287495Y195895D01*
X290483Y197133D01*
X293717Y197133D01*
X296705Y195895D01*
X298991Y193609D01*
X300229Y190621D01*
X300229Y174179D01*
X298991Y171191D01*
X296705Y168905D01*
X294830Y168128D01*
X293717Y167667D01*
X290483Y167667D01*
G37*
%LPD*%
%LPC*%
G36*
X163483Y167667D02*
X163483Y167667D01*
X160495Y168905D01*
X158209Y171191D01*
X156971Y174179D01*
X156971Y190621D01*
X158209Y193609D01*
X160495Y195895D01*
X163483Y197133D01*
X166717Y197133D01*
X169705Y195895D01*
X171991Y193609D01*
X173229Y190621D01*
X173229Y174179D01*
X171991Y171191D01*
X169705Y168905D01*
X167830Y168128D01*
X166717Y167667D01*
X163483Y167667D01*
G37*
%LPD*%
%LPC*%
G36*
X426457Y129225D02*
X426457Y129225D01*
X422313Y130942D01*
X419142Y134113D01*
X417425Y138257D01*
X417425Y142743D01*
X419142Y146887D01*
X422313Y150058D01*
X426457Y151775D01*
X430943Y151775D01*
X435087Y150058D01*
X438258Y146887D01*
X439975Y142743D01*
X439975Y138257D01*
X438258Y134113D01*
X435087Y130942D01*
X431690Y129535D01*
X430943Y129225D01*
X426457Y129225D01*
G37*
%LPD*%
%LPC*%
G36*
X356457Y129225D02*
X356457Y129225D01*
X352313Y130942D01*
X349142Y134113D01*
X347425Y138257D01*
X347425Y142743D01*
X349142Y146887D01*
X352313Y150058D01*
X356457Y151775D01*
X360943Y151775D01*
X365087Y150058D01*
X368258Y146887D01*
X369975Y142743D01*
X369975Y138257D01*
X368258Y134113D01*
X365087Y130942D01*
X361690Y129535D01*
X360943Y129225D01*
X356457Y129225D01*
G37*
%LPD*%
%LPC*%
G36*
X245118Y337725D02*
X245118Y337725D01*
X244225Y338618D01*
X244225Y356382D01*
X245118Y357275D01*
X262882Y357275D01*
X263775Y356382D01*
X263775Y338618D01*
X262882Y337725D01*
X245118Y337725D01*
G37*
%LPD*%
%LPC*%
G36*
X194318Y96425D02*
X194318Y96425D01*
X193425Y97318D01*
X193425Y115082D01*
X194318Y115975D01*
X212082Y115975D01*
X212975Y115082D01*
X212975Y97318D01*
X212082Y96425D01*
X194318Y96425D01*
G37*
%LPD*%
%LPC*%
G36*
X201256Y337725D02*
X201256Y337725D01*
X197663Y339213D01*
X194913Y341963D01*
X193425Y345556D01*
X193425Y349444D01*
X194913Y353037D01*
X197663Y355787D01*
X201256Y357275D01*
X205144Y357275D01*
X208737Y355787D01*
X211487Y353037D01*
X212975Y349444D01*
X212975Y345556D01*
X211487Y341963D01*
X208737Y339213D01*
X205144Y337725D01*
X201256Y337725D01*
G37*
%LPD*%
%LPC*%
G36*
X252056Y96425D02*
X252056Y96425D01*
X248463Y97913D01*
X245713Y100663D01*
X244225Y104256D01*
X244225Y108144D01*
X245713Y111737D01*
X248463Y114487D01*
X251228Y115632D01*
X252056Y115975D01*
X255944Y115975D01*
X259537Y114487D01*
X262287Y111737D01*
X263775Y108144D01*
X263775Y104256D01*
X262287Y100663D01*
X259537Y97913D01*
X255944Y96425D01*
X252056Y96425D01*
G37*
%LPD*%
%LPC*%
G36*
X105140Y140496D02*
X105140Y140496D01*
X105127Y148072D01*
X110474Y153438D01*
X118050Y153451D01*
X123416Y148104D01*
X123429Y140528D01*
X118082Y135162D01*
X110506Y135149D01*
X105140Y140496D01*
G37*
%LPD*%
%LPC*%
G36*
X79740Y140452D02*
X79740Y140452D01*
X79727Y148027D01*
X85074Y153394D01*
X92650Y153407D01*
X98016Y148059D01*
X98029Y140484D01*
X92682Y135118D01*
X85106Y135104D01*
X79740Y140452D01*
G37*
%LPD*%
%LPC*%
G36*
X105184Y115096D02*
X105184Y115096D01*
X105171Y122672D01*
X110518Y128038D01*
X118094Y128051D01*
X123460Y122704D01*
X123473Y115128D01*
X118126Y109762D01*
X110550Y109749D01*
X105184Y115096D01*
G37*
%LPD*%
%LPC*%
G36*
X130584Y115141D02*
X130584Y115141D01*
X130571Y122716D01*
X135918Y128082D01*
X143494Y128096D01*
X148860Y122748D01*
X148873Y115172D01*
X143526Y109806D01*
X135950Y109793D01*
X130584Y115141D01*
G37*
%LPD*%
%LPC*%
G36*
X130540Y140540D02*
X130540Y140540D01*
X130526Y148116D01*
X135874Y153482D01*
X143450Y153496D01*
X148816Y148148D01*
X148829Y140572D01*
X143482Y135206D01*
X135906Y135193D01*
X130540Y140540D01*
G37*
%LPD*%
%LPC*%
G36*
X87103Y109711D02*
X87103Y109711D01*
X83742Y111103D01*
X81170Y113676D01*
X79777Y117037D01*
X79777Y120675D01*
X81170Y124036D01*
X83742Y126608D01*
X87103Y128000D01*
X90741Y128000D01*
X94102Y126608D01*
X96675Y124036D01*
X98067Y120675D01*
X98067Y117037D01*
X96675Y113676D01*
X94102Y111103D01*
X90741Y109711D01*
X87103Y109711D01*
G37*
%LPD*%
%LPC*%
G36*
X619115Y200815D02*
X619115Y200815D01*
X616518Y201891D01*
X614531Y203878D01*
X613455Y206475D01*
X613455Y209285D01*
X614531Y211882D01*
X616518Y213869D01*
X619115Y214945D01*
X621925Y214945D01*
X624522Y213869D01*
X626509Y211882D01*
X627585Y209285D01*
X627585Y206475D01*
X626509Y203878D01*
X624522Y201891D01*
X621925Y200815D01*
X619115Y200815D01*
G37*
%LPD*%
%LPC*%
G36*
X593715Y200815D02*
X593715Y200815D01*
X591118Y201891D01*
X589131Y203878D01*
X588055Y206475D01*
X588055Y209285D01*
X589131Y211882D01*
X591118Y213869D01*
X593715Y214945D01*
X596525Y214945D01*
X599122Y213869D01*
X601109Y211882D01*
X602185Y209285D01*
X602185Y206475D01*
X601109Y203878D01*
X599122Y201891D01*
X596525Y200815D01*
X593715Y200815D01*
G37*
%LPD*%
%LPC*%
G36*
X492115Y200815D02*
X492115Y200815D01*
X489518Y201891D01*
X487531Y203878D01*
X486455Y206475D01*
X486455Y209285D01*
X487531Y211882D01*
X489518Y213869D01*
X492115Y214945D01*
X494925Y214945D01*
X497522Y213869D01*
X499509Y211882D01*
X500585Y209285D01*
X500585Y206475D01*
X499509Y203878D01*
X497522Y201891D01*
X494925Y200815D01*
X492115Y200815D01*
G37*
%LPD*%
%LPC*%
G36*
X542915Y200815D02*
X542915Y200815D01*
X540318Y201891D01*
X538331Y203878D01*
X537255Y206475D01*
X537255Y209285D01*
X538331Y211882D01*
X540318Y213869D01*
X542915Y214945D01*
X545725Y214945D01*
X548322Y213869D01*
X550309Y211882D01*
X551385Y209285D01*
X551385Y206475D01*
X550309Y203878D01*
X548322Y201891D01*
X545725Y200815D01*
X542915Y200815D01*
G37*
%LPD*%
%LPC*%
G36*
X568315Y200815D02*
X568315Y200815D01*
X565718Y201891D01*
X563731Y203878D01*
X562655Y206475D01*
X562655Y209285D01*
X563731Y211882D01*
X565718Y213869D01*
X568315Y214945D01*
X571125Y214945D01*
X573722Y213869D01*
X575709Y211882D01*
X576785Y209285D01*
X576785Y206475D01*
X575709Y203878D01*
X573722Y201891D01*
X571125Y200815D01*
X568315Y200815D01*
G37*
%LPD*%
%LPC*%
G36*
X644515Y200815D02*
X644515Y200815D01*
X641918Y201891D01*
X639931Y203878D01*
X638855Y206475D01*
X638855Y209285D01*
X639931Y211882D01*
X641918Y213869D01*
X644515Y214945D01*
X647325Y214945D01*
X649922Y213869D01*
X651909Y211882D01*
X652985Y209285D01*
X652985Y206475D01*
X651909Y203878D01*
X649922Y201891D01*
X647325Y200815D01*
X644515Y200815D01*
G37*
%LPD*%
%LPC*%
G36*
X669915Y200815D02*
X669915Y200815D01*
X667318Y201891D01*
X665331Y203878D01*
X664255Y206475D01*
X664255Y209285D01*
X665331Y211882D01*
X667318Y213869D01*
X669915Y214945D01*
X672725Y214945D01*
X675322Y213869D01*
X677309Y211882D01*
X678385Y209285D01*
X678385Y206475D01*
X677309Y203878D01*
X675322Y201891D01*
X672725Y200815D01*
X669915Y200815D01*
G37*
%LPD*%
%LPC*%
G36*
X243331Y260631D02*
X243331Y260631D01*
X243331Y274141D01*
X243441Y274124D01*
X244810Y273679D01*
X246093Y273025D01*
X247257Y272179D01*
X248275Y271161D01*
X249121Y269997D01*
X249775Y268714D01*
X250220Y267345D01*
X250445Y265924D01*
X250445Y260631D01*
X243331Y260631D01*
G37*
%LPD*%
%LPC*%
G36*
X217931Y260631D02*
X217931Y260631D01*
X217931Y274141D01*
X218041Y274124D01*
X219410Y273679D01*
X220693Y273025D01*
X221857Y272179D01*
X222875Y271161D01*
X223721Y269997D01*
X224375Y268714D01*
X224820Y267345D01*
X225045Y265924D01*
X225045Y260631D01*
X217931Y260631D01*
G37*
%LPD*%
%LPC*%
G36*
X243331Y184431D02*
X243331Y184431D01*
X243331Y197941D01*
X243441Y197924D01*
X244810Y197479D01*
X246093Y196825D01*
X247257Y195979D01*
X248275Y194961D01*
X249121Y193797D01*
X249775Y192514D01*
X250220Y191145D01*
X250445Y189724D01*
X250445Y184431D01*
X243331Y184431D01*
G37*
%LPD*%
%LPC*%
G36*
X217931Y184431D02*
X217931Y184431D01*
X217931Y197941D01*
X218041Y197924D01*
X219410Y197479D01*
X220693Y196825D01*
X221857Y195979D01*
X222875Y194961D01*
X223721Y193797D01*
X224375Y192514D01*
X224820Y191145D01*
X225045Y189724D01*
X225045Y184431D01*
X217931Y184431D01*
G37*
%LPD*%
%LPC*%
G36*
X217931Y180369D02*
X217931Y180369D01*
X225045Y180369D01*
X225045Y175076D01*
X224820Y173655D01*
X224375Y172286D01*
X223721Y171003D01*
X222875Y169839D01*
X221857Y168821D01*
X220693Y167975D01*
X219410Y167321D01*
X218041Y166876D01*
X217931Y166859D01*
X217931Y180369D01*
G37*
%LPD*%
%LPC*%
G36*
X243331Y180369D02*
X243331Y180369D01*
X250445Y180369D01*
X250445Y175076D01*
X250220Y173655D01*
X249775Y172286D01*
X249121Y171003D01*
X248275Y169839D01*
X247257Y168821D01*
X246093Y167975D01*
X244810Y167321D01*
X243441Y166876D01*
X243331Y166859D01*
X243331Y180369D01*
G37*
%LPD*%
%LPC*%
G36*
X243331Y256569D02*
X243331Y256569D01*
X250445Y256569D01*
X250445Y251276D01*
X250220Y249855D01*
X249775Y248486D01*
X249121Y247203D01*
X248275Y246039D01*
X247257Y245021D01*
X246093Y244175D01*
X244810Y243521D01*
X243441Y243076D01*
X243331Y243059D01*
X243331Y256569D01*
G37*
%LPD*%
%LPC*%
G36*
X217931Y256569D02*
X217931Y256569D01*
X225045Y256569D01*
X225045Y251276D01*
X224820Y249855D01*
X224375Y248486D01*
X223721Y247203D01*
X222875Y246039D01*
X221857Y245021D01*
X220693Y244175D01*
X219410Y243521D01*
X218041Y243076D01*
X217931Y243059D01*
X217931Y256569D01*
G37*
%LPD*%
%LPC*%
G36*
X206755Y260631D02*
X206755Y260631D01*
X206755Y265924D01*
X206980Y267345D01*
X207425Y268714D01*
X208079Y269997D01*
X208925Y271161D01*
X209943Y272179D01*
X211107Y273025D01*
X212390Y273679D01*
X213759Y274124D01*
X213869Y274141D01*
X213869Y260631D01*
X206755Y260631D01*
G37*
%LPD*%
%LPC*%
G36*
X206755Y184431D02*
X206755Y184431D01*
X206755Y189724D01*
X206980Y191145D01*
X207425Y192514D01*
X208079Y193797D01*
X208925Y194961D01*
X209943Y195979D01*
X211107Y196825D01*
X212390Y197479D01*
X213759Y197924D01*
X213869Y197941D01*
X213869Y184431D01*
X206755Y184431D01*
G37*
%LPD*%
%LPC*%
G36*
X232155Y184431D02*
X232155Y184431D01*
X232155Y189724D01*
X232380Y191145D01*
X232825Y192514D01*
X233479Y193797D01*
X234325Y194961D01*
X235343Y195979D01*
X236507Y196825D01*
X237790Y197479D01*
X239159Y197924D01*
X239269Y197941D01*
X239269Y184431D01*
X232155Y184431D01*
G37*
%LPD*%
%LPC*%
G36*
X232155Y260631D02*
X232155Y260631D01*
X232155Y265924D01*
X232380Y267345D01*
X232825Y268714D01*
X233479Y269997D01*
X234325Y271161D01*
X235343Y272179D01*
X236507Y273025D01*
X237790Y273679D01*
X239159Y274124D01*
X239269Y274141D01*
X239269Y260631D01*
X232155Y260631D01*
G37*
%LPD*%
%LPC*%
G36*
X239159Y166876D02*
X239159Y166876D01*
X237790Y167321D01*
X236507Y167975D01*
X235343Y168821D01*
X234325Y169839D01*
X233479Y171003D01*
X232825Y172286D01*
X232380Y173655D01*
X232155Y175076D01*
X232155Y180369D01*
X239269Y180369D01*
X239269Y166859D01*
X239159Y166876D01*
G37*
%LPD*%
%LPC*%
G36*
X213759Y166876D02*
X213759Y166876D01*
X212390Y167321D01*
X211107Y167975D01*
X209943Y168821D01*
X208925Y169839D01*
X208079Y171003D01*
X207425Y172286D01*
X206980Y173655D01*
X206755Y175076D01*
X206755Y180369D01*
X213869Y180369D01*
X213869Y166859D01*
X213759Y166876D01*
G37*
%LPD*%
%LPC*%
G36*
X213759Y243076D02*
X213759Y243076D01*
X212390Y243521D01*
X211107Y244175D01*
X209943Y245021D01*
X208925Y246039D01*
X208079Y247203D01*
X207425Y248486D01*
X206980Y249855D01*
X206755Y251276D01*
X206755Y256569D01*
X213869Y256569D01*
X213869Y243059D01*
X213759Y243076D01*
G37*
%LPD*%
%LPC*%
G36*
X239159Y243076D02*
X239159Y243076D01*
X237790Y243521D01*
X236507Y244175D01*
X235343Y245021D01*
X234325Y246039D01*
X233479Y247203D01*
X232825Y248486D01*
X232380Y249855D01*
X232155Y251276D01*
X232155Y256569D01*
X239269Y256569D01*
X239269Y243059D01*
X239159Y243076D01*
G37*
%LPD*%
%LPC*%
G36*
X396949Y143749D02*
X396949Y143749D01*
X396949Y152367D01*
X398418Y151890D01*
X400142Y151012D01*
X401707Y149875D01*
X403075Y148507D01*
X404212Y146942D01*
X405090Y145218D01*
X405567Y143749D01*
X396949Y143749D01*
G37*
%LPD*%
%LPC*%
G36*
X381833Y143749D02*
X381833Y143749D01*
X382310Y145218D01*
X383188Y146942D01*
X384325Y148507D01*
X385693Y149875D01*
X387258Y151012D01*
X388982Y151890D01*
X390451Y152367D01*
X390451Y143749D01*
X381833Y143749D01*
G37*
%LPD*%
%LPC*%
G36*
X396949Y137251D02*
X396949Y137251D01*
X405567Y137251D01*
X405090Y135782D01*
X404212Y134058D01*
X403075Y132493D01*
X401707Y131125D01*
X400142Y129988D01*
X398418Y129110D01*
X396949Y128633D01*
X396949Y137251D01*
G37*
%LPD*%
%LPC*%
G36*
X388982Y129110D02*
X388982Y129110D01*
X387258Y129988D01*
X385693Y131125D01*
X384325Y132493D01*
X383188Y134058D01*
X382310Y135782D01*
X381833Y137251D01*
X390451Y137251D01*
X390451Y128633D01*
X388982Y129110D01*
G37*
%LPD*%
%LPC*%
G36*
X520951Y209911D02*
X520951Y209911D01*
X520951Y215715D01*
X521277Y215650D01*
X522748Y215041D01*
X524071Y214157D01*
X525197Y213031D01*
X526081Y211708D01*
X526690Y210237D01*
X526755Y209911D01*
X520951Y209911D01*
G37*
%LPD*%
%LPC*%
G36*
X511085Y209911D02*
X511085Y209911D01*
X511150Y210237D01*
X511759Y211708D01*
X512643Y213031D01*
X513769Y214157D01*
X515092Y215041D01*
X516563Y215650D01*
X516889Y215715D01*
X516889Y209911D01*
X511085Y209911D01*
G37*
%LPD*%
%LPC*%
G36*
X520951Y205849D02*
X520951Y205849D01*
X526755Y205849D01*
X526690Y205523D01*
X526081Y204052D01*
X525197Y202729D01*
X524071Y201603D01*
X522748Y200719D01*
X522529Y200628D01*
X521277Y200110D01*
X520951Y200045D01*
X520951Y205849D01*
G37*
%LPD*%
%LPC*%
G36*
X516563Y200110D02*
X516563Y200110D01*
X515092Y200719D01*
X513769Y201603D01*
X512643Y202729D01*
X511759Y204052D01*
X511150Y205523D01*
X511085Y205849D01*
X516889Y205849D01*
X516889Y200045D01*
X516563Y200110D01*
G37*
%LPD*%
D10*
X139700Y175796D02*
X139700Y189004D01*
X165100Y189004D02*
X165100Y175796D01*
X292100Y175796D02*
X292100Y189004D01*
X317500Y189004D02*
X317500Y175796D01*
X190500Y175796D02*
X190500Y189004D01*
X215900Y189004D02*
X215900Y175796D01*
X266700Y175796D02*
X266700Y189004D01*
X241300Y189004D02*
X241300Y175796D01*
X317500Y251996D02*
X317500Y265204D01*
X292100Y265204D02*
X292100Y251996D01*
X266700Y251996D02*
X266700Y265204D01*
X241300Y265204D02*
X241300Y251996D01*
X215900Y251996D02*
X215900Y265204D01*
X190500Y265204D02*
X190500Y251996D01*
X165100Y251996D02*
X165100Y265204D01*
X139700Y265204D02*
X139700Y251996D01*
D11*
X393700Y140500D03*
X428700Y140500D03*
X358700Y140500D03*
D12*
X203200Y106200D03*
D13*
X254000Y106200D03*
D12*
X254000Y347500D03*
D13*
X203200Y347500D03*
D14*
X88922Y118856D03*
D15*
X114322Y118900D03*
X139722Y118944D03*
X88878Y144256D03*
X114278Y144300D03*
X139678Y144344D03*
D16*
X493520Y207880D03*
X518920Y207880D03*
X544320Y207880D03*
X569720Y207880D03*
X595120Y207880D03*
X620520Y207880D03*
X645920Y207880D03*
X671320Y207880D03*
D10*
X879600Y69304D02*
X879600Y56096D01*
X905000Y56096D02*
X905000Y69304D01*
X930400Y69304D02*
X930400Y56096D01*
X955800Y56096D02*
X955800Y69304D01*
X981200Y69304D02*
X981200Y56096D01*
X1006600Y56096D02*
X1006600Y69304D01*
X1032000Y69304D02*
X1032000Y56096D01*
X1057400Y56096D02*
X1057400Y69304D01*
X1082800Y69304D02*
X1082800Y56096D01*
X1108200Y56096D02*
X1108200Y69304D01*
X1133600Y69304D02*
X1133600Y56096D01*
X1159000Y56096D02*
X1159000Y69304D01*
D17*
X670940Y134900D02*
X670940Y150140D01*
X645540Y150140D02*
X645540Y134900D01*
X620140Y134900D02*
X620140Y150140D01*
X594740Y150140D02*
X594740Y134900D01*
D18*
X114300Y207800D03*
D19*
X114300Y220500D01*
X127000Y233200D01*
X152400Y233200D01*
X165100Y245900D01*
X165100Y258600D01*
M02*
