G04 EAGLE Gerber RS-274X export*
G75*
%MOMM*%
%FSLAX34Y34*%
%LPD*%
%INTop Copper*%
%IPPOS*%
%AMOC8*
5,1,8,0,0,1.08239X$1,22.5*%
G01*
%ADD10C,1.320800*%
%ADD11R,5.400000X6.200000*%
%ADD12R,1.000000X1.600000*%
%ADD13C,1.950000*%
%ADD14R,1.650000X1.650000*%
%ADD15C,1.650000*%
%ADD16C,1.524000*%
%ADD17P,1.649562X8X22.600000*%
%ADD18C,1.108000*%
%ADD19R,1.560000X2.000000*%
%ADD20C,1.524000*%
%ADD21C,0.762000*%
%ADD22C,0.406400*%
%ADD23C,0.756400*%
%ADD24C,0.508000*%


D10*
X139700Y175796D02*
X139700Y189004D01*
X165100Y189004D02*
X165100Y175796D01*
X292100Y175796D02*
X292100Y189004D01*
X317500Y189004D02*
X317500Y175796D01*
X190500Y175796D02*
X190500Y189004D01*
X215900Y189004D02*
X215900Y175796D01*
X266700Y175796D02*
X266700Y189004D01*
X241300Y189004D02*
X241300Y175796D01*
X317500Y251996D02*
X317500Y265204D01*
X292100Y265204D02*
X292100Y251996D01*
X266700Y251996D02*
X266700Y265204D01*
X241300Y265204D02*
X241300Y251996D01*
X215900Y251996D02*
X215900Y265204D01*
X190500Y265204D02*
X190500Y251996D01*
X165100Y251996D02*
X165100Y265204D01*
X139700Y265204D02*
X139700Y251996D01*
D11*
X88900Y347100D03*
D12*
X66100Y274100D03*
X111700Y274100D03*
D13*
X393700Y140500D03*
X428700Y140500D03*
X358700Y140500D03*
D14*
X203200Y106200D03*
D15*
X254000Y106200D03*
D14*
X254000Y347500D03*
D15*
X203200Y347500D03*
D16*
X88922Y118856D03*
D17*
X114322Y118900D03*
X139722Y118944D03*
X88878Y144256D03*
X114278Y144300D03*
X139678Y144344D03*
D18*
X493520Y207880D03*
X518920Y207880D03*
X544320Y207880D03*
X569720Y207880D03*
X595120Y207880D03*
X620520Y207880D03*
X645920Y207880D03*
X671320Y207880D03*
D19*
X1134400Y367700D03*
X1109000Y367700D03*
X1083600Y367700D03*
X1058200Y367700D03*
X1032800Y367700D03*
X1007400Y367700D03*
X982000Y367700D03*
X956600Y367700D03*
X931200Y367700D03*
X905800Y367700D03*
X880400Y367700D03*
X855000Y367700D03*
X829600Y367700D03*
X804200Y367700D03*
X778800Y367700D03*
X778800Y185700D03*
X804200Y185700D03*
X829600Y185700D03*
X855000Y185700D03*
X880400Y185700D03*
X905800Y185700D03*
X931200Y185700D03*
X956600Y185700D03*
X982000Y185700D03*
X1007400Y185700D03*
X1032800Y185700D03*
X1058200Y185700D03*
X1083600Y185700D03*
X1109000Y185700D03*
X1134400Y185700D03*
D10*
X879600Y69304D02*
X879600Y56096D01*
X905000Y56096D02*
X905000Y69304D01*
X930400Y69304D02*
X930400Y56096D01*
X955800Y56096D02*
X955800Y69304D01*
X981200Y69304D02*
X981200Y56096D01*
X1006600Y56096D02*
X1006600Y69304D01*
X1032000Y69304D02*
X1032000Y56096D01*
X1057400Y56096D02*
X1057400Y69304D01*
X1082800Y69304D02*
X1082800Y56096D01*
X1108200Y56096D02*
X1108200Y69304D01*
X1133600Y69304D02*
X1133600Y56096D01*
X1159000Y56096D02*
X1159000Y69304D01*
D20*
X670940Y134900D02*
X670940Y150140D01*
X645540Y150140D02*
X645540Y134900D01*
X620140Y134900D02*
X620140Y150140D01*
X594740Y150140D02*
X594740Y134900D01*
D21*
X126030Y384230D02*
X88900Y347100D01*
X215900Y258600D02*
X228600Y271300D01*
X204570Y384230D02*
X126030Y384230D01*
X204570Y384230D02*
X228600Y360200D01*
X228600Y271300D01*
X393700Y170000D02*
X393700Y140500D01*
X393700Y170000D02*
X393700Y182400D01*
X439930Y228630D01*
X439930Y376100D02*
X431800Y384230D01*
X204570Y384230D01*
X439930Y376100D02*
X439930Y228630D01*
D22*
X241300Y182400D02*
X215900Y182400D01*
X241300Y182400D02*
X241300Y186828D01*
X302260Y247788D01*
X289123Y372006D02*
X247650Y372006D01*
X302260Y358869D02*
X302260Y247788D01*
X302260Y358869D02*
X289123Y372006D01*
X247650Y372006D02*
X247650Y372900D01*
X240030Y365280D01*
X240030Y259870D02*
X241300Y258600D01*
X240030Y259870D02*
X240030Y365280D01*
X241300Y258600D02*
X215900Y258600D01*
X800000Y371900D02*
X804200Y367700D01*
X800000Y371900D02*
X800000Y390000D01*
X796300Y393700D01*
X457530Y393700D02*
X439930Y376100D01*
X457530Y393700D02*
X796300Y393700D01*
X518920Y207880D02*
X481040Y170000D01*
X393700Y170000D01*
X780000Y110700D02*
X855000Y185700D01*
X780000Y110700D02*
X780000Y110000D01*
X500000Y110000D01*
X481040Y128960D01*
X481040Y170000D01*
D21*
X266700Y118900D02*
X254000Y106200D01*
X266700Y118900D02*
X266700Y182400D01*
D22*
X114322Y118900D02*
X114322Y93522D01*
X114300Y93500D01*
X134874Y72926D01*
X271526Y72926D02*
X292100Y93500D01*
X292100Y182400D01*
X271526Y72926D02*
X134874Y72926D01*
D21*
X81600Y258600D02*
X66100Y274100D01*
X81600Y258600D02*
X139700Y258600D01*
X357156Y168058D02*
X357156Y142044D01*
X358700Y140500D01*
X317500Y182400D02*
X317500Y97310D01*
X283210Y63020D01*
X93980Y63020D01*
X54610Y262610D02*
X66100Y274100D01*
X54610Y102390D02*
X93980Y63020D01*
X54610Y102390D02*
X54610Y262610D01*
X317500Y182400D02*
X325100Y190000D01*
X335213Y190000D02*
X357156Y168058D01*
X335213Y190000D02*
X325100Y190000D01*
D22*
X114278Y207778D02*
X114278Y144300D01*
X114278Y207778D02*
X114300Y207800D01*
D23*
X114300Y207800D03*
D21*
X190500Y258600D02*
X190500Y334800D01*
X203200Y347500D01*
X254000Y347500D02*
X266700Y334800D01*
X266700Y258600D01*
D22*
X101600Y131533D02*
X88878Y144256D01*
X101600Y131533D02*
X101600Y106200D01*
X88900Y93500D01*
X77509Y93500D01*
X64516Y106493D01*
X64516Y221516D01*
X85090Y242090D02*
X135238Y242090D01*
X135564Y241764D01*
X136000Y241328D01*
X279400Y241328D02*
X292100Y254028D01*
X292100Y258600D01*
X85090Y242090D02*
X64516Y221516D01*
X135564Y241764D02*
X278964Y241764D01*
X279400Y241328D01*
X160970Y165636D02*
X139678Y144344D01*
X160970Y165636D02*
X169308Y165636D01*
X180340Y193212D02*
X186292Y199164D01*
X194708Y199164D01*
X200660Y193212D01*
X245508Y165636D02*
X249572Y169700D01*
X254000Y169700D01*
X180340Y176668D02*
X180340Y193212D01*
X200660Y193212D02*
X200660Y176668D01*
X180340Y176668D02*
X169308Y165636D01*
X200660Y176668D02*
X211692Y165636D01*
X245508Y165636D01*
X254000Y169700D02*
X256540Y172240D01*
X256540Y193212D01*
X317500Y254172D02*
X317500Y258600D01*
X317500Y254172D02*
X256540Y193212D01*
D21*
X190500Y118900D02*
X203200Y106200D01*
X190500Y118900D02*
X190500Y182400D01*
D22*
X88922Y118856D02*
X77216Y130562D01*
X77216Y208816D01*
X88900Y220500D01*
X139700Y220500D01*
X165100Y195100D01*
X165100Y182400D01*
X139700Y182400D02*
X139700Y169700D01*
X127000Y157000D01*
X127000Y131600D01*
X139656Y118944D01*
X139722Y118944D01*
X111700Y274100D02*
X96460Y289340D01*
X57410Y289340D02*
X39370Y271300D01*
X39370Y92230D01*
X80010Y51590D02*
X350520Y51590D01*
X424561Y125631D01*
D24*
X96460Y289340D02*
X57410Y289340D01*
D22*
X39370Y92230D02*
X80010Y51590D01*
X424561Y125631D02*
X428700Y140500D01*
X595120Y150000D02*
X595120Y207880D01*
X594740Y149620D02*
X594740Y142520D01*
X594740Y149620D02*
X595120Y150000D01*
X620140Y142520D02*
X620520Y142900D01*
X620520Y207880D01*
X645920Y207880D02*
X645920Y142900D01*
X645540Y142520D01*
X982000Y185700D02*
X982000Y63500D01*
X981200Y62700D01*
X1134400Y367700D02*
X1134400Y374400D01*
X1140000Y380000D01*
X1180000Y380000D01*
X1183918Y376082D01*
X1183962Y372099D01*
X1183962Y73962D01*
X1170000Y60000D01*
X1161700Y60000D01*
X1159000Y62700D01*
X879600Y62700D02*
X879600Y169600D01*
X880000Y170000D01*
X880400Y170400D02*
X880400Y185700D01*
X880400Y170400D02*
X880000Y170000D01*
X905000Y165000D02*
X905000Y62700D01*
X905800Y165800D02*
X905800Y185700D01*
X905800Y165800D02*
X905000Y165000D01*
X931200Y185700D02*
X931200Y63500D01*
X930400Y62700D01*
X956600Y63500D02*
X956600Y185700D01*
X956600Y63500D02*
X955800Y62700D01*
X1007400Y63500D02*
X1007400Y185700D01*
X1007400Y63500D02*
X1006600Y62700D01*
X1032800Y63500D02*
X1032800Y185700D01*
X1032800Y63500D02*
X1032000Y62700D01*
X1058200Y63500D02*
X1058200Y185700D01*
X1058200Y63500D02*
X1057400Y62700D01*
X1083600Y63500D02*
X1083600Y185700D01*
X1083600Y63500D02*
X1082800Y62700D01*
X1109000Y63500D02*
X1109000Y185700D01*
X1109000Y63500D02*
X1108200Y62700D01*
X1134400Y63500D02*
X1134400Y185700D01*
X1134400Y63500D02*
X1133600Y62700D01*
X790156Y379173D02*
X788073Y381256D01*
X852429Y367700D02*
X855000Y367700D01*
X852429Y367700D02*
X838873Y354144D01*
X794927Y354144D02*
X790156Y358915D01*
X790156Y379173D01*
X794927Y354144D02*
X838873Y354144D01*
X470000Y350000D02*
X470000Y231400D01*
X493520Y207880D01*
X501256Y381256D02*
X788073Y381256D01*
X501256Y381256D02*
X470000Y350000D01*
X671320Y207880D02*
X671320Y142900D01*
X670940Y142520D01*
M02*
