G04 EAGLE Gerber RS-274X export*
G75*
%MOMM*%
%FSLAX34Y34*%
%LPD*%
%IN*%
%IPPOS*%
%AMOC8*
5,1,8,0,0,1.08239X$1,22.5*%
G01*
%ADD10C,0.254000*%


D10*
X-20000Y20000D02*
X1210000Y20000D01*
X1210000Y420000D01*
X-20000Y420000D01*
X-20000Y20000D01*
X421400Y346964D02*
X421324Y345896D01*
X421171Y344835D01*
X420943Y343788D01*
X420641Y342760D01*
X420267Y341756D01*
X419822Y340781D01*
X419308Y339841D01*
X418729Y338940D01*
X418087Y338082D01*
X417385Y337272D01*
X416628Y336515D01*
X415818Y335813D01*
X414960Y335171D01*
X414059Y334592D01*
X413119Y334078D01*
X412144Y333633D01*
X411140Y333259D01*
X410112Y332957D01*
X409065Y332729D01*
X408004Y332576D01*
X406936Y332500D01*
X405864Y332500D01*
X404796Y332576D01*
X403735Y332729D01*
X402688Y332957D01*
X401660Y333259D01*
X400656Y333633D01*
X399681Y334078D01*
X398741Y334592D01*
X397840Y335171D01*
X396982Y335813D01*
X396172Y336515D01*
X395415Y337272D01*
X394713Y338082D01*
X394071Y338940D01*
X393492Y339841D01*
X392978Y340781D01*
X392533Y341756D01*
X392159Y342760D01*
X391857Y343788D01*
X391629Y344835D01*
X391476Y345896D01*
X391400Y346964D01*
X391400Y348036D01*
X391476Y349104D01*
X391629Y350165D01*
X391857Y351212D01*
X392159Y352240D01*
X392533Y353244D01*
X392978Y354219D01*
X393492Y355159D01*
X394071Y356060D01*
X394713Y356918D01*
X395415Y357728D01*
X396172Y358485D01*
X396982Y359187D01*
X397840Y359829D01*
X398741Y360408D01*
X399681Y360922D01*
X400656Y361367D01*
X401660Y361741D01*
X402688Y362043D01*
X403735Y362271D01*
X404796Y362424D01*
X405864Y362500D01*
X406936Y362500D01*
X408004Y362424D01*
X409065Y362271D01*
X410112Y362043D01*
X411140Y361741D01*
X412144Y361367D01*
X413119Y360922D01*
X414059Y360408D01*
X414960Y359829D01*
X415818Y359187D01*
X416628Y358485D01*
X417385Y357728D01*
X418087Y356918D01*
X418729Y356060D01*
X419308Y355159D01*
X419822Y354219D01*
X420267Y353244D01*
X420641Y352240D01*
X420943Y351212D01*
X421171Y350165D01*
X421324Y349104D01*
X421400Y348036D01*
X421400Y346964D01*
X436800Y57564D02*
X436724Y56496D01*
X436571Y55435D01*
X436343Y54388D01*
X436041Y53360D01*
X435667Y52356D01*
X435222Y51381D01*
X434708Y50441D01*
X434129Y49540D01*
X433487Y48682D01*
X432785Y47872D01*
X432028Y47115D01*
X431218Y46413D01*
X430360Y45771D01*
X429459Y45192D01*
X428519Y44678D01*
X427544Y44233D01*
X426540Y43859D01*
X425512Y43557D01*
X424465Y43329D01*
X423404Y43176D01*
X422336Y43100D01*
X421264Y43100D01*
X420196Y43176D01*
X419135Y43329D01*
X418088Y43557D01*
X417060Y43859D01*
X416056Y44233D01*
X415081Y44678D01*
X414141Y45192D01*
X413240Y45771D01*
X412382Y46413D01*
X411572Y47115D01*
X410815Y47872D01*
X410113Y48682D01*
X409471Y49540D01*
X408892Y50441D01*
X408378Y51381D01*
X407933Y52356D01*
X407559Y53360D01*
X407257Y54388D01*
X407029Y55435D01*
X406876Y56496D01*
X406800Y57564D01*
X406800Y58636D01*
X406876Y59704D01*
X407029Y60765D01*
X407257Y61812D01*
X407559Y62840D01*
X407933Y63844D01*
X408378Y64819D01*
X408892Y65759D01*
X409471Y66660D01*
X410113Y67518D01*
X410815Y68328D01*
X411572Y69085D01*
X412382Y69787D01*
X413240Y70429D01*
X414141Y71008D01*
X415081Y71522D01*
X416056Y71967D01*
X417060Y72341D01*
X418088Y72643D01*
X419135Y72871D01*
X420196Y73024D01*
X421264Y73100D01*
X422336Y73100D01*
X423404Y73024D01*
X424465Y72871D01*
X425512Y72643D01*
X426540Y72341D01*
X427544Y71967D01*
X428519Y71522D01*
X429459Y71008D01*
X430360Y70429D01*
X431218Y69787D01*
X432028Y69085D01*
X432785Y68328D01*
X433487Y67518D01*
X434129Y66660D01*
X434708Y65759D01*
X435222Y64819D01*
X435667Y63844D01*
X436041Y62840D01*
X436343Y61812D01*
X436571Y60765D01*
X436724Y59704D01*
X436800Y58636D01*
X436800Y57564D01*
X38180Y377444D02*
X38104Y376376D01*
X37951Y375315D01*
X37723Y374268D01*
X37421Y373240D01*
X37047Y372236D01*
X36602Y371261D01*
X36088Y370321D01*
X35509Y369420D01*
X34867Y368562D01*
X34165Y367752D01*
X33408Y366995D01*
X32598Y366293D01*
X31740Y365651D01*
X30839Y365072D01*
X29899Y364558D01*
X28924Y364113D01*
X27920Y363739D01*
X26892Y363437D01*
X25845Y363209D01*
X24784Y363056D01*
X23716Y362980D01*
X22644Y362980D01*
X21576Y363056D01*
X20515Y363209D01*
X19468Y363437D01*
X18440Y363739D01*
X17436Y364113D01*
X16461Y364558D01*
X15521Y365072D01*
X14620Y365651D01*
X13762Y366293D01*
X12952Y366995D01*
X12195Y367752D01*
X11493Y368562D01*
X10851Y369420D01*
X10272Y370321D01*
X9758Y371261D01*
X9313Y372236D01*
X8939Y373240D01*
X8637Y374268D01*
X8409Y375315D01*
X8256Y376376D01*
X8180Y377444D01*
X8180Y378516D01*
X8256Y379584D01*
X8409Y380645D01*
X8637Y381692D01*
X8939Y382720D01*
X9313Y383724D01*
X9758Y384699D01*
X10272Y385639D01*
X10851Y386540D01*
X11493Y387398D01*
X12195Y388208D01*
X12952Y388965D01*
X13762Y389667D01*
X14620Y390309D01*
X15521Y390888D01*
X16461Y391402D01*
X17436Y391847D01*
X18440Y392221D01*
X19468Y392523D01*
X20515Y392751D01*
X21576Y392904D01*
X22644Y392980D01*
X23716Y392980D01*
X24784Y392904D01*
X25845Y392751D01*
X26892Y392523D01*
X27920Y392221D01*
X28924Y391847D01*
X29899Y391402D01*
X30839Y390888D01*
X31740Y390309D01*
X32598Y389667D01*
X33408Y388965D01*
X34165Y388208D01*
X34867Y387398D01*
X35509Y386540D01*
X36088Y385639D01*
X36602Y384699D01*
X37047Y383724D01*
X37421Y382720D01*
X37723Y381692D01*
X37951Y380645D01*
X38104Y379584D01*
X38180Y378516D01*
X38180Y377444D01*
X35000Y59464D02*
X34924Y58396D01*
X34771Y57335D01*
X34543Y56288D01*
X34241Y55260D01*
X33867Y54256D01*
X33422Y53281D01*
X32908Y52341D01*
X32329Y51440D01*
X31687Y50582D01*
X30985Y49772D01*
X30228Y49015D01*
X29418Y48313D01*
X28560Y47671D01*
X27659Y47092D01*
X26719Y46578D01*
X25744Y46133D01*
X24740Y45759D01*
X23712Y45457D01*
X22665Y45229D01*
X21604Y45076D01*
X20536Y45000D01*
X19464Y45000D01*
X18396Y45076D01*
X17335Y45229D01*
X16288Y45457D01*
X15260Y45759D01*
X14256Y46133D01*
X13281Y46578D01*
X12341Y47092D01*
X11440Y47671D01*
X10582Y48313D01*
X9772Y49015D01*
X9015Y49772D01*
X8313Y50582D01*
X7671Y51440D01*
X7092Y52341D01*
X6578Y53281D01*
X6133Y54256D01*
X5759Y55260D01*
X5457Y56288D01*
X5229Y57335D01*
X5076Y58396D01*
X5000Y59464D01*
X5000Y60536D01*
X5076Y61604D01*
X5229Y62665D01*
X5457Y63712D01*
X5759Y64740D01*
X6133Y65744D01*
X6578Y66719D01*
X7092Y67659D01*
X7671Y68560D01*
X8313Y69418D01*
X9015Y70228D01*
X9772Y70985D01*
X10582Y71687D01*
X11440Y72329D01*
X12341Y72908D01*
X13281Y73422D01*
X14256Y73867D01*
X15260Y74241D01*
X16288Y74543D01*
X17335Y74771D01*
X18396Y74924D01*
X19464Y75000D01*
X20536Y75000D01*
X21604Y74924D01*
X22665Y74771D01*
X23712Y74543D01*
X24740Y74241D01*
X25744Y73867D01*
X26719Y73422D01*
X27659Y72908D01*
X28560Y72329D01*
X29418Y71687D01*
X30228Y70985D01*
X30985Y70228D01*
X31687Y69418D01*
X32329Y68560D01*
X32908Y67659D01*
X33422Y66719D01*
X33867Y65744D01*
X34241Y64740D01*
X34543Y63712D01*
X34771Y62665D01*
X34924Y61604D01*
X35000Y60536D01*
X35000Y59464D01*
X835000Y59464D02*
X834924Y58396D01*
X834771Y57335D01*
X834543Y56288D01*
X834241Y55260D01*
X833867Y54256D01*
X833422Y53281D01*
X832908Y52341D01*
X832329Y51440D01*
X831687Y50582D01*
X830985Y49772D01*
X830228Y49015D01*
X829418Y48313D01*
X828560Y47671D01*
X827659Y47092D01*
X826719Y46578D01*
X825744Y46133D01*
X824740Y45759D01*
X823712Y45457D01*
X822665Y45229D01*
X821604Y45076D01*
X820536Y45000D01*
X819464Y45000D01*
X818396Y45076D01*
X817335Y45229D01*
X816288Y45457D01*
X815260Y45759D01*
X814256Y46133D01*
X813281Y46578D01*
X812341Y47092D01*
X811440Y47671D01*
X810582Y48313D01*
X809772Y49015D01*
X809015Y49772D01*
X808313Y50582D01*
X807671Y51440D01*
X807092Y52341D01*
X806578Y53281D01*
X806133Y54256D01*
X805759Y55260D01*
X805457Y56288D01*
X805229Y57335D01*
X805076Y58396D01*
X805000Y59464D01*
X805000Y60536D01*
X805076Y61604D01*
X805229Y62665D01*
X805457Y63712D01*
X805759Y64740D01*
X806133Y65744D01*
X806578Y66719D01*
X807092Y67659D01*
X807671Y68560D01*
X808313Y69418D01*
X809015Y70228D01*
X809772Y70985D01*
X810582Y71687D01*
X811440Y72329D01*
X812341Y72908D01*
X813281Y73422D01*
X814256Y73867D01*
X815260Y74241D01*
X816288Y74543D01*
X817335Y74771D01*
X818396Y74924D01*
X819464Y75000D01*
X820536Y75000D01*
X821604Y74924D01*
X822665Y74771D01*
X823712Y74543D01*
X824740Y74241D01*
X825744Y73867D01*
X826719Y73422D01*
X827659Y72908D01*
X828560Y72329D01*
X829418Y71687D01*
X830228Y70985D01*
X830985Y70228D01*
X831687Y69418D01*
X832329Y68560D01*
X832908Y67659D01*
X833422Y66719D01*
X833867Y65744D01*
X834241Y64740D01*
X834543Y63712D01*
X834771Y62665D01*
X834924Y61604D01*
X835000Y60536D01*
X835000Y59464D01*
X523920Y321644D02*
X523844Y320576D01*
X523691Y319515D01*
X523463Y318468D01*
X523161Y317440D01*
X522787Y316436D01*
X522342Y315461D01*
X521828Y314521D01*
X521249Y313620D01*
X520607Y312762D01*
X519905Y311952D01*
X519148Y311195D01*
X518338Y310493D01*
X517480Y309851D01*
X516579Y309272D01*
X515639Y308758D01*
X514664Y308313D01*
X513660Y307939D01*
X512632Y307637D01*
X511585Y307409D01*
X510524Y307256D01*
X509456Y307180D01*
X508384Y307180D01*
X507316Y307256D01*
X506255Y307409D01*
X505208Y307637D01*
X504180Y307939D01*
X503176Y308313D01*
X502201Y308758D01*
X501261Y309272D01*
X500360Y309851D01*
X499502Y310493D01*
X498692Y311195D01*
X497935Y311952D01*
X497233Y312762D01*
X496591Y313620D01*
X496012Y314521D01*
X495498Y315461D01*
X495053Y316436D01*
X494679Y317440D01*
X494377Y318468D01*
X494149Y319515D01*
X493996Y320576D01*
X493920Y321644D01*
X493920Y322716D01*
X493996Y323784D01*
X494149Y324845D01*
X494377Y325892D01*
X494679Y326920D01*
X495053Y327924D01*
X495498Y328899D01*
X496012Y329839D01*
X496591Y330740D01*
X497233Y331598D01*
X497935Y332408D01*
X498692Y333165D01*
X499502Y333867D01*
X500360Y334509D01*
X501261Y335088D01*
X502201Y335602D01*
X503176Y336047D01*
X504180Y336421D01*
X505208Y336723D01*
X506255Y336951D01*
X507316Y337104D01*
X508384Y337180D01*
X509456Y337180D01*
X510524Y337104D01*
X511585Y336951D01*
X512632Y336723D01*
X513660Y336421D01*
X514664Y336047D01*
X515639Y335602D01*
X516579Y335088D01*
X517480Y334509D01*
X518338Y333867D01*
X519148Y333165D01*
X519905Y332408D01*
X520607Y331598D01*
X521249Y330740D01*
X521828Y329839D01*
X522342Y328899D01*
X522787Y327924D01*
X523161Y326920D01*
X523463Y325892D01*
X523691Y324845D01*
X523844Y323784D01*
X523920Y322716D01*
X523920Y321644D01*
X676320Y321644D02*
X676244Y320576D01*
X676091Y319515D01*
X675863Y318468D01*
X675561Y317440D01*
X675187Y316436D01*
X674742Y315461D01*
X674228Y314521D01*
X673649Y313620D01*
X673007Y312762D01*
X672305Y311952D01*
X671548Y311195D01*
X670738Y310493D01*
X669880Y309851D01*
X668979Y309272D01*
X668039Y308758D01*
X667064Y308313D01*
X666060Y307939D01*
X665032Y307637D01*
X663985Y307409D01*
X662924Y307256D01*
X661856Y307180D01*
X660784Y307180D01*
X659716Y307256D01*
X658655Y307409D01*
X657608Y307637D01*
X656580Y307939D01*
X655576Y308313D01*
X654601Y308758D01*
X653661Y309272D01*
X652760Y309851D01*
X651902Y310493D01*
X651092Y311195D01*
X650335Y311952D01*
X649633Y312762D01*
X648991Y313620D01*
X648412Y314521D01*
X647898Y315461D01*
X647453Y316436D01*
X647079Y317440D01*
X646777Y318468D01*
X646549Y319515D01*
X646396Y320576D01*
X646320Y321644D01*
X646320Y322716D01*
X646396Y323784D01*
X646549Y324845D01*
X646777Y325892D01*
X647079Y326920D01*
X647453Y327924D01*
X647898Y328899D01*
X648412Y329839D01*
X648991Y330740D01*
X649633Y331598D01*
X650335Y332408D01*
X651092Y333165D01*
X651902Y333867D01*
X652760Y334509D01*
X653661Y335088D01*
X654601Y335602D01*
X655576Y336047D01*
X656580Y336421D01*
X657608Y336723D01*
X658655Y336951D01*
X659716Y337104D01*
X660784Y337180D01*
X661856Y337180D01*
X662924Y337104D01*
X663985Y336951D01*
X665032Y336723D01*
X666060Y336421D01*
X667064Y336047D01*
X668039Y335602D01*
X668979Y335088D01*
X669880Y334509D01*
X670738Y333867D01*
X671548Y333165D01*
X672305Y332408D01*
X673007Y331598D01*
X673649Y330740D01*
X674228Y329839D01*
X674742Y328899D01*
X675187Y327924D01*
X675561Y326920D01*
X675863Y325892D01*
X676091Y324845D01*
X676244Y323784D01*
X676320Y322716D01*
X676320Y321644D01*
X1151545Y353306D02*
X1151625Y354113D01*
X1151783Y354908D01*
X1152018Y355684D01*
X1152329Y356434D01*
X1152711Y357149D01*
X1153162Y357823D01*
X1153676Y358450D01*
X1154250Y359024D01*
X1154877Y359538D01*
X1155551Y359989D01*
X1156266Y360371D01*
X1157016Y360682D01*
X1157792Y360917D01*
X1158587Y361076D01*
X1159394Y361155D01*
X1160206Y361155D01*
X1161013Y361076D01*
X1161808Y360917D01*
X1162584Y360682D01*
X1163334Y360371D01*
X1164049Y359989D01*
X1164723Y359538D01*
X1165350Y359024D01*
X1165924Y358450D01*
X1166438Y357823D01*
X1166889Y357149D01*
X1167271Y356434D01*
X1167582Y355684D01*
X1167817Y354908D01*
X1167976Y354113D01*
X1168055Y353306D01*
X1168055Y352494D01*
X1167976Y351687D01*
X1167817Y350892D01*
X1167582Y350116D01*
X1167271Y349366D01*
X1166889Y348651D01*
X1166438Y347977D01*
X1165924Y347350D01*
X1165350Y346776D01*
X1164723Y346262D01*
X1164049Y345811D01*
X1163334Y345429D01*
X1162584Y345118D01*
X1161808Y344883D01*
X1161013Y344725D01*
X1160206Y344645D01*
X1159394Y344645D01*
X1158587Y344725D01*
X1157792Y344883D01*
X1157016Y345118D01*
X1156266Y345429D01*
X1155551Y345811D01*
X1154877Y346262D01*
X1154250Y346776D01*
X1153676Y347350D01*
X1153162Y347977D01*
X1152711Y348651D01*
X1152329Y349366D01*
X1152018Y350116D01*
X1151783Y350892D01*
X1151625Y351687D01*
X1151545Y352494D01*
X1151545Y353306D01*
X1151545Y200906D02*
X1151625Y201713D01*
X1151783Y202508D01*
X1152018Y203284D01*
X1152329Y204034D01*
X1152711Y204749D01*
X1153162Y205423D01*
X1153676Y206050D01*
X1154250Y206624D01*
X1154877Y207138D01*
X1155551Y207589D01*
X1156266Y207971D01*
X1157016Y208282D01*
X1157792Y208517D01*
X1158587Y208676D01*
X1159394Y208755D01*
X1160206Y208755D01*
X1161013Y208676D01*
X1161808Y208517D01*
X1162584Y208282D01*
X1163334Y207971D01*
X1164049Y207589D01*
X1164723Y207138D01*
X1165350Y206624D01*
X1165924Y206050D01*
X1166438Y205423D01*
X1166889Y204749D01*
X1167271Y204034D01*
X1167582Y203284D01*
X1167817Y202508D01*
X1167976Y201713D01*
X1168055Y200906D01*
X1168055Y200094D01*
X1167976Y199287D01*
X1167817Y198492D01*
X1167582Y197716D01*
X1167271Y196966D01*
X1166889Y196251D01*
X1166438Y195577D01*
X1165924Y194950D01*
X1165350Y194376D01*
X1164723Y193862D01*
X1164049Y193411D01*
X1163334Y193029D01*
X1162584Y192718D01*
X1161808Y192483D01*
X1161013Y192325D01*
X1160206Y192245D01*
X1159394Y192245D01*
X1158587Y192325D01*
X1157792Y192483D01*
X1157016Y192718D01*
X1156266Y193029D01*
X1155551Y193411D01*
X1154877Y193862D01*
X1154250Y194376D01*
X1153676Y194950D01*
X1153162Y195577D01*
X1152711Y196251D01*
X1152329Y196966D01*
X1152018Y197716D01*
X1151783Y198492D01*
X1151625Y199287D01*
X1151545Y200094D01*
X1151545Y200906D01*
X745145Y200906D02*
X745225Y201713D01*
X745383Y202508D01*
X745618Y203284D01*
X745929Y204034D01*
X746311Y204749D01*
X746762Y205423D01*
X747276Y206050D01*
X747850Y206624D01*
X748477Y207138D01*
X749151Y207589D01*
X749866Y207971D01*
X750616Y208282D01*
X751392Y208517D01*
X752187Y208676D01*
X752994Y208755D01*
X753806Y208755D01*
X754613Y208676D01*
X755408Y208517D01*
X756184Y208282D01*
X756934Y207971D01*
X757649Y207589D01*
X758323Y207138D01*
X758950Y206624D01*
X759524Y206050D01*
X760038Y205423D01*
X760489Y204749D01*
X760871Y204034D01*
X761182Y203284D01*
X761417Y202508D01*
X761576Y201713D01*
X761655Y200906D01*
X761655Y200094D01*
X761576Y199287D01*
X761417Y198492D01*
X761182Y197716D01*
X760871Y196966D01*
X760489Y196251D01*
X760038Y195577D01*
X759524Y194950D01*
X758950Y194376D01*
X758323Y193862D01*
X757649Y193411D01*
X756934Y193029D01*
X756184Y192718D01*
X755408Y192483D01*
X754613Y192325D01*
X753806Y192245D01*
X752994Y192245D01*
X752187Y192325D01*
X751392Y192483D01*
X750616Y192718D01*
X749866Y193029D01*
X749151Y193411D01*
X748477Y193862D01*
X747850Y194376D01*
X747276Y194950D01*
X746762Y195577D01*
X746311Y196251D01*
X745929Y196966D01*
X745618Y197716D01*
X745383Y198492D01*
X745225Y199287D01*
X745145Y200094D01*
X745145Y200906D01*
X745145Y353306D02*
X745225Y354113D01*
X745383Y354908D01*
X745618Y355684D01*
X745929Y356434D01*
X746311Y357149D01*
X746762Y357823D01*
X747276Y358450D01*
X747850Y359024D01*
X748477Y359538D01*
X749151Y359989D01*
X749866Y360371D01*
X750616Y360682D01*
X751392Y360917D01*
X752187Y361076D01*
X752994Y361155D01*
X753806Y361155D01*
X754613Y361076D01*
X755408Y360917D01*
X756184Y360682D01*
X756934Y360371D01*
X757649Y359989D01*
X758323Y359538D01*
X758950Y359024D01*
X759524Y358450D01*
X760038Y357823D01*
X760489Y357149D01*
X760871Y356434D01*
X761182Y355684D01*
X761417Y354908D01*
X761576Y354113D01*
X761655Y353306D01*
X761655Y352494D01*
X761576Y351687D01*
X761417Y350892D01*
X761182Y350116D01*
X760871Y349366D01*
X760489Y348651D01*
X760038Y347977D01*
X759524Y347350D01*
X758950Y346776D01*
X758323Y346262D01*
X757649Y345811D01*
X756934Y345429D01*
X756184Y345118D01*
X755408Y344883D01*
X754613Y344725D01*
X753806Y344645D01*
X752994Y344645D01*
X752187Y344725D01*
X751392Y344883D01*
X750616Y345118D01*
X749866Y345429D01*
X749151Y345811D01*
X748477Y346262D01*
X747850Y346776D01*
X747276Y347350D01*
X746762Y347977D01*
X746311Y348651D01*
X745929Y349366D01*
X745618Y350116D01*
X745383Y350892D01*
X745225Y351687D01*
X745145Y352494D01*
X745145Y353306D01*
M02*
