G04 EAGLE Gerber RS-274X export*
G75*
%MOMM*%
%FSLAX34Y34*%
%LPD*%
%INSilkscreen Top*%
%IPPOS*%
%AMOC8*
5,1,8,0,0,1.08239X$1,22.5*%
G01*
%ADD10C,0.152400*%
%ADD11C,0.127000*%
%ADD12C,0.203200*%
%ADD13R,0.863600X0.762000*%
%ADD14C,0.101600*%
%ADD15C,0.200000*%
%ADD16C,0.400000*%
%ADD17C,0.050800*%


D10*
X930762Y270762D02*
X930762Y287018D01*
X939793Y270762D01*
X939793Y287018D01*
X951430Y287018D02*
X946011Y270762D01*
X956849Y270762D02*
X951430Y287018D01*
X955494Y274826D02*
X947366Y274826D01*
X963067Y270762D02*
X963067Y287018D01*
X972098Y270762D01*
X972098Y287018D01*
X979219Y282502D02*
X979219Y275278D01*
X979218Y282502D02*
X979220Y282635D01*
X979226Y282767D01*
X979236Y282899D01*
X979249Y283031D01*
X979267Y283163D01*
X979288Y283293D01*
X979313Y283424D01*
X979342Y283553D01*
X979375Y283681D01*
X979411Y283809D01*
X979451Y283935D01*
X979495Y284060D01*
X979543Y284184D01*
X979594Y284306D01*
X979649Y284427D01*
X979707Y284546D01*
X979769Y284664D01*
X979834Y284779D01*
X979903Y284893D01*
X979974Y285004D01*
X980050Y285113D01*
X980128Y285220D01*
X980209Y285325D01*
X980294Y285427D01*
X980381Y285527D01*
X980471Y285624D01*
X980564Y285719D01*
X980660Y285810D01*
X980758Y285899D01*
X980859Y285985D01*
X980963Y286068D01*
X981069Y286148D01*
X981177Y286224D01*
X981287Y286298D01*
X981400Y286368D01*
X981514Y286435D01*
X981631Y286498D01*
X981749Y286558D01*
X981869Y286615D01*
X981991Y286668D01*
X982114Y286717D01*
X982238Y286763D01*
X982364Y286805D01*
X982491Y286843D01*
X982619Y286878D01*
X982748Y286909D01*
X982877Y286936D01*
X983008Y286959D01*
X983139Y286979D01*
X983271Y286994D01*
X983403Y287006D01*
X983535Y287014D01*
X983668Y287018D01*
X983800Y287018D01*
X983933Y287014D01*
X984065Y287006D01*
X984197Y286994D01*
X984329Y286979D01*
X984460Y286959D01*
X984591Y286936D01*
X984720Y286909D01*
X984849Y286878D01*
X984977Y286843D01*
X985104Y286805D01*
X985230Y286763D01*
X985354Y286717D01*
X985477Y286668D01*
X985599Y286615D01*
X985719Y286558D01*
X985837Y286498D01*
X985954Y286435D01*
X986068Y286368D01*
X986181Y286298D01*
X986291Y286224D01*
X986399Y286148D01*
X986505Y286068D01*
X986609Y285985D01*
X986710Y285899D01*
X986808Y285810D01*
X986904Y285719D01*
X986997Y285624D01*
X987087Y285527D01*
X987174Y285427D01*
X987259Y285325D01*
X987340Y285220D01*
X987418Y285113D01*
X987494Y285004D01*
X987565Y284893D01*
X987634Y284779D01*
X987699Y284664D01*
X987761Y284546D01*
X987819Y284427D01*
X987874Y284306D01*
X987925Y284184D01*
X987973Y284060D01*
X988017Y283935D01*
X988057Y283809D01*
X988093Y283681D01*
X988126Y283553D01*
X988155Y283424D01*
X988180Y283293D01*
X988201Y283163D01*
X988219Y283031D01*
X988232Y282899D01*
X988242Y282767D01*
X988248Y282635D01*
X988250Y282502D01*
X988250Y275278D01*
X988248Y275145D01*
X988242Y275013D01*
X988232Y274881D01*
X988219Y274749D01*
X988201Y274617D01*
X988180Y274487D01*
X988155Y274356D01*
X988126Y274227D01*
X988093Y274099D01*
X988057Y273971D01*
X988017Y273845D01*
X987973Y273720D01*
X987925Y273596D01*
X987874Y273474D01*
X987819Y273353D01*
X987761Y273234D01*
X987699Y273116D01*
X987634Y273001D01*
X987565Y272887D01*
X987494Y272776D01*
X987418Y272667D01*
X987340Y272560D01*
X987259Y272455D01*
X987174Y272353D01*
X987087Y272253D01*
X986997Y272156D01*
X986904Y272061D01*
X986808Y271970D01*
X986710Y271881D01*
X986609Y271795D01*
X986505Y271712D01*
X986399Y271632D01*
X986291Y271556D01*
X986181Y271482D01*
X986068Y271412D01*
X985954Y271345D01*
X985837Y271282D01*
X985719Y271222D01*
X985599Y271165D01*
X985477Y271112D01*
X985354Y271063D01*
X985230Y271017D01*
X985104Y270975D01*
X984977Y270937D01*
X984849Y270902D01*
X984720Y270871D01*
X984591Y270844D01*
X984460Y270821D01*
X984329Y270801D01*
X984197Y270786D01*
X984065Y270774D01*
X983933Y270766D01*
X983800Y270762D01*
X983668Y270762D01*
X983535Y270766D01*
X983403Y270774D01*
X983271Y270786D01*
X983139Y270801D01*
X983008Y270821D01*
X982877Y270844D01*
X982748Y270871D01*
X982619Y270902D01*
X982491Y270937D01*
X982364Y270975D01*
X982238Y271017D01*
X982114Y271063D01*
X981991Y271112D01*
X981869Y271165D01*
X981749Y271222D01*
X981631Y271282D01*
X981514Y271345D01*
X981400Y271412D01*
X981287Y271482D01*
X981177Y271556D01*
X981069Y271632D01*
X980963Y271712D01*
X980859Y271795D01*
X980758Y271881D01*
X980660Y271970D01*
X980564Y272061D01*
X980471Y272156D01*
X980381Y272253D01*
X980294Y272353D01*
X980209Y272455D01*
X980128Y272560D01*
X980050Y272667D01*
X979974Y272776D01*
X979903Y272887D01*
X979834Y273001D01*
X979769Y273116D01*
X979707Y273234D01*
X979649Y273353D01*
X979594Y273474D01*
X979543Y273596D01*
X979495Y273720D01*
X979451Y273845D01*
X979411Y273971D01*
X979375Y274099D01*
X979342Y274227D01*
X979313Y274356D01*
X979288Y274487D01*
X979267Y274617D01*
X979249Y274749D01*
X979236Y274881D01*
X979226Y275013D01*
X979220Y275145D01*
X979218Y275278D01*
X330200Y249710D02*
X127000Y249710D01*
X127000Y191290D02*
X330200Y191290D01*
X330200Y249710D01*
X127000Y249710D02*
X127000Y230660D01*
X127000Y210340D02*
X127000Y191290D01*
X127000Y210340D02*
X127247Y210343D01*
X127495Y210352D01*
X127742Y210367D01*
X127988Y210388D01*
X128234Y210415D01*
X128479Y210448D01*
X128724Y210487D01*
X128967Y210532D01*
X129209Y210583D01*
X129450Y210640D01*
X129689Y210702D01*
X129927Y210771D01*
X130163Y210845D01*
X130397Y210925D01*
X130629Y211010D01*
X130859Y211102D01*
X131087Y211198D01*
X131312Y211301D01*
X131535Y211408D01*
X131755Y211522D01*
X131972Y211640D01*
X132187Y211764D01*
X132398Y211893D01*
X132606Y212027D01*
X132811Y212166D01*
X133012Y212310D01*
X133210Y212458D01*
X133404Y212612D01*
X133594Y212770D01*
X133780Y212933D01*
X133962Y213100D01*
X134140Y213272D01*
X134314Y213448D01*
X134484Y213628D01*
X134649Y213813D01*
X134809Y214001D01*
X134965Y214193D01*
X135117Y214389D01*
X135263Y214588D01*
X135405Y214791D01*
X135541Y214998D01*
X135673Y215207D01*
X135799Y215420D01*
X135920Y215636D01*
X136036Y215854D01*
X136146Y216076D01*
X136251Y216300D01*
X136351Y216526D01*
X136445Y216755D01*
X136533Y216986D01*
X136616Y217220D01*
X136693Y217455D01*
X136764Y217692D01*
X136830Y217930D01*
X136889Y218170D01*
X136943Y218412D01*
X136991Y218655D01*
X137033Y218898D01*
X137069Y219143D01*
X137099Y219389D01*
X137123Y219635D01*
X137141Y219882D01*
X137153Y220129D01*
X137159Y220376D01*
X137159Y220624D01*
X137153Y220871D01*
X137141Y221118D01*
X137123Y221365D01*
X137099Y221611D01*
X137069Y221857D01*
X137033Y222102D01*
X136991Y222345D01*
X136943Y222588D01*
X136889Y222830D01*
X136830Y223070D01*
X136764Y223308D01*
X136693Y223545D01*
X136616Y223780D01*
X136533Y224014D01*
X136445Y224245D01*
X136351Y224474D01*
X136251Y224700D01*
X136146Y224924D01*
X136036Y225146D01*
X135920Y225364D01*
X135799Y225580D01*
X135673Y225793D01*
X135541Y226002D01*
X135405Y226209D01*
X135263Y226412D01*
X135117Y226611D01*
X134965Y226807D01*
X134809Y226999D01*
X134649Y227187D01*
X134484Y227372D01*
X134314Y227552D01*
X134140Y227728D01*
X133962Y227900D01*
X133780Y228067D01*
X133594Y228230D01*
X133404Y228388D01*
X133210Y228542D01*
X133012Y228690D01*
X132811Y228834D01*
X132606Y228973D01*
X132398Y229107D01*
X132187Y229236D01*
X131972Y229360D01*
X131755Y229478D01*
X131535Y229592D01*
X131312Y229699D01*
X131087Y229802D01*
X130859Y229898D01*
X130629Y229990D01*
X130397Y230075D01*
X130163Y230155D01*
X129927Y230229D01*
X129689Y230298D01*
X129450Y230360D01*
X129209Y230417D01*
X128967Y230468D01*
X128724Y230513D01*
X128479Y230552D01*
X128234Y230585D01*
X127988Y230612D01*
X127742Y230633D01*
X127495Y230648D01*
X127247Y230657D01*
X127000Y230660D01*
D11*
X122555Y193195D02*
X111125Y193195D01*
X122555Y191925D02*
X122555Y194465D01*
X111125Y194465D02*
X111125Y191925D01*
X122555Y201667D02*
X122555Y204207D01*
X122555Y201667D02*
X122553Y201567D01*
X122547Y201468D01*
X122537Y201368D01*
X122524Y201270D01*
X122506Y201171D01*
X122485Y201074D01*
X122460Y200978D01*
X122431Y200882D01*
X122398Y200788D01*
X122362Y200695D01*
X122322Y200604D01*
X122278Y200514D01*
X122231Y200426D01*
X122181Y200340D01*
X122127Y200256D01*
X122070Y200174D01*
X122010Y200095D01*
X121946Y200017D01*
X121880Y199943D01*
X121811Y199871D01*
X121739Y199802D01*
X121665Y199736D01*
X121587Y199672D01*
X121508Y199612D01*
X121426Y199555D01*
X121342Y199501D01*
X121256Y199451D01*
X121168Y199404D01*
X121078Y199360D01*
X120987Y199320D01*
X120894Y199284D01*
X120800Y199251D01*
X120704Y199222D01*
X120608Y199197D01*
X120511Y199176D01*
X120412Y199158D01*
X120314Y199145D01*
X120214Y199135D01*
X120115Y199129D01*
X120015Y199127D01*
X113665Y199127D01*
X113565Y199129D01*
X113466Y199135D01*
X113366Y199145D01*
X113268Y199158D01*
X113169Y199176D01*
X113072Y199197D01*
X112976Y199222D01*
X112880Y199251D01*
X112786Y199284D01*
X112693Y199320D01*
X112602Y199360D01*
X112512Y199404D01*
X112424Y199451D01*
X112338Y199501D01*
X112254Y199555D01*
X112172Y199612D01*
X112093Y199672D01*
X112015Y199736D01*
X111941Y199802D01*
X111869Y199871D01*
X111800Y199943D01*
X111734Y200017D01*
X111670Y200095D01*
X111610Y200174D01*
X111553Y200256D01*
X111499Y200340D01*
X111449Y200426D01*
X111402Y200514D01*
X111358Y200604D01*
X111318Y200695D01*
X111282Y200788D01*
X111249Y200882D01*
X111220Y200978D01*
X111195Y201074D01*
X111174Y201171D01*
X111156Y201270D01*
X111143Y201368D01*
X111133Y201468D01*
X111127Y201567D01*
X111125Y201667D01*
X111125Y204207D01*
X113665Y208689D02*
X111125Y211864D01*
X122555Y211864D01*
X122555Y208689D02*
X122555Y215039D01*
D12*
X121670Y300510D02*
X121666Y360454D01*
X121670Y300510D02*
X56130Y300510D01*
X56134Y360454D01*
D13*
X88900Y295684D03*
D14*
X50292Y298506D02*
X38608Y298506D01*
X50292Y297208D02*
X50292Y299804D01*
X38608Y299804D02*
X38608Y297208D01*
X50292Y306968D02*
X50292Y309564D01*
X50292Y306968D02*
X50290Y306869D01*
X50284Y306769D01*
X50275Y306670D01*
X50262Y306572D01*
X50245Y306474D01*
X50224Y306376D01*
X50199Y306280D01*
X50171Y306185D01*
X50139Y306091D01*
X50104Y305998D01*
X50065Y305906D01*
X50022Y305816D01*
X49977Y305728D01*
X49927Y305641D01*
X49875Y305557D01*
X49819Y305474D01*
X49761Y305394D01*
X49699Y305316D01*
X49634Y305241D01*
X49566Y305168D01*
X49496Y305098D01*
X49423Y305030D01*
X49348Y304965D01*
X49270Y304903D01*
X49190Y304845D01*
X49107Y304789D01*
X49023Y304737D01*
X48936Y304687D01*
X48848Y304642D01*
X48758Y304599D01*
X48666Y304560D01*
X48573Y304525D01*
X48479Y304493D01*
X48384Y304465D01*
X48288Y304440D01*
X48190Y304419D01*
X48092Y304402D01*
X47994Y304389D01*
X47895Y304380D01*
X47795Y304374D01*
X47696Y304372D01*
X47696Y304371D02*
X41204Y304371D01*
X41105Y304373D01*
X41005Y304379D01*
X40906Y304388D01*
X40808Y304401D01*
X40710Y304419D01*
X40612Y304439D01*
X40516Y304464D01*
X40420Y304492D01*
X40326Y304524D01*
X40233Y304559D01*
X40142Y304598D01*
X40052Y304641D01*
X39963Y304686D01*
X39877Y304736D01*
X39792Y304788D01*
X39710Y304844D01*
X39630Y304903D01*
X39552Y304964D01*
X39476Y305029D01*
X39403Y305097D01*
X39333Y305167D01*
X39265Y305240D01*
X39200Y305316D01*
X39139Y305394D01*
X39080Y305474D01*
X39024Y305556D01*
X38972Y305641D01*
X38923Y305727D01*
X38877Y305816D01*
X38834Y305906D01*
X38795Y305997D01*
X38760Y306090D01*
X38728Y306184D01*
X38700Y306280D01*
X38675Y306376D01*
X38655Y306474D01*
X38637Y306572D01*
X38624Y306670D01*
X38615Y306769D01*
X38609Y306868D01*
X38607Y306968D01*
X38608Y306968D02*
X38608Y309564D01*
X38608Y317500D02*
X38610Y317607D01*
X38616Y317713D01*
X38626Y317819D01*
X38639Y317925D01*
X38657Y318031D01*
X38678Y318135D01*
X38703Y318239D01*
X38732Y318342D01*
X38764Y318443D01*
X38801Y318543D01*
X38841Y318642D01*
X38884Y318740D01*
X38931Y318836D01*
X38982Y318930D01*
X39036Y319022D01*
X39093Y319112D01*
X39153Y319200D01*
X39217Y319285D01*
X39284Y319368D01*
X39354Y319449D01*
X39426Y319527D01*
X39502Y319603D01*
X39580Y319675D01*
X39661Y319745D01*
X39744Y319812D01*
X39829Y319876D01*
X39917Y319936D01*
X40007Y319993D01*
X40099Y320047D01*
X40193Y320098D01*
X40289Y320145D01*
X40387Y320188D01*
X40486Y320228D01*
X40586Y320265D01*
X40687Y320297D01*
X40790Y320326D01*
X40894Y320351D01*
X40998Y320372D01*
X41104Y320390D01*
X41210Y320403D01*
X41316Y320413D01*
X41422Y320419D01*
X41529Y320421D01*
X38608Y317500D02*
X38610Y317379D01*
X38616Y317258D01*
X38626Y317138D01*
X38639Y317017D01*
X38657Y316898D01*
X38678Y316778D01*
X38703Y316660D01*
X38732Y316543D01*
X38765Y316426D01*
X38801Y316311D01*
X38842Y316197D01*
X38885Y316084D01*
X38933Y315972D01*
X38984Y315863D01*
X39039Y315755D01*
X39097Y315648D01*
X39158Y315544D01*
X39223Y315442D01*
X39291Y315342D01*
X39362Y315244D01*
X39436Y315148D01*
X39513Y315055D01*
X39594Y314965D01*
X39677Y314877D01*
X39763Y314792D01*
X39852Y314709D01*
X39943Y314630D01*
X40037Y314553D01*
X40133Y314480D01*
X40231Y314410D01*
X40332Y314343D01*
X40435Y314279D01*
X40540Y314219D01*
X40647Y314161D01*
X40755Y314108D01*
X40865Y314058D01*
X40977Y314012D01*
X41090Y313969D01*
X41205Y313930D01*
X43801Y319446D02*
X43723Y319525D01*
X43643Y319601D01*
X43560Y319674D01*
X43474Y319744D01*
X43387Y319811D01*
X43296Y319875D01*
X43204Y319935D01*
X43110Y319993D01*
X43013Y320047D01*
X42915Y320097D01*
X42815Y320144D01*
X42714Y320188D01*
X42611Y320228D01*
X42506Y320264D01*
X42401Y320296D01*
X42294Y320325D01*
X42187Y320350D01*
X42078Y320372D01*
X41969Y320389D01*
X41860Y320403D01*
X41750Y320412D01*
X41639Y320418D01*
X41529Y320420D01*
X43801Y319447D02*
X50292Y313930D01*
X50292Y320421D01*
D15*
X340200Y99500D02*
X447200Y99500D01*
X340200Y99500D02*
X340200Y175500D01*
X447200Y175500D01*
X447200Y169700D01*
X451200Y170450D01*
X451200Y161950D01*
X447200Y162700D01*
X447200Y112300D01*
X451200Y113050D01*
X451200Y104550D01*
X447200Y105300D01*
X447200Y99500D01*
D16*
X435200Y122500D02*
X435202Y122563D01*
X435208Y122625D01*
X435218Y122687D01*
X435231Y122749D01*
X435249Y122809D01*
X435270Y122868D01*
X435295Y122926D01*
X435324Y122982D01*
X435356Y123036D01*
X435391Y123088D01*
X435429Y123137D01*
X435471Y123185D01*
X435515Y123229D01*
X435563Y123271D01*
X435612Y123309D01*
X435664Y123344D01*
X435718Y123376D01*
X435774Y123405D01*
X435832Y123430D01*
X435891Y123451D01*
X435951Y123469D01*
X436013Y123482D01*
X436075Y123492D01*
X436137Y123498D01*
X436200Y123500D01*
X436263Y123498D01*
X436325Y123492D01*
X436387Y123482D01*
X436449Y123469D01*
X436509Y123451D01*
X436568Y123430D01*
X436626Y123405D01*
X436682Y123376D01*
X436736Y123344D01*
X436788Y123309D01*
X436837Y123271D01*
X436885Y123229D01*
X436929Y123185D01*
X436971Y123137D01*
X437009Y123088D01*
X437044Y123036D01*
X437076Y122982D01*
X437105Y122926D01*
X437130Y122868D01*
X437151Y122809D01*
X437169Y122749D01*
X437182Y122687D01*
X437192Y122625D01*
X437198Y122563D01*
X437200Y122500D01*
X437198Y122437D01*
X437192Y122375D01*
X437182Y122313D01*
X437169Y122251D01*
X437151Y122191D01*
X437130Y122132D01*
X437105Y122074D01*
X437076Y122018D01*
X437044Y121964D01*
X437009Y121912D01*
X436971Y121863D01*
X436929Y121815D01*
X436885Y121771D01*
X436837Y121729D01*
X436788Y121691D01*
X436736Y121656D01*
X436682Y121624D01*
X436626Y121595D01*
X436568Y121570D01*
X436509Y121549D01*
X436449Y121531D01*
X436387Y121518D01*
X436325Y121508D01*
X436263Y121502D01*
X436200Y121500D01*
X436137Y121502D01*
X436075Y121508D01*
X436013Y121518D01*
X435951Y121531D01*
X435891Y121549D01*
X435832Y121570D01*
X435774Y121595D01*
X435718Y121624D01*
X435664Y121656D01*
X435612Y121691D01*
X435563Y121729D01*
X435515Y121771D01*
X435471Y121815D01*
X435429Y121863D01*
X435391Y121912D01*
X435356Y121964D01*
X435324Y122018D01*
X435295Y122074D01*
X435270Y122132D01*
X435249Y122191D01*
X435231Y122251D01*
X435218Y122313D01*
X435208Y122375D01*
X435202Y122437D01*
X435200Y122500D01*
D14*
X389765Y94992D02*
X389765Y85904D01*
X389763Y85805D01*
X389757Y85705D01*
X389748Y85606D01*
X389735Y85508D01*
X389718Y85410D01*
X389697Y85312D01*
X389672Y85216D01*
X389644Y85121D01*
X389612Y85027D01*
X389577Y84934D01*
X389538Y84842D01*
X389495Y84752D01*
X389450Y84664D01*
X389400Y84577D01*
X389348Y84493D01*
X389292Y84410D01*
X389234Y84330D01*
X389172Y84252D01*
X389107Y84177D01*
X389039Y84104D01*
X388969Y84034D01*
X388896Y83966D01*
X388821Y83901D01*
X388743Y83839D01*
X388663Y83781D01*
X388580Y83725D01*
X388496Y83673D01*
X388409Y83623D01*
X388321Y83578D01*
X388231Y83535D01*
X388139Y83496D01*
X388046Y83461D01*
X387952Y83429D01*
X387857Y83401D01*
X387761Y83376D01*
X387663Y83355D01*
X387565Y83338D01*
X387467Y83325D01*
X387368Y83316D01*
X387268Y83310D01*
X387169Y83308D01*
X385870Y83308D01*
X395038Y92396D02*
X398284Y94992D01*
X398284Y83308D01*
X395038Y83308D02*
X401530Y83308D01*
D11*
X279400Y147200D02*
X177800Y147200D01*
X279400Y147200D02*
X279400Y75200D01*
X279400Y65200D01*
X177800Y65200D01*
X177800Y75200D01*
X177800Y147200D01*
X177800Y75200D02*
X279400Y75200D01*
D14*
X186021Y156495D02*
X186021Y168204D01*
X189273Y168204D01*
X189273Y168205D02*
X189385Y168203D01*
X189497Y168197D01*
X189609Y168188D01*
X189721Y168174D01*
X189832Y168157D01*
X189942Y168135D01*
X190051Y168110D01*
X190160Y168082D01*
X190268Y168049D01*
X190374Y168013D01*
X190479Y167973D01*
X190582Y167930D01*
X190684Y167883D01*
X190785Y167832D01*
X190883Y167778D01*
X190980Y167721D01*
X191074Y167661D01*
X191167Y167597D01*
X191257Y167530D01*
X191345Y167460D01*
X191430Y167387D01*
X191513Y167311D01*
X191593Y167232D01*
X191670Y167151D01*
X191745Y167067D01*
X191816Y166980D01*
X191885Y166891D01*
X191950Y166800D01*
X192012Y166706D01*
X192071Y166611D01*
X192127Y166513D01*
X192179Y166414D01*
X192228Y166313D01*
X192273Y166210D01*
X192315Y166106D01*
X192353Y166000D01*
X192387Y165893D01*
X192418Y165785D01*
X192444Y165676D01*
X192468Y165566D01*
X192487Y165455D01*
X192502Y165344D01*
X192514Y165232D01*
X192522Y165120D01*
X192526Y165008D01*
X192526Y164896D01*
X192522Y164784D01*
X192514Y164672D01*
X192502Y164560D01*
X192487Y164449D01*
X192468Y164338D01*
X192444Y164228D01*
X192418Y164119D01*
X192387Y164011D01*
X192353Y163904D01*
X192315Y163798D01*
X192273Y163694D01*
X192228Y163591D01*
X192179Y163490D01*
X192127Y163391D01*
X192071Y163293D01*
X192012Y163198D01*
X191950Y163104D01*
X191885Y163013D01*
X191816Y162924D01*
X191745Y162837D01*
X191670Y162753D01*
X191593Y162672D01*
X191513Y162593D01*
X191430Y162517D01*
X191345Y162444D01*
X191257Y162374D01*
X191167Y162307D01*
X191074Y162243D01*
X190980Y162183D01*
X190883Y162126D01*
X190785Y162072D01*
X190684Y162021D01*
X190582Y161974D01*
X190479Y161931D01*
X190374Y161891D01*
X190268Y161855D01*
X190160Y161822D01*
X190051Y161794D01*
X189942Y161769D01*
X189832Y161747D01*
X189721Y161730D01*
X189609Y161716D01*
X189497Y161707D01*
X189385Y161701D01*
X189273Y161699D01*
X186021Y161699D01*
X196923Y165602D02*
X200175Y168204D01*
X200175Y156495D01*
X196923Y156495D02*
X203428Y156495D01*
D11*
X177800Y306500D02*
X279400Y306500D01*
X177800Y306500D02*
X177800Y378500D01*
X177800Y388500D01*
X279400Y388500D01*
X279400Y378500D01*
X279400Y306500D01*
X279400Y378500D02*
X177800Y378500D01*
D14*
X253772Y297206D02*
X253772Y285496D01*
X253772Y297206D02*
X257025Y297206D01*
X257137Y297204D01*
X257249Y297198D01*
X257361Y297189D01*
X257473Y297175D01*
X257584Y297158D01*
X257694Y297136D01*
X257803Y297111D01*
X257912Y297083D01*
X258020Y297050D01*
X258126Y297014D01*
X258231Y296974D01*
X258334Y296931D01*
X258436Y296884D01*
X258537Y296833D01*
X258635Y296779D01*
X258732Y296722D01*
X258826Y296662D01*
X258919Y296598D01*
X259009Y296531D01*
X259097Y296461D01*
X259182Y296388D01*
X259265Y296312D01*
X259345Y296233D01*
X259422Y296152D01*
X259497Y296068D01*
X259568Y295981D01*
X259637Y295892D01*
X259702Y295801D01*
X259764Y295707D01*
X259823Y295612D01*
X259879Y295514D01*
X259931Y295415D01*
X259980Y295314D01*
X260025Y295211D01*
X260067Y295107D01*
X260105Y295001D01*
X260139Y294894D01*
X260170Y294786D01*
X260196Y294677D01*
X260220Y294567D01*
X260239Y294456D01*
X260254Y294345D01*
X260266Y294233D01*
X260274Y294121D01*
X260278Y294009D01*
X260278Y293897D01*
X260274Y293785D01*
X260266Y293673D01*
X260254Y293561D01*
X260239Y293450D01*
X260220Y293339D01*
X260196Y293229D01*
X260170Y293120D01*
X260139Y293012D01*
X260105Y292905D01*
X260067Y292799D01*
X260025Y292695D01*
X259980Y292592D01*
X259931Y292491D01*
X259879Y292392D01*
X259823Y292294D01*
X259764Y292199D01*
X259702Y292105D01*
X259637Y292014D01*
X259568Y291925D01*
X259497Y291838D01*
X259422Y291754D01*
X259345Y291673D01*
X259265Y291594D01*
X259182Y291518D01*
X259097Y291445D01*
X259009Y291375D01*
X258919Y291308D01*
X258826Y291244D01*
X258732Y291184D01*
X258635Y291127D01*
X258537Y291073D01*
X258436Y291022D01*
X258334Y290975D01*
X258231Y290932D01*
X258126Y290892D01*
X258020Y290856D01*
X257912Y290823D01*
X257803Y290795D01*
X257694Y290770D01*
X257584Y290748D01*
X257473Y290731D01*
X257361Y290717D01*
X257249Y290708D01*
X257137Y290702D01*
X257025Y290700D01*
X253772Y290700D01*
X268252Y297206D02*
X268359Y297204D01*
X268466Y297198D01*
X268572Y297188D01*
X268678Y297175D01*
X268784Y297157D01*
X268889Y297136D01*
X268993Y297111D01*
X269096Y297082D01*
X269197Y297049D01*
X269298Y297013D01*
X269397Y296973D01*
X269495Y296929D01*
X269591Y296882D01*
X269685Y296831D01*
X269777Y296777D01*
X269868Y296720D01*
X269956Y296659D01*
X270042Y296596D01*
X270125Y296529D01*
X270206Y296459D01*
X270284Y296386D01*
X270360Y296310D01*
X270433Y296232D01*
X270503Y296151D01*
X270570Y296068D01*
X270633Y295982D01*
X270694Y295894D01*
X270751Y295803D01*
X270805Y295711D01*
X270856Y295617D01*
X270903Y295521D01*
X270947Y295423D01*
X270987Y295324D01*
X271023Y295223D01*
X271056Y295122D01*
X271085Y295019D01*
X271110Y294915D01*
X271131Y294810D01*
X271149Y294704D01*
X271162Y294598D01*
X271172Y294492D01*
X271178Y294385D01*
X271180Y294278D01*
X268252Y297206D02*
X268131Y297204D01*
X268010Y297198D01*
X267889Y297188D01*
X267768Y297175D01*
X267648Y297157D01*
X267529Y297136D01*
X267410Y297111D01*
X267293Y297082D01*
X267176Y297049D01*
X267060Y297012D01*
X266946Y296972D01*
X266833Y296928D01*
X266721Y296880D01*
X266611Y296829D01*
X266503Y296775D01*
X266397Y296716D01*
X266292Y296655D01*
X266190Y296590D01*
X266089Y296522D01*
X265991Y296451D01*
X265895Y296376D01*
X265802Y296299D01*
X265711Y296218D01*
X265623Y296135D01*
X265538Y296049D01*
X265455Y295960D01*
X265376Y295868D01*
X265299Y295774D01*
X265226Y295678D01*
X265155Y295579D01*
X265088Y295478D01*
X265024Y295375D01*
X264964Y295270D01*
X264906Y295163D01*
X264853Y295054D01*
X264803Y294944D01*
X264756Y294832D01*
X264713Y294719D01*
X264674Y294604D01*
X270203Y292001D02*
X270282Y292079D01*
X270358Y292159D01*
X270431Y292243D01*
X270501Y292328D01*
X270568Y292416D01*
X270632Y292507D01*
X270693Y292599D01*
X270751Y292694D01*
X270805Y292790D01*
X270855Y292889D01*
X270903Y292989D01*
X270946Y293091D01*
X270986Y293194D01*
X271022Y293298D01*
X271055Y293404D01*
X271084Y293511D01*
X271109Y293619D01*
X271130Y293727D01*
X271148Y293837D01*
X271161Y293947D01*
X271171Y294057D01*
X271177Y294167D01*
X271179Y294278D01*
X270203Y292001D02*
X264674Y285496D01*
X271179Y285496D01*
D10*
X95206Y156967D02*
X82506Y156945D01*
X95206Y156967D02*
X101567Y150628D01*
X107906Y156989D01*
X120606Y157011D01*
X126967Y150672D01*
X82506Y156945D02*
X76167Y150583D01*
X126967Y150672D02*
X133306Y157033D01*
X146006Y157055D01*
X152367Y150716D01*
X152433Y112617D01*
X101633Y112528D02*
X95294Y106167D01*
X120694Y106211D02*
X127033Y112572D01*
X120694Y106211D02*
X107994Y106189D01*
X101633Y112528D01*
X76233Y112484D02*
X76167Y150583D01*
X76233Y112484D02*
X82594Y106145D01*
X95294Y106167D01*
X146094Y106255D02*
X152433Y112617D01*
X146094Y106255D02*
X133394Y106233D01*
X127033Y112572D01*
D11*
X86412Y101706D02*
X83242Y99161D01*
X86412Y101706D02*
X86432Y90276D01*
X83257Y90271D02*
X89607Y90282D01*
X155552Y145007D02*
X159362Y145014D01*
X159461Y145012D01*
X159561Y145007D01*
X159660Y144997D01*
X159759Y144983D01*
X159857Y144966D01*
X159955Y144945D01*
X160051Y144920D01*
X160147Y144891D01*
X160241Y144859D01*
X160334Y144822D01*
X160425Y144783D01*
X160515Y144739D01*
X160603Y144692D01*
X160689Y144642D01*
X160773Y144588D01*
X160855Y144531D01*
X160935Y144471D01*
X161012Y144408D01*
X161087Y144342D01*
X161159Y144273D01*
X161228Y144201D01*
X161295Y144127D01*
X161358Y144050D01*
X161418Y143971D01*
X161475Y143889D01*
X161529Y143805D01*
X161580Y143719D01*
X161627Y143631D01*
X161671Y143541D01*
X161711Y143450D01*
X161747Y143357D01*
X161780Y143263D01*
X161809Y143168D01*
X161835Y143071D01*
X161856Y142974D01*
X161874Y142876D01*
X161888Y142777D01*
X161898Y142678D01*
X161904Y142578D01*
X161906Y142478D01*
X161907Y141843D01*
X161905Y141732D01*
X161900Y141621D01*
X161890Y141511D01*
X161877Y141401D01*
X161860Y141291D01*
X161839Y141182D01*
X161814Y141074D01*
X161786Y140967D01*
X161753Y140861D01*
X161717Y140756D01*
X161678Y140653D01*
X161635Y140551D01*
X161588Y140450D01*
X161538Y140351D01*
X161484Y140254D01*
X161428Y140159D01*
X161367Y140066D01*
X161304Y139975D01*
X161237Y139887D01*
X161168Y139800D01*
X161095Y139717D01*
X161020Y139635D01*
X160942Y139557D01*
X160861Y139481D01*
X160777Y139408D01*
X160691Y139339D01*
X160603Y139272D01*
X160512Y139208D01*
X160419Y139147D01*
X160324Y139090D01*
X160227Y139036D01*
X160129Y138986D01*
X160028Y138939D01*
X159927Y138895D01*
X159823Y138855D01*
X159718Y138819D01*
X159612Y138787D01*
X159505Y138758D01*
X159398Y138733D01*
X159289Y138711D01*
X159179Y138694D01*
X159069Y138680D01*
X158959Y138670D01*
X158848Y138664D01*
X158738Y138662D01*
X158627Y138664D01*
X158516Y138669D01*
X158406Y138679D01*
X158296Y138692D01*
X158186Y138709D01*
X158077Y138730D01*
X157969Y138755D01*
X157862Y138783D01*
X157756Y138816D01*
X157651Y138852D01*
X157548Y138891D01*
X157446Y138934D01*
X157345Y138981D01*
X157246Y139031D01*
X157149Y139085D01*
X157054Y139142D01*
X156961Y139202D01*
X156870Y139265D01*
X156782Y139332D01*
X156695Y139401D01*
X156612Y139474D01*
X156530Y139549D01*
X156452Y139628D01*
X156376Y139708D01*
X156303Y139792D01*
X156233Y139878D01*
X156167Y139966D01*
X156103Y140057D01*
X156042Y140150D01*
X155985Y140245D01*
X155931Y140342D01*
X155881Y140440D01*
X155834Y140541D01*
X155790Y140643D01*
X155750Y140746D01*
X155714Y140851D01*
X155682Y140957D01*
X155653Y141064D01*
X155628Y141172D01*
X155606Y141280D01*
X155589Y141390D01*
X155575Y141500D01*
X155565Y141610D01*
X155559Y141721D01*
X155557Y141832D01*
X155552Y145007D01*
X155554Y145150D01*
X155560Y145292D01*
X155569Y145434D01*
X155583Y145576D01*
X155601Y145717D01*
X155622Y145858D01*
X155648Y145998D01*
X155677Y146138D01*
X155711Y146276D01*
X155748Y146414D01*
X155789Y146550D01*
X155834Y146685D01*
X155883Y146819D01*
X155935Y146952D01*
X155991Y147083D01*
X156051Y147212D01*
X156115Y147340D01*
X156182Y147466D01*
X156252Y147589D01*
X156326Y147711D01*
X156403Y147831D01*
X156484Y147948D01*
X156568Y148064D01*
X156655Y148176D01*
X156745Y148287D01*
X156838Y148394D01*
X156934Y148499D01*
X157034Y148602D01*
X157136Y148701D01*
X157240Y148798D01*
X157348Y148892D01*
X157458Y148982D01*
X157570Y149070D01*
X157685Y149154D01*
X157802Y149235D01*
X157922Y149313D01*
X158043Y149387D01*
X158167Y149458D01*
X158292Y149525D01*
X158420Y149589D01*
X158549Y149649D01*
X158680Y149706D01*
X158812Y149759D01*
X158946Y149808D01*
X159081Y149853D01*
X159217Y149895D01*
X159355Y149933D01*
X159493Y149967D01*
X159632Y149997D01*
X159772Y150023D01*
X159913Y150045D01*
X160054Y150063D01*
X160196Y150077D01*
X160338Y150088D01*
X160481Y150094D01*
X160623Y150096D01*
D10*
X483520Y195180D02*
X483520Y350800D01*
X483520Y351980D02*
X686130Y350800D01*
X686130Y195180D01*
X483520Y195180D01*
X455205Y195180D02*
X455207Y195288D01*
X455213Y195395D01*
X455223Y195503D01*
X455237Y195609D01*
X455255Y195716D01*
X455276Y195821D01*
X455302Y195926D01*
X455331Y196029D01*
X455365Y196132D01*
X455402Y196233D01*
X455443Y196333D01*
X455487Y196431D01*
X455535Y196527D01*
X455587Y196622D01*
X455642Y196715D01*
X455700Y196805D01*
X455762Y196893D01*
X455827Y196979D01*
X455895Y197063D01*
X455966Y197144D01*
X456040Y197222D01*
X456117Y197298D01*
X456196Y197370D01*
X456279Y197440D01*
X456363Y197506D01*
X456450Y197570D01*
X456540Y197630D01*
X456632Y197686D01*
X456725Y197740D01*
X456821Y197789D01*
X456918Y197836D01*
X457017Y197878D01*
X457117Y197917D01*
X457219Y197952D01*
X457322Y197984D01*
X457426Y198011D01*
X457532Y198035D01*
X457637Y198055D01*
X457744Y198071D01*
X457851Y198083D01*
X457958Y198091D01*
X458066Y198095D01*
X458174Y198095D01*
X458282Y198091D01*
X458389Y198083D01*
X458496Y198071D01*
X458603Y198055D01*
X458708Y198035D01*
X458814Y198011D01*
X458918Y197984D01*
X459021Y197952D01*
X459123Y197917D01*
X459223Y197878D01*
X459322Y197836D01*
X459419Y197789D01*
X459515Y197740D01*
X459608Y197686D01*
X459700Y197630D01*
X459790Y197570D01*
X459877Y197506D01*
X459961Y197440D01*
X460044Y197370D01*
X460123Y197298D01*
X460200Y197222D01*
X460274Y197144D01*
X460345Y197063D01*
X460413Y196979D01*
X460478Y196893D01*
X460540Y196805D01*
X460598Y196715D01*
X460653Y196622D01*
X460705Y196527D01*
X460753Y196431D01*
X460797Y196333D01*
X460838Y196233D01*
X460875Y196132D01*
X460909Y196029D01*
X460938Y195926D01*
X460964Y195821D01*
X460985Y195716D01*
X461003Y195609D01*
X461017Y195503D01*
X461027Y195395D01*
X461033Y195288D01*
X461035Y195180D01*
X461033Y195072D01*
X461027Y194965D01*
X461017Y194857D01*
X461003Y194751D01*
X460985Y194644D01*
X460964Y194539D01*
X460938Y194434D01*
X460909Y194331D01*
X460875Y194228D01*
X460838Y194127D01*
X460797Y194027D01*
X460753Y193929D01*
X460705Y193833D01*
X460653Y193738D01*
X460598Y193645D01*
X460540Y193555D01*
X460478Y193467D01*
X460413Y193381D01*
X460345Y193297D01*
X460274Y193216D01*
X460200Y193138D01*
X460123Y193062D01*
X460044Y192990D01*
X459961Y192920D01*
X459877Y192854D01*
X459790Y192790D01*
X459700Y192730D01*
X459608Y192674D01*
X459515Y192620D01*
X459419Y192571D01*
X459322Y192524D01*
X459223Y192482D01*
X459123Y192443D01*
X459021Y192408D01*
X458918Y192376D01*
X458814Y192349D01*
X458708Y192325D01*
X458603Y192305D01*
X458496Y192289D01*
X458389Y192277D01*
X458282Y192269D01*
X458174Y192265D01*
X458066Y192265D01*
X457958Y192269D01*
X457851Y192277D01*
X457744Y192289D01*
X457637Y192305D01*
X457532Y192325D01*
X457426Y192349D01*
X457322Y192376D01*
X457219Y192408D01*
X457117Y192443D01*
X457017Y192482D01*
X456918Y192524D01*
X456821Y192571D01*
X456725Y192620D01*
X456632Y192674D01*
X456540Y192730D01*
X456450Y192790D01*
X456363Y192854D01*
X456279Y192920D01*
X456196Y192990D01*
X456117Y193062D01*
X456040Y193138D01*
X455966Y193216D01*
X455895Y193297D01*
X455827Y193381D01*
X455762Y193467D01*
X455700Y193555D01*
X455642Y193645D01*
X455587Y193738D01*
X455535Y193833D01*
X455487Y193929D01*
X455443Y194027D01*
X455402Y194127D01*
X455365Y194228D01*
X455331Y194331D01*
X455302Y194434D01*
X455276Y194539D01*
X455255Y194644D01*
X455237Y194751D01*
X455223Y194857D01*
X455213Y194965D01*
X455207Y195072D01*
X455205Y195180D01*
X686130Y195180D02*
X686720Y195180D01*
D11*
X514955Y187345D02*
X514955Y177429D01*
X514957Y177307D01*
X514963Y177185D01*
X514973Y177063D01*
X514986Y176941D01*
X515004Y176820D01*
X515025Y176700D01*
X515051Y176580D01*
X515080Y176462D01*
X515113Y176344D01*
X515149Y176227D01*
X515190Y176112D01*
X515234Y175998D01*
X515281Y175885D01*
X515333Y175774D01*
X515388Y175665D01*
X515446Y175557D01*
X515507Y175452D01*
X515573Y175348D01*
X515641Y175247D01*
X515712Y175148D01*
X515787Y175051D01*
X515865Y174957D01*
X515946Y174865D01*
X516029Y174776D01*
X516116Y174689D01*
X516205Y174606D01*
X516297Y174525D01*
X516391Y174447D01*
X516488Y174372D01*
X516587Y174301D01*
X516688Y174233D01*
X516792Y174167D01*
X516897Y174106D01*
X517005Y174048D01*
X517114Y173993D01*
X517225Y173941D01*
X517338Y173894D01*
X517452Y173850D01*
X517567Y173809D01*
X517684Y173773D01*
X517802Y173740D01*
X517920Y173711D01*
X518040Y173685D01*
X518160Y173664D01*
X518281Y173646D01*
X518403Y173633D01*
X518525Y173623D01*
X518647Y173617D01*
X518769Y173615D01*
X518891Y173617D01*
X519013Y173623D01*
X519135Y173633D01*
X519257Y173646D01*
X519378Y173664D01*
X519498Y173685D01*
X519618Y173711D01*
X519736Y173740D01*
X519854Y173773D01*
X519971Y173809D01*
X520086Y173850D01*
X520200Y173894D01*
X520313Y173941D01*
X520424Y173993D01*
X520533Y174048D01*
X520641Y174106D01*
X520746Y174167D01*
X520850Y174233D01*
X520951Y174301D01*
X521050Y174372D01*
X521147Y174447D01*
X521241Y174525D01*
X521333Y174606D01*
X521422Y174689D01*
X521509Y174776D01*
X521592Y174865D01*
X521673Y174957D01*
X521751Y175051D01*
X521826Y175148D01*
X521897Y175247D01*
X521965Y175348D01*
X522031Y175452D01*
X522092Y175557D01*
X522150Y175665D01*
X522205Y175774D01*
X522257Y175885D01*
X522304Y175998D01*
X522348Y176112D01*
X522389Y176227D01*
X522425Y176344D01*
X522458Y176462D01*
X522487Y176580D01*
X522513Y176700D01*
X522534Y176820D01*
X522552Y176941D01*
X522565Y177063D01*
X522575Y177185D01*
X522581Y177307D01*
X522583Y177429D01*
X522583Y187345D01*
X531819Y187345D02*
X531819Y173615D01*
X531819Y180480D02*
X529912Y181624D01*
X529911Y181624D02*
X529831Y181674D01*
X529753Y181728D01*
X529677Y181785D01*
X529603Y181846D01*
X529532Y181909D01*
X529464Y181975D01*
X529398Y182044D01*
X529336Y182116D01*
X529276Y182190D01*
X529220Y182267D01*
X529167Y182346D01*
X529117Y182427D01*
X529071Y182510D01*
X529028Y182595D01*
X528989Y182681D01*
X528953Y182769D01*
X528921Y182859D01*
X528893Y182950D01*
X528869Y183042D01*
X528849Y183135D01*
X528832Y183228D01*
X528819Y183323D01*
X528811Y183417D01*
X528806Y183512D01*
X528805Y183607D01*
X528808Y183703D01*
X528816Y183797D01*
X528827Y183892D01*
X528842Y183986D01*
X528861Y184079D01*
X528884Y184171D01*
X528910Y184262D01*
X528941Y184353D01*
X528975Y184441D01*
X529013Y184529D01*
X529054Y184614D01*
X529099Y184698D01*
X529148Y184780D01*
X529199Y184860D01*
X529255Y184937D01*
X529313Y185012D01*
X529374Y185085D01*
X529439Y185155D01*
X529506Y185222D01*
X529576Y185287D01*
X529648Y185348D01*
X529723Y185406D01*
X529801Y185461D01*
X529881Y185513D01*
X529962Y185562D01*
X530046Y185607D01*
X530132Y185648D01*
X530219Y185686D01*
X530308Y185721D01*
X530398Y185751D01*
X530489Y185778D01*
X530581Y185801D01*
X530674Y185820D01*
X530675Y185820D02*
X530823Y185845D01*
X530972Y185866D01*
X531121Y185884D01*
X531271Y185898D01*
X531421Y185908D01*
X531571Y185915D01*
X531721Y185918D01*
X531871Y185917D01*
X532021Y185912D01*
X532171Y185904D01*
X532321Y185892D01*
X532471Y185876D01*
X532620Y185857D01*
X532768Y185834D01*
X532916Y185807D01*
X533063Y185776D01*
X533209Y185742D01*
X533355Y185704D01*
X533499Y185663D01*
X533643Y185618D01*
X533785Y185569D01*
X533926Y185517D01*
X534065Y185461D01*
X534203Y185402D01*
X534340Y185340D01*
X534475Y185274D01*
X534609Y185205D01*
X534740Y185133D01*
X534870Y185057D01*
X531819Y180480D02*
X533726Y179336D01*
X533806Y179286D01*
X533884Y179232D01*
X533960Y179174D01*
X534034Y179114D01*
X534105Y179051D01*
X534173Y178985D01*
X534239Y178916D01*
X534301Y178844D01*
X534361Y178770D01*
X534417Y178693D01*
X534470Y178614D01*
X534520Y178533D01*
X534566Y178450D01*
X534609Y178365D01*
X534648Y178279D01*
X534684Y178190D01*
X534716Y178101D01*
X534744Y178010D01*
X534768Y177918D01*
X534788Y177825D01*
X534805Y177732D01*
X534818Y177637D01*
X534826Y177543D01*
X534831Y177448D01*
X534832Y177353D01*
X534829Y177257D01*
X534821Y177163D01*
X534810Y177068D01*
X534795Y176974D01*
X534776Y176881D01*
X534753Y176789D01*
X534727Y176698D01*
X534696Y176607D01*
X534662Y176519D01*
X534624Y176431D01*
X534583Y176346D01*
X534538Y176262D01*
X534489Y176180D01*
X534438Y176101D01*
X534382Y176023D01*
X534324Y175948D01*
X534263Y175875D01*
X534198Y175805D01*
X534131Y175738D01*
X534061Y175674D01*
X533989Y175612D01*
X533914Y175554D01*
X533836Y175499D01*
X533756Y175447D01*
X533675Y175398D01*
X533591Y175353D01*
X533505Y175312D01*
X533418Y175274D01*
X533329Y175239D01*
X533239Y175209D01*
X533148Y175182D01*
X533056Y175159D01*
X532963Y175140D01*
X532815Y175115D01*
X532666Y175094D01*
X532517Y175076D01*
X532367Y175062D01*
X532218Y175052D01*
X532067Y175045D01*
X531917Y175042D01*
X531767Y175043D01*
X531617Y175048D01*
X531467Y175056D01*
X531317Y175068D01*
X531167Y175084D01*
X531018Y175103D01*
X530870Y175126D01*
X530722Y175153D01*
X530575Y175184D01*
X530429Y175218D01*
X530283Y175256D01*
X530139Y175297D01*
X529995Y175342D01*
X529853Y175391D01*
X529712Y175443D01*
X529573Y175499D01*
X529434Y175558D01*
X529298Y175620D01*
X529163Y175686D01*
X529029Y175755D01*
X528898Y175828D01*
X528768Y175903D01*
X540605Y184294D02*
X544419Y187345D01*
X544419Y173615D01*
X540605Y173615D02*
X548233Y173615D01*
X587655Y360415D02*
X587655Y374145D01*
X592232Y366517D01*
X596808Y374145D01*
X596808Y360415D01*
X603924Y360415D02*
X603924Y374145D01*
X607737Y374145D01*
X607859Y374143D01*
X607981Y374137D01*
X608103Y374127D01*
X608225Y374114D01*
X608346Y374096D01*
X608466Y374075D01*
X608586Y374049D01*
X608704Y374020D01*
X608822Y373987D01*
X608939Y373951D01*
X609054Y373910D01*
X609168Y373866D01*
X609281Y373819D01*
X609392Y373767D01*
X609501Y373712D01*
X609609Y373654D01*
X609714Y373593D01*
X609818Y373527D01*
X609919Y373459D01*
X610018Y373388D01*
X610115Y373313D01*
X610209Y373235D01*
X610301Y373154D01*
X610390Y373071D01*
X610477Y372984D01*
X610560Y372895D01*
X610641Y372803D01*
X610719Y372709D01*
X610794Y372612D01*
X610865Y372513D01*
X610933Y372412D01*
X610999Y372308D01*
X611060Y372203D01*
X611118Y372095D01*
X611173Y371986D01*
X611225Y371875D01*
X611272Y371762D01*
X611316Y371648D01*
X611357Y371533D01*
X611393Y371416D01*
X611426Y371298D01*
X611455Y371180D01*
X611481Y371060D01*
X611502Y370940D01*
X611520Y370819D01*
X611533Y370697D01*
X611543Y370575D01*
X611549Y370453D01*
X611551Y370331D01*
X611549Y370209D01*
X611543Y370087D01*
X611533Y369965D01*
X611520Y369843D01*
X611502Y369722D01*
X611481Y369602D01*
X611455Y369482D01*
X611426Y369364D01*
X611393Y369246D01*
X611357Y369129D01*
X611316Y369014D01*
X611272Y368900D01*
X611225Y368787D01*
X611173Y368676D01*
X611118Y368567D01*
X611060Y368459D01*
X610999Y368354D01*
X610933Y368250D01*
X610865Y368149D01*
X610794Y368050D01*
X610719Y367953D01*
X610641Y367859D01*
X610560Y367767D01*
X610477Y367678D01*
X610390Y367591D01*
X610301Y367508D01*
X610209Y367427D01*
X610115Y367349D01*
X610018Y367274D01*
X609919Y367203D01*
X609818Y367135D01*
X609714Y367069D01*
X609609Y367008D01*
X609501Y366950D01*
X609392Y366895D01*
X609281Y366843D01*
X609168Y366796D01*
X609054Y366752D01*
X608939Y366711D01*
X608822Y366675D01*
X608704Y366642D01*
X608586Y366613D01*
X608466Y366587D01*
X608346Y366566D01*
X608225Y366548D01*
X608103Y366535D01*
X607981Y366525D01*
X607859Y366519D01*
X607737Y366517D01*
X603924Y366517D01*
X617218Y364229D02*
X617218Y374145D01*
X617218Y364229D02*
X617220Y364107D01*
X617226Y363985D01*
X617236Y363863D01*
X617249Y363741D01*
X617267Y363620D01*
X617288Y363500D01*
X617314Y363380D01*
X617343Y363262D01*
X617376Y363144D01*
X617412Y363027D01*
X617453Y362912D01*
X617497Y362798D01*
X617544Y362685D01*
X617596Y362574D01*
X617651Y362465D01*
X617709Y362357D01*
X617770Y362252D01*
X617836Y362148D01*
X617904Y362047D01*
X617975Y361948D01*
X618050Y361851D01*
X618128Y361757D01*
X618209Y361665D01*
X618292Y361576D01*
X618379Y361489D01*
X618468Y361406D01*
X618560Y361325D01*
X618654Y361247D01*
X618751Y361172D01*
X618850Y361101D01*
X618951Y361033D01*
X619055Y360967D01*
X619160Y360906D01*
X619268Y360848D01*
X619377Y360793D01*
X619488Y360741D01*
X619601Y360694D01*
X619715Y360650D01*
X619830Y360609D01*
X619947Y360573D01*
X620065Y360540D01*
X620183Y360511D01*
X620303Y360485D01*
X620423Y360464D01*
X620544Y360446D01*
X620666Y360433D01*
X620788Y360423D01*
X620910Y360417D01*
X621032Y360415D01*
X621154Y360417D01*
X621276Y360423D01*
X621398Y360433D01*
X621520Y360446D01*
X621641Y360464D01*
X621761Y360485D01*
X621881Y360511D01*
X621999Y360540D01*
X622117Y360573D01*
X622234Y360609D01*
X622349Y360650D01*
X622463Y360694D01*
X622576Y360741D01*
X622687Y360793D01*
X622796Y360848D01*
X622904Y360906D01*
X623009Y360967D01*
X623113Y361033D01*
X623214Y361101D01*
X623313Y361172D01*
X623410Y361247D01*
X623504Y361325D01*
X623596Y361406D01*
X623685Y361489D01*
X623772Y361576D01*
X623855Y361665D01*
X623936Y361757D01*
X624014Y361851D01*
X624089Y361948D01*
X624160Y362047D01*
X624228Y362148D01*
X624294Y362252D01*
X624355Y362357D01*
X624413Y362465D01*
X624468Y362574D01*
X624520Y362685D01*
X624567Y362798D01*
X624611Y362912D01*
X624652Y363027D01*
X624688Y363144D01*
X624721Y363262D01*
X624750Y363380D01*
X624776Y363500D01*
X624797Y363620D01*
X624815Y363741D01*
X624828Y363863D01*
X624838Y363985D01*
X624844Y364107D01*
X624846Y364229D01*
X624846Y374145D01*
X631168Y368043D02*
X635744Y368043D01*
X635853Y368041D01*
X635962Y368035D01*
X636070Y368026D01*
X636178Y368012D01*
X636286Y367995D01*
X636393Y367973D01*
X636499Y367948D01*
X636604Y367919D01*
X636708Y367887D01*
X636810Y367851D01*
X636912Y367811D01*
X637011Y367767D01*
X637110Y367720D01*
X637206Y367670D01*
X637301Y367616D01*
X637393Y367559D01*
X637484Y367498D01*
X637572Y367434D01*
X637658Y367368D01*
X637742Y367298D01*
X637823Y367225D01*
X637901Y367149D01*
X637977Y367071D01*
X638050Y366990D01*
X638120Y366906D01*
X638186Y366820D01*
X638250Y366732D01*
X638311Y366641D01*
X638368Y366549D01*
X638422Y366454D01*
X638472Y366358D01*
X638519Y366259D01*
X638563Y366160D01*
X638603Y366058D01*
X638639Y365956D01*
X638671Y365852D01*
X638700Y365747D01*
X638725Y365641D01*
X638747Y365534D01*
X638764Y365426D01*
X638778Y365318D01*
X638787Y365210D01*
X638793Y365101D01*
X638795Y364992D01*
X638796Y364992D02*
X638796Y364229D01*
X638794Y364107D01*
X638788Y363985D01*
X638778Y363863D01*
X638765Y363741D01*
X638747Y363620D01*
X638726Y363500D01*
X638700Y363380D01*
X638671Y363262D01*
X638638Y363144D01*
X638602Y363027D01*
X638561Y362912D01*
X638517Y362798D01*
X638470Y362685D01*
X638418Y362574D01*
X638363Y362465D01*
X638305Y362357D01*
X638244Y362252D01*
X638178Y362148D01*
X638110Y362047D01*
X638039Y361948D01*
X637964Y361851D01*
X637886Y361757D01*
X637805Y361665D01*
X637722Y361576D01*
X637635Y361489D01*
X637546Y361406D01*
X637454Y361325D01*
X637360Y361247D01*
X637263Y361172D01*
X637164Y361101D01*
X637063Y361033D01*
X636959Y360967D01*
X636854Y360906D01*
X636746Y360848D01*
X636637Y360793D01*
X636526Y360741D01*
X636413Y360694D01*
X636299Y360650D01*
X636184Y360609D01*
X636067Y360573D01*
X635949Y360540D01*
X635831Y360511D01*
X635711Y360485D01*
X635591Y360464D01*
X635470Y360446D01*
X635348Y360433D01*
X635226Y360423D01*
X635104Y360417D01*
X634982Y360415D01*
X634860Y360417D01*
X634738Y360423D01*
X634616Y360433D01*
X634494Y360446D01*
X634373Y360464D01*
X634253Y360485D01*
X634133Y360511D01*
X634015Y360540D01*
X633897Y360573D01*
X633780Y360609D01*
X633665Y360650D01*
X633551Y360694D01*
X633438Y360741D01*
X633327Y360793D01*
X633218Y360848D01*
X633110Y360906D01*
X633005Y360967D01*
X632901Y361033D01*
X632800Y361101D01*
X632701Y361172D01*
X632604Y361247D01*
X632510Y361325D01*
X632418Y361406D01*
X632329Y361489D01*
X632242Y361576D01*
X632159Y361665D01*
X632078Y361757D01*
X632000Y361851D01*
X631925Y361948D01*
X631854Y362047D01*
X631786Y362148D01*
X631720Y362252D01*
X631659Y362357D01*
X631601Y362465D01*
X631546Y362574D01*
X631494Y362685D01*
X631447Y362798D01*
X631403Y362912D01*
X631362Y363027D01*
X631326Y363144D01*
X631293Y363262D01*
X631264Y363380D01*
X631238Y363500D01*
X631217Y363620D01*
X631199Y363741D01*
X631186Y363863D01*
X631176Y363985D01*
X631170Y364107D01*
X631168Y364229D01*
X631168Y368043D01*
X631170Y368198D01*
X631176Y368352D01*
X631186Y368506D01*
X631199Y368660D01*
X631217Y368814D01*
X631238Y368967D01*
X631264Y369120D01*
X631293Y369271D01*
X631326Y369422D01*
X631363Y369572D01*
X631403Y369722D01*
X631448Y369870D01*
X631496Y370017D01*
X631548Y370162D01*
X631603Y370307D01*
X631663Y370449D01*
X631725Y370591D01*
X631792Y370730D01*
X631861Y370868D01*
X631935Y371004D01*
X632011Y371139D01*
X632092Y371271D01*
X632175Y371401D01*
X632262Y371529D01*
X632352Y371655D01*
X632445Y371778D01*
X632541Y371899D01*
X632640Y372018D01*
X632742Y372134D01*
X632847Y372247D01*
X632955Y372358D01*
X633066Y372466D01*
X633179Y372571D01*
X633295Y372673D01*
X633414Y372772D01*
X633535Y372868D01*
X633658Y372961D01*
X633784Y373051D01*
X633912Y373138D01*
X634042Y373221D01*
X634174Y373302D01*
X634309Y373378D01*
X634445Y373452D01*
X634583Y373521D01*
X634722Y373588D01*
X634864Y373650D01*
X635006Y373710D01*
X635151Y373765D01*
X635296Y373817D01*
X635443Y373865D01*
X635591Y373910D01*
X635740Y373950D01*
X635891Y373987D01*
X636042Y374020D01*
X636193Y374049D01*
X636346Y374075D01*
X636499Y374096D01*
X636653Y374114D01*
X636807Y374127D01*
X636961Y374137D01*
X637115Y374143D01*
X637270Y374145D01*
X645812Y372238D02*
X645697Y371994D01*
X645587Y371747D01*
X645483Y371497D01*
X645386Y371246D01*
X645294Y370991D01*
X645209Y370735D01*
X645129Y370477D01*
X645056Y370217D01*
X644989Y369955D01*
X644928Y369692D01*
X644874Y369428D01*
X644826Y369162D01*
X644784Y368895D01*
X644749Y368627D01*
X644720Y368359D01*
X644697Y368090D01*
X644681Y367820D01*
X644671Y367550D01*
X644668Y367280D01*
X645813Y372238D02*
X645849Y372338D01*
X645889Y372436D01*
X645932Y372533D01*
X645980Y372628D01*
X646031Y372721D01*
X646085Y372812D01*
X646142Y372901D01*
X646203Y372988D01*
X646268Y373072D01*
X646335Y373154D01*
X646405Y373234D01*
X646479Y373310D01*
X646555Y373384D01*
X646634Y373455D01*
X646715Y373523D01*
X646799Y373588D01*
X646885Y373650D01*
X646974Y373708D01*
X647064Y373763D01*
X647157Y373815D01*
X647252Y373863D01*
X647348Y373907D01*
X647446Y373948D01*
X647545Y373985D01*
X647646Y374018D01*
X647748Y374048D01*
X647851Y374074D01*
X647955Y374095D01*
X648059Y374113D01*
X648164Y374127D01*
X648270Y374137D01*
X648376Y374143D01*
X648482Y374145D01*
X648588Y374143D01*
X648694Y374137D01*
X648800Y374127D01*
X648905Y374113D01*
X649009Y374095D01*
X649113Y374074D01*
X649216Y374048D01*
X649318Y374018D01*
X649419Y373985D01*
X649518Y373948D01*
X649616Y373907D01*
X649712Y373863D01*
X649807Y373815D01*
X649900Y373763D01*
X649990Y373708D01*
X650079Y373650D01*
X650165Y373588D01*
X650249Y373523D01*
X650331Y373455D01*
X650409Y373384D01*
X650485Y373310D01*
X650559Y373234D01*
X650629Y373154D01*
X650696Y373072D01*
X650761Y372988D01*
X650822Y372901D01*
X650879Y372812D01*
X650933Y372721D01*
X650984Y372628D01*
X651032Y372533D01*
X651075Y372436D01*
X651115Y372338D01*
X651151Y372238D01*
X651266Y371994D01*
X651376Y371747D01*
X651480Y371497D01*
X651577Y371246D01*
X651669Y370991D01*
X651754Y370735D01*
X651834Y370477D01*
X651907Y370217D01*
X651974Y369955D01*
X652035Y369692D01*
X652089Y369428D01*
X652137Y369162D01*
X652179Y368895D01*
X652214Y368627D01*
X652243Y368359D01*
X652266Y368090D01*
X652282Y367820D01*
X652292Y367550D01*
X652295Y367280D01*
X644667Y367280D02*
X644670Y367010D01*
X644680Y366740D01*
X644696Y366470D01*
X644719Y366201D01*
X644748Y365933D01*
X644783Y365665D01*
X644825Y365398D01*
X644873Y365132D01*
X644927Y364868D01*
X644988Y364604D01*
X645055Y364343D01*
X645128Y364083D01*
X645208Y363824D01*
X645293Y363568D01*
X645385Y363314D01*
X645482Y363062D01*
X645586Y362813D01*
X645696Y362566D01*
X645811Y362322D01*
X645813Y362322D02*
X645849Y362222D01*
X645889Y362124D01*
X645933Y362027D01*
X645980Y361932D01*
X646031Y361839D01*
X646085Y361748D01*
X646143Y361659D01*
X646203Y361572D01*
X646268Y361488D01*
X646335Y361406D01*
X646405Y361326D01*
X646479Y361250D01*
X646555Y361176D01*
X646634Y361105D01*
X646715Y361037D01*
X646799Y360972D01*
X646885Y360910D01*
X646974Y360852D01*
X647064Y360797D01*
X647157Y360745D01*
X647252Y360697D01*
X647348Y360653D01*
X647446Y360612D01*
X647545Y360575D01*
X647646Y360542D01*
X647748Y360512D01*
X647851Y360486D01*
X647955Y360465D01*
X648059Y360447D01*
X648164Y360433D01*
X648270Y360423D01*
X648376Y360417D01*
X648482Y360415D01*
X651152Y362322D02*
X651267Y362566D01*
X651377Y362813D01*
X651481Y363062D01*
X651578Y363314D01*
X651670Y363568D01*
X651755Y363824D01*
X651835Y364083D01*
X651908Y364343D01*
X651975Y364604D01*
X652036Y364868D01*
X652090Y365132D01*
X652138Y365398D01*
X652180Y365665D01*
X652215Y365933D01*
X652244Y366201D01*
X652267Y366470D01*
X652283Y366740D01*
X652293Y367010D01*
X652296Y367280D01*
X651151Y362322D02*
X651115Y362222D01*
X651075Y362124D01*
X651032Y362027D01*
X650984Y361932D01*
X650933Y361839D01*
X650879Y361748D01*
X650822Y361659D01*
X650761Y361572D01*
X650696Y361488D01*
X650629Y361406D01*
X650559Y361326D01*
X650485Y361250D01*
X650409Y361176D01*
X650331Y361105D01*
X650249Y361037D01*
X650165Y360972D01*
X650079Y360910D01*
X649990Y360852D01*
X649900Y360797D01*
X649807Y360745D01*
X649712Y360697D01*
X649616Y360653D01*
X649518Y360612D01*
X649419Y360575D01*
X649318Y360542D01*
X649216Y360512D01*
X649113Y360486D01*
X649009Y360465D01*
X648905Y360447D01*
X648800Y360433D01*
X648694Y360423D01*
X648588Y360417D01*
X648482Y360415D01*
X645431Y363466D02*
X651533Y371094D01*
X658168Y360415D02*
X662744Y360415D01*
X662853Y360417D01*
X662962Y360423D01*
X663070Y360432D01*
X663178Y360446D01*
X663286Y360463D01*
X663393Y360485D01*
X663499Y360510D01*
X663604Y360539D01*
X663708Y360571D01*
X663810Y360607D01*
X663912Y360647D01*
X664011Y360691D01*
X664110Y360738D01*
X664206Y360788D01*
X664301Y360842D01*
X664394Y360899D01*
X664484Y360960D01*
X664572Y361024D01*
X664658Y361090D01*
X664742Y361160D01*
X664823Y361233D01*
X664901Y361309D01*
X664977Y361387D01*
X665050Y361468D01*
X665120Y361552D01*
X665186Y361638D01*
X665250Y361726D01*
X665311Y361817D01*
X665368Y361909D01*
X665422Y362004D01*
X665472Y362100D01*
X665519Y362199D01*
X665563Y362298D01*
X665603Y362400D01*
X665639Y362503D01*
X665671Y362606D01*
X665700Y362711D01*
X665725Y362817D01*
X665747Y362924D01*
X665764Y363032D01*
X665778Y363140D01*
X665787Y363248D01*
X665793Y363357D01*
X665795Y363466D01*
X665796Y363466D02*
X665796Y364992D01*
X665795Y364992D02*
X665793Y365101D01*
X665787Y365210D01*
X665778Y365318D01*
X665764Y365426D01*
X665747Y365534D01*
X665725Y365641D01*
X665700Y365747D01*
X665671Y365852D01*
X665639Y365956D01*
X665603Y366058D01*
X665563Y366160D01*
X665519Y366259D01*
X665472Y366358D01*
X665422Y366454D01*
X665368Y366549D01*
X665311Y366641D01*
X665250Y366732D01*
X665186Y366820D01*
X665120Y366906D01*
X665050Y366990D01*
X664977Y367071D01*
X664901Y367149D01*
X664823Y367225D01*
X664742Y367298D01*
X664658Y367368D01*
X664572Y367434D01*
X664484Y367498D01*
X664393Y367559D01*
X664301Y367616D01*
X664206Y367670D01*
X664110Y367720D01*
X664011Y367767D01*
X663912Y367811D01*
X663810Y367851D01*
X663708Y367887D01*
X663604Y367919D01*
X663499Y367948D01*
X663393Y367973D01*
X663286Y367995D01*
X663178Y368012D01*
X663070Y368026D01*
X662962Y368035D01*
X662853Y368041D01*
X662744Y368043D01*
X658168Y368043D01*
X658168Y374145D01*
X665796Y374145D01*
X672812Y372238D02*
X672697Y371994D01*
X672587Y371747D01*
X672483Y371497D01*
X672386Y371246D01*
X672294Y370991D01*
X672209Y370735D01*
X672129Y370477D01*
X672056Y370217D01*
X671989Y369955D01*
X671928Y369692D01*
X671874Y369428D01*
X671826Y369162D01*
X671784Y368895D01*
X671749Y368627D01*
X671720Y368359D01*
X671697Y368090D01*
X671681Y367820D01*
X671671Y367550D01*
X671668Y367280D01*
X672813Y372238D02*
X672849Y372338D01*
X672889Y372436D01*
X672932Y372533D01*
X672980Y372628D01*
X673031Y372721D01*
X673085Y372812D01*
X673142Y372901D01*
X673203Y372988D01*
X673268Y373072D01*
X673335Y373154D01*
X673405Y373234D01*
X673479Y373310D01*
X673555Y373384D01*
X673634Y373455D01*
X673715Y373523D01*
X673799Y373588D01*
X673885Y373650D01*
X673974Y373708D01*
X674064Y373763D01*
X674157Y373815D01*
X674252Y373863D01*
X674348Y373907D01*
X674446Y373948D01*
X674545Y373985D01*
X674646Y374018D01*
X674748Y374048D01*
X674851Y374074D01*
X674955Y374095D01*
X675059Y374113D01*
X675164Y374127D01*
X675270Y374137D01*
X675376Y374143D01*
X675482Y374145D01*
X675588Y374143D01*
X675694Y374137D01*
X675800Y374127D01*
X675905Y374113D01*
X676009Y374095D01*
X676113Y374074D01*
X676216Y374048D01*
X676318Y374018D01*
X676419Y373985D01*
X676518Y373948D01*
X676616Y373907D01*
X676712Y373863D01*
X676807Y373815D01*
X676900Y373763D01*
X676990Y373708D01*
X677079Y373650D01*
X677165Y373588D01*
X677249Y373523D01*
X677331Y373455D01*
X677409Y373384D01*
X677485Y373310D01*
X677559Y373234D01*
X677629Y373154D01*
X677696Y373072D01*
X677761Y372988D01*
X677822Y372901D01*
X677879Y372812D01*
X677933Y372721D01*
X677984Y372628D01*
X678032Y372533D01*
X678075Y372436D01*
X678115Y372338D01*
X678151Y372238D01*
X678266Y371994D01*
X678376Y371747D01*
X678480Y371497D01*
X678577Y371246D01*
X678669Y370991D01*
X678754Y370735D01*
X678834Y370477D01*
X678907Y370217D01*
X678974Y369955D01*
X679035Y369692D01*
X679089Y369428D01*
X679137Y369162D01*
X679179Y368895D01*
X679214Y368627D01*
X679243Y368359D01*
X679266Y368090D01*
X679282Y367820D01*
X679292Y367550D01*
X679295Y367280D01*
X671667Y367280D02*
X671670Y367010D01*
X671680Y366740D01*
X671696Y366470D01*
X671719Y366201D01*
X671748Y365933D01*
X671783Y365665D01*
X671825Y365398D01*
X671873Y365132D01*
X671927Y364868D01*
X671988Y364604D01*
X672055Y364343D01*
X672128Y364083D01*
X672208Y363824D01*
X672293Y363568D01*
X672385Y363314D01*
X672482Y363062D01*
X672586Y362813D01*
X672696Y362566D01*
X672811Y362322D01*
X672813Y362322D02*
X672849Y362222D01*
X672889Y362124D01*
X672933Y362027D01*
X672980Y361932D01*
X673031Y361839D01*
X673085Y361748D01*
X673143Y361659D01*
X673203Y361572D01*
X673268Y361488D01*
X673335Y361406D01*
X673405Y361326D01*
X673479Y361250D01*
X673555Y361176D01*
X673634Y361105D01*
X673715Y361037D01*
X673799Y360972D01*
X673885Y360910D01*
X673974Y360852D01*
X674064Y360797D01*
X674157Y360745D01*
X674252Y360697D01*
X674348Y360653D01*
X674446Y360612D01*
X674545Y360575D01*
X674646Y360542D01*
X674748Y360512D01*
X674851Y360486D01*
X674955Y360465D01*
X675059Y360447D01*
X675164Y360433D01*
X675270Y360423D01*
X675376Y360417D01*
X675482Y360415D01*
X678152Y362322D02*
X678267Y362566D01*
X678377Y362813D01*
X678481Y363062D01*
X678578Y363314D01*
X678670Y363568D01*
X678755Y363824D01*
X678835Y364083D01*
X678908Y364343D01*
X678975Y364604D01*
X679036Y364868D01*
X679090Y365132D01*
X679138Y365398D01*
X679180Y365665D01*
X679215Y365933D01*
X679244Y366201D01*
X679267Y366470D01*
X679283Y366740D01*
X679293Y367010D01*
X679296Y367280D01*
X678151Y362322D02*
X678115Y362222D01*
X678075Y362124D01*
X678032Y362027D01*
X677984Y361932D01*
X677933Y361839D01*
X677879Y361748D01*
X677822Y361659D01*
X677761Y361572D01*
X677696Y361488D01*
X677629Y361406D01*
X677559Y361326D01*
X677485Y361250D01*
X677409Y361176D01*
X677331Y361105D01*
X677249Y361037D01*
X677165Y360972D01*
X677079Y360910D01*
X676990Y360852D01*
X676900Y360797D01*
X676807Y360745D01*
X676712Y360697D01*
X676616Y360653D01*
X676518Y360612D01*
X676419Y360575D01*
X676318Y360542D01*
X676216Y360512D01*
X676113Y360486D01*
X676009Y360465D01*
X675905Y360447D01*
X675800Y360433D01*
X675694Y360423D01*
X675588Y360417D01*
X675482Y360415D01*
X672431Y363466D02*
X678533Y371094D01*
X732500Y365600D02*
X732500Y187800D01*
X1172500Y187800D02*
X1172500Y365600D01*
D15*
X1149800Y370700D02*
X1149802Y370763D01*
X1149808Y370825D01*
X1149818Y370887D01*
X1149831Y370949D01*
X1149849Y371009D01*
X1149870Y371068D01*
X1149895Y371126D01*
X1149924Y371182D01*
X1149956Y371236D01*
X1149991Y371288D01*
X1150029Y371337D01*
X1150071Y371385D01*
X1150115Y371429D01*
X1150163Y371471D01*
X1150212Y371509D01*
X1150264Y371544D01*
X1150318Y371576D01*
X1150374Y371605D01*
X1150432Y371630D01*
X1150491Y371651D01*
X1150551Y371669D01*
X1150613Y371682D01*
X1150675Y371692D01*
X1150737Y371698D01*
X1150800Y371700D01*
X1150863Y371698D01*
X1150925Y371692D01*
X1150987Y371682D01*
X1151049Y371669D01*
X1151109Y371651D01*
X1151168Y371630D01*
X1151226Y371605D01*
X1151282Y371576D01*
X1151336Y371544D01*
X1151388Y371509D01*
X1151437Y371471D01*
X1151485Y371429D01*
X1151529Y371385D01*
X1151571Y371337D01*
X1151609Y371288D01*
X1151644Y371236D01*
X1151676Y371182D01*
X1151705Y371126D01*
X1151730Y371068D01*
X1151751Y371009D01*
X1151769Y370949D01*
X1151782Y370887D01*
X1151792Y370825D01*
X1151798Y370763D01*
X1151800Y370700D01*
X1151798Y370637D01*
X1151792Y370575D01*
X1151782Y370513D01*
X1151769Y370451D01*
X1151751Y370391D01*
X1151730Y370332D01*
X1151705Y370274D01*
X1151676Y370218D01*
X1151644Y370164D01*
X1151609Y370112D01*
X1151571Y370063D01*
X1151529Y370015D01*
X1151485Y369971D01*
X1151437Y369929D01*
X1151388Y369891D01*
X1151336Y369856D01*
X1151282Y369824D01*
X1151226Y369795D01*
X1151168Y369770D01*
X1151109Y369749D01*
X1151049Y369731D01*
X1150987Y369718D01*
X1150925Y369708D01*
X1150863Y369702D01*
X1150800Y369700D01*
X1150737Y369702D01*
X1150675Y369708D01*
X1150613Y369718D01*
X1150551Y369731D01*
X1150491Y369749D01*
X1150432Y369770D01*
X1150374Y369795D01*
X1150318Y369824D01*
X1150264Y369856D01*
X1150212Y369891D01*
X1150163Y369929D01*
X1150115Y369971D01*
X1150071Y370015D01*
X1150029Y370063D01*
X1149991Y370112D01*
X1149956Y370164D01*
X1149924Y370218D01*
X1149895Y370274D01*
X1149870Y370332D01*
X1149849Y370391D01*
X1149831Y370451D01*
X1149818Y370513D01*
X1149808Y370575D01*
X1149802Y370637D01*
X1149800Y370700D01*
D14*
X1153690Y167292D02*
X1153690Y158854D01*
X1153689Y158854D02*
X1153691Y158741D01*
X1153697Y158628D01*
X1153707Y158515D01*
X1153721Y158402D01*
X1153738Y158290D01*
X1153760Y158179D01*
X1153785Y158069D01*
X1153815Y157959D01*
X1153848Y157851D01*
X1153885Y157744D01*
X1153925Y157638D01*
X1153970Y157534D01*
X1154018Y157431D01*
X1154069Y157330D01*
X1154124Y157231D01*
X1154182Y157134D01*
X1154244Y157039D01*
X1154309Y156946D01*
X1154377Y156856D01*
X1154448Y156768D01*
X1154523Y156682D01*
X1154600Y156599D01*
X1154680Y156519D01*
X1154763Y156442D01*
X1154849Y156367D01*
X1154937Y156296D01*
X1155027Y156228D01*
X1155120Y156163D01*
X1155215Y156101D01*
X1155312Y156043D01*
X1155411Y155988D01*
X1155512Y155937D01*
X1155615Y155889D01*
X1155719Y155844D01*
X1155825Y155804D01*
X1155932Y155767D01*
X1156040Y155734D01*
X1156150Y155704D01*
X1156260Y155679D01*
X1156371Y155657D01*
X1156483Y155640D01*
X1156596Y155626D01*
X1156709Y155616D01*
X1156822Y155610D01*
X1156935Y155608D01*
X1157048Y155610D01*
X1157161Y155616D01*
X1157274Y155626D01*
X1157387Y155640D01*
X1157499Y155657D01*
X1157610Y155679D01*
X1157720Y155704D01*
X1157830Y155734D01*
X1157938Y155767D01*
X1158045Y155804D01*
X1158151Y155844D01*
X1158255Y155889D01*
X1158358Y155937D01*
X1158459Y155988D01*
X1158558Y156043D01*
X1158655Y156101D01*
X1158750Y156163D01*
X1158843Y156228D01*
X1158933Y156296D01*
X1159021Y156367D01*
X1159107Y156442D01*
X1159190Y156519D01*
X1159270Y156599D01*
X1159347Y156682D01*
X1159422Y156768D01*
X1159493Y156856D01*
X1159561Y156946D01*
X1159626Y157039D01*
X1159688Y157134D01*
X1159746Y157231D01*
X1159801Y157330D01*
X1159852Y157431D01*
X1159900Y157534D01*
X1159945Y157638D01*
X1159985Y157744D01*
X1160022Y157851D01*
X1160055Y157959D01*
X1160085Y158069D01*
X1160110Y158179D01*
X1160132Y158290D01*
X1160149Y158402D01*
X1160163Y158515D01*
X1160173Y158628D01*
X1160179Y158741D01*
X1160181Y158854D01*
X1160181Y167292D01*
X1165501Y164696D02*
X1168746Y167292D01*
X1168746Y155608D01*
X1165501Y155608D02*
X1171992Y155608D01*
D10*
X866900Y77940D02*
X866900Y72860D01*
X866900Y77940D02*
X866900Y151600D01*
X888490Y151600D01*
X892300Y151600D01*
X896110Y151600D01*
X913890Y151600D01*
X917700Y151600D01*
X921510Y151600D01*
X939290Y151600D01*
X943100Y151600D01*
X946910Y151600D01*
X964690Y151600D01*
X968500Y151600D01*
X972310Y151600D01*
X990090Y151600D01*
X993900Y151600D02*
X993900Y77940D01*
X888490Y77940D02*
X866900Y77940D01*
X888490Y77940D02*
X892300Y77940D01*
X896110Y77940D01*
X913890Y77940D01*
X917700Y77940D01*
X921510Y77940D01*
X939290Y77940D01*
X943100Y77940D01*
X946910Y77940D01*
X964690Y77940D01*
X968500Y77940D01*
X972310Y77940D01*
X990090Y77940D01*
X993900Y77940D01*
X968500Y77940D02*
X968500Y151600D01*
X943100Y151600D02*
X943100Y77940D01*
X917700Y77940D02*
X917700Y151600D01*
X892300Y151600D02*
X892300Y77940D01*
D17*
X888490Y77940D02*
X888490Y151600D01*
X896110Y151600D02*
X896110Y77940D01*
X913890Y77940D02*
X913890Y151600D01*
X921510Y151600D02*
X921510Y77940D01*
D10*
X939290Y77940D02*
X939290Y151600D01*
D17*
X946910Y151600D02*
X946910Y77940D01*
X964690Y77940D02*
X964690Y151600D01*
X972310Y151600D02*
X972310Y77940D01*
X990090Y77940D02*
X990090Y151600D01*
D10*
X993900Y151600D01*
X997710Y151600D01*
D17*
X997710Y77940D01*
D10*
X866900Y72860D02*
X1171700Y72860D01*
X1015490Y151600D02*
X997710Y151600D01*
X1019300Y151600D02*
X1019300Y77940D01*
X997710Y77940D02*
X993900Y77940D01*
X997710Y77940D02*
X1015490Y77940D01*
X1019300Y77940D01*
D17*
X1015490Y77940D02*
X1015490Y151600D01*
D10*
X1019300Y151600D01*
X1023110Y151600D01*
X1040890Y151600D01*
X1044700Y151600D01*
X1044700Y77940D01*
D17*
X1023110Y77940D02*
X1023110Y151600D01*
D10*
X1023110Y77940D02*
X1019300Y77940D01*
X1023110Y77940D02*
X1040890Y77940D01*
X1044700Y77940D01*
X1070100Y77940D02*
X1070100Y151600D01*
X1095500Y151600D02*
X1095500Y77940D01*
X1048510Y151600D02*
X1044700Y151600D01*
X1048510Y151600D02*
X1066290Y151600D01*
X1070100Y151600D01*
X1073910Y151600D01*
X1091690Y151600D01*
X1095500Y151600D01*
D17*
X1048510Y151600D02*
X1048510Y77940D01*
D10*
X1040890Y77940D02*
X1040890Y151600D01*
D17*
X1073910Y151600D02*
X1073910Y77940D01*
X1066290Y77940D02*
X1066290Y151600D01*
D10*
X1070100Y77940D02*
X1048510Y77940D01*
X1044700Y77940D01*
X1073910Y77940D02*
X1091690Y77940D01*
X1095500Y77940D01*
X1073910Y77940D02*
X1070100Y77940D01*
X1120900Y77940D02*
X1120900Y151600D01*
X1146300Y151600D02*
X1146300Y77940D01*
X1171700Y77940D02*
X1171700Y151600D01*
X1099310Y151600D02*
X1095500Y151600D01*
X1099310Y151600D02*
X1117090Y151600D01*
X1120900Y151600D01*
X1124710Y151600D01*
X1142490Y151600D01*
X1146300Y151600D01*
X1150110Y151600D01*
X1171700Y151600D01*
X1099310Y77940D02*
X1095500Y77940D01*
X1099310Y77940D02*
X1117090Y77940D01*
X1120900Y77940D01*
X1124710Y77940D01*
X1142490Y77940D01*
X1146300Y77940D01*
X1150110Y77940D01*
X1171700Y77940D01*
X1171700Y72860D01*
D17*
X1099310Y77940D02*
X1099310Y151600D01*
X1124710Y151600D02*
X1124710Y77940D01*
X1150110Y77940D02*
X1150110Y151600D01*
X1091690Y151600D02*
X1091690Y77940D01*
X1117090Y77940D02*
X1117090Y151600D01*
X1142490Y151600D02*
X1142490Y77940D01*
D11*
X902143Y95086D02*
X902039Y95084D01*
X901934Y95078D01*
X901830Y95069D01*
X901727Y95056D01*
X901624Y95038D01*
X901522Y95018D01*
X901420Y94993D01*
X901320Y94965D01*
X901220Y94933D01*
X901122Y94897D01*
X901025Y94858D01*
X900930Y94816D01*
X900836Y94770D01*
X900744Y94720D01*
X900654Y94668D01*
X900566Y94612D01*
X900480Y94552D01*
X900396Y94490D01*
X900315Y94425D01*
X900236Y94357D01*
X900159Y94285D01*
X900086Y94212D01*
X900014Y94135D01*
X899946Y94056D01*
X899881Y93975D01*
X899819Y93891D01*
X899759Y93805D01*
X899703Y93717D01*
X899651Y93627D01*
X899601Y93535D01*
X899555Y93441D01*
X899513Y93346D01*
X899474Y93249D01*
X899438Y93151D01*
X899406Y93051D01*
X899378Y92951D01*
X899353Y92849D01*
X899333Y92747D01*
X899315Y92644D01*
X899302Y92541D01*
X899293Y92437D01*
X899287Y92332D01*
X899285Y92228D01*
X899287Y92110D01*
X899293Y91991D01*
X899302Y91873D01*
X899315Y91756D01*
X899333Y91639D01*
X899353Y91522D01*
X899378Y91406D01*
X899406Y91291D01*
X899439Y91178D01*
X899474Y91065D01*
X899514Y90953D01*
X899556Y90843D01*
X899603Y90734D01*
X899653Y90626D01*
X899706Y90521D01*
X899763Y90417D01*
X899823Y90315D01*
X899886Y90215D01*
X899953Y90117D01*
X900022Y90021D01*
X900095Y89928D01*
X900171Y89837D01*
X900249Y89748D01*
X900331Y89662D01*
X900415Y89579D01*
X900501Y89498D01*
X900591Y89421D01*
X900682Y89346D01*
X900776Y89274D01*
X900873Y89205D01*
X900971Y89140D01*
X901072Y89077D01*
X901175Y89018D01*
X901279Y88962D01*
X901385Y88910D01*
X901493Y88861D01*
X901602Y88816D01*
X901713Y88774D01*
X901825Y88736D01*
X904365Y94133D02*
X904290Y94209D01*
X904211Y94284D01*
X904130Y94355D01*
X904046Y94424D01*
X903960Y94489D01*
X903872Y94551D01*
X903782Y94611D01*
X903690Y94667D01*
X903595Y94720D01*
X903499Y94769D01*
X903401Y94815D01*
X903302Y94858D01*
X903201Y94897D01*
X903099Y94932D01*
X902996Y94964D01*
X902892Y94992D01*
X902787Y95017D01*
X902680Y95038D01*
X902574Y95055D01*
X902467Y95068D01*
X902359Y95077D01*
X902251Y95083D01*
X902143Y95085D01*
X904365Y94133D02*
X910715Y88735D01*
X910715Y95085D01*
X986915Y92545D02*
X986915Y88735D01*
X986915Y92545D02*
X986913Y92645D01*
X986907Y92744D01*
X986897Y92844D01*
X986884Y92942D01*
X986866Y93041D01*
X986845Y93138D01*
X986820Y93234D01*
X986791Y93330D01*
X986758Y93424D01*
X986722Y93517D01*
X986682Y93608D01*
X986638Y93698D01*
X986591Y93786D01*
X986541Y93872D01*
X986487Y93956D01*
X986430Y94038D01*
X986370Y94117D01*
X986306Y94195D01*
X986240Y94269D01*
X986171Y94341D01*
X986099Y94410D01*
X986025Y94476D01*
X985947Y94540D01*
X985868Y94600D01*
X985786Y94657D01*
X985702Y94711D01*
X985616Y94761D01*
X985528Y94808D01*
X985438Y94852D01*
X985347Y94892D01*
X985254Y94928D01*
X985160Y94961D01*
X985064Y94990D01*
X984968Y95015D01*
X984871Y95036D01*
X984772Y95054D01*
X984674Y95067D01*
X984574Y95077D01*
X984475Y95083D01*
X984375Y95085D01*
X983105Y95085D01*
X983005Y95083D01*
X982906Y95077D01*
X982806Y95067D01*
X982708Y95054D01*
X982609Y95036D01*
X982512Y95015D01*
X982416Y94990D01*
X982320Y94961D01*
X982226Y94928D01*
X982133Y94892D01*
X982042Y94852D01*
X981952Y94808D01*
X981864Y94761D01*
X981778Y94711D01*
X981694Y94657D01*
X981612Y94600D01*
X981533Y94540D01*
X981455Y94476D01*
X981381Y94410D01*
X981309Y94341D01*
X981240Y94269D01*
X981174Y94195D01*
X981110Y94117D01*
X981050Y94038D01*
X980993Y93956D01*
X980939Y93872D01*
X980889Y93786D01*
X980842Y93698D01*
X980798Y93608D01*
X980758Y93517D01*
X980722Y93424D01*
X980689Y93330D01*
X980660Y93234D01*
X980635Y93138D01*
X980614Y93041D01*
X980596Y92942D01*
X980583Y92844D01*
X980573Y92744D01*
X980567Y92645D01*
X980565Y92545D01*
X980565Y88735D01*
X975485Y88735D01*
X975485Y95085D01*
X1102485Y91910D02*
X1105025Y88735D01*
X1102485Y91910D02*
X1113915Y91910D01*
X1113915Y88735D02*
X1113915Y95085D01*
X1108200Y100165D02*
X1107975Y100168D01*
X1107750Y100176D01*
X1107526Y100189D01*
X1107302Y100208D01*
X1107078Y100232D01*
X1106855Y100261D01*
X1106633Y100296D01*
X1106412Y100336D01*
X1106192Y100382D01*
X1105973Y100432D01*
X1105755Y100488D01*
X1105538Y100549D01*
X1105323Y100615D01*
X1105110Y100686D01*
X1104899Y100763D01*
X1104689Y100844D01*
X1104481Y100930D01*
X1104276Y101021D01*
X1104073Y101117D01*
X1103985Y101149D01*
X1103898Y101185D01*
X1103812Y101224D01*
X1103728Y101267D01*
X1103646Y101313D01*
X1103566Y101362D01*
X1103488Y101414D01*
X1103412Y101470D01*
X1103338Y101528D01*
X1103267Y101590D01*
X1103198Y101654D01*
X1103132Y101721D01*
X1103069Y101790D01*
X1103008Y101862D01*
X1102950Y101936D01*
X1102896Y102013D01*
X1102844Y102091D01*
X1102796Y102172D01*
X1102751Y102254D01*
X1102709Y102339D01*
X1102671Y102425D01*
X1102636Y102512D01*
X1102604Y102600D01*
X1102577Y102690D01*
X1102552Y102781D01*
X1102532Y102873D01*
X1102515Y102965D01*
X1102502Y103059D01*
X1102493Y103152D01*
X1102487Y103246D01*
X1102485Y103340D01*
X1102487Y103434D01*
X1102493Y103528D01*
X1102502Y103621D01*
X1102515Y103715D01*
X1102532Y103807D01*
X1102552Y103899D01*
X1102577Y103990D01*
X1102604Y104080D01*
X1102636Y104168D01*
X1102671Y104255D01*
X1102709Y104341D01*
X1102751Y104426D01*
X1102796Y104508D01*
X1102844Y104589D01*
X1102896Y104667D01*
X1102950Y104744D01*
X1103008Y104818D01*
X1103069Y104890D01*
X1103132Y104959D01*
X1103198Y105026D01*
X1103267Y105090D01*
X1103338Y105152D01*
X1103412Y105210D01*
X1103488Y105266D01*
X1103566Y105318D01*
X1103646Y105367D01*
X1103728Y105413D01*
X1103812Y105456D01*
X1103898Y105495D01*
X1103985Y105531D01*
X1104073Y105563D01*
X1104276Y105659D01*
X1104481Y105750D01*
X1104689Y105836D01*
X1104899Y105917D01*
X1105110Y105994D01*
X1105323Y106065D01*
X1105538Y106131D01*
X1105755Y106192D01*
X1105973Y106248D01*
X1106192Y106298D01*
X1106412Y106344D01*
X1106633Y106384D01*
X1106855Y106419D01*
X1107078Y106448D01*
X1107302Y106472D01*
X1107526Y106491D01*
X1107750Y106504D01*
X1107975Y106512D01*
X1108200Y106515D01*
X1108200Y100165D02*
X1108425Y100168D01*
X1108650Y100176D01*
X1108874Y100189D01*
X1109098Y100208D01*
X1109322Y100232D01*
X1109545Y100261D01*
X1109767Y100296D01*
X1109988Y100336D01*
X1110208Y100382D01*
X1110427Y100432D01*
X1110645Y100488D01*
X1110862Y100549D01*
X1111077Y100615D01*
X1111290Y100686D01*
X1111501Y100763D01*
X1111711Y100844D01*
X1111919Y100930D01*
X1112124Y101021D01*
X1112327Y101117D01*
X1112328Y101117D02*
X1112416Y101149D01*
X1112503Y101185D01*
X1112589Y101224D01*
X1112673Y101267D01*
X1112755Y101313D01*
X1112835Y101362D01*
X1112913Y101414D01*
X1112989Y101470D01*
X1113063Y101528D01*
X1113134Y101590D01*
X1113203Y101654D01*
X1113269Y101721D01*
X1113332Y101790D01*
X1113393Y101862D01*
X1113451Y101936D01*
X1113505Y102013D01*
X1113557Y102091D01*
X1113605Y102172D01*
X1113650Y102254D01*
X1113692Y102339D01*
X1113730Y102425D01*
X1113765Y102512D01*
X1113797Y102600D01*
X1113824Y102690D01*
X1113849Y102781D01*
X1113869Y102873D01*
X1113886Y102965D01*
X1113899Y103059D01*
X1113908Y103152D01*
X1113914Y103246D01*
X1113916Y103340D01*
X1112327Y105563D02*
X1112124Y105659D01*
X1111919Y105750D01*
X1111711Y105836D01*
X1111501Y105917D01*
X1111290Y105994D01*
X1111077Y106065D01*
X1110862Y106131D01*
X1110645Y106192D01*
X1110427Y106248D01*
X1110208Y106298D01*
X1109988Y106344D01*
X1109767Y106384D01*
X1109545Y106419D01*
X1109322Y106448D01*
X1109098Y106472D01*
X1108874Y106491D01*
X1108650Y106504D01*
X1108425Y106512D01*
X1108200Y106515D01*
X1112328Y105563D02*
X1112416Y105531D01*
X1112503Y105495D01*
X1112589Y105456D01*
X1112673Y105413D01*
X1112755Y105367D01*
X1112835Y105318D01*
X1112913Y105266D01*
X1112989Y105210D01*
X1113063Y105152D01*
X1113134Y105090D01*
X1113203Y105026D01*
X1113269Y104959D01*
X1113332Y104890D01*
X1113393Y104818D01*
X1113451Y104744D01*
X1113505Y104667D01*
X1113557Y104589D01*
X1113605Y104508D01*
X1113650Y104426D01*
X1113692Y104341D01*
X1113730Y104255D01*
X1113765Y104168D01*
X1113797Y104080D01*
X1113824Y103990D01*
X1113849Y103899D01*
X1113869Y103807D01*
X1113886Y103715D01*
X1113899Y103621D01*
X1113908Y103528D01*
X1113914Y103434D01*
X1113916Y103340D01*
X1111375Y100800D02*
X1105025Y105880D01*
X1153285Y91910D02*
X1155825Y88735D01*
X1153285Y91910D02*
X1164715Y91910D01*
X1164715Y88735D02*
X1164715Y95085D01*
X1153285Y103658D02*
X1153287Y103762D01*
X1153293Y103867D01*
X1153302Y103971D01*
X1153315Y104074D01*
X1153333Y104177D01*
X1153353Y104279D01*
X1153378Y104381D01*
X1153406Y104481D01*
X1153438Y104581D01*
X1153474Y104679D01*
X1153513Y104776D01*
X1153555Y104871D01*
X1153601Y104965D01*
X1153651Y105057D01*
X1153703Y105147D01*
X1153759Y105235D01*
X1153819Y105321D01*
X1153881Y105405D01*
X1153946Y105486D01*
X1154014Y105565D01*
X1154086Y105642D01*
X1154159Y105715D01*
X1154236Y105787D01*
X1154315Y105855D01*
X1154396Y105920D01*
X1154480Y105982D01*
X1154566Y106042D01*
X1154654Y106098D01*
X1154744Y106150D01*
X1154836Y106200D01*
X1154930Y106246D01*
X1155025Y106288D01*
X1155122Y106327D01*
X1155220Y106363D01*
X1155320Y106395D01*
X1155420Y106423D01*
X1155522Y106448D01*
X1155624Y106468D01*
X1155727Y106486D01*
X1155830Y106499D01*
X1155934Y106508D01*
X1156039Y106514D01*
X1156143Y106516D01*
X1153285Y103658D02*
X1153287Y103540D01*
X1153293Y103421D01*
X1153302Y103303D01*
X1153315Y103186D01*
X1153333Y103069D01*
X1153353Y102952D01*
X1153378Y102836D01*
X1153406Y102721D01*
X1153439Y102608D01*
X1153474Y102495D01*
X1153514Y102383D01*
X1153556Y102273D01*
X1153603Y102164D01*
X1153653Y102056D01*
X1153706Y101951D01*
X1153763Y101847D01*
X1153823Y101745D01*
X1153886Y101645D01*
X1153953Y101547D01*
X1154022Y101451D01*
X1154095Y101358D01*
X1154171Y101267D01*
X1154249Y101178D01*
X1154331Y101092D01*
X1154415Y101009D01*
X1154501Y100928D01*
X1154591Y100851D01*
X1154682Y100776D01*
X1154776Y100704D01*
X1154873Y100635D01*
X1154971Y100570D01*
X1155072Y100507D01*
X1155175Y100448D01*
X1155279Y100392D01*
X1155385Y100340D01*
X1155493Y100291D01*
X1155602Y100246D01*
X1155713Y100204D01*
X1155825Y100166D01*
X1158365Y105563D02*
X1158290Y105639D01*
X1158211Y105714D01*
X1158130Y105785D01*
X1158046Y105854D01*
X1157960Y105919D01*
X1157872Y105981D01*
X1157782Y106041D01*
X1157690Y106097D01*
X1157595Y106150D01*
X1157499Y106199D01*
X1157401Y106245D01*
X1157302Y106288D01*
X1157201Y106327D01*
X1157099Y106362D01*
X1156996Y106394D01*
X1156892Y106422D01*
X1156787Y106447D01*
X1156680Y106468D01*
X1156574Y106485D01*
X1156467Y106498D01*
X1156359Y106507D01*
X1156251Y106513D01*
X1156143Y106515D01*
X1158365Y105563D02*
X1164715Y100165D01*
X1164715Y106515D01*
X936115Y91910D02*
X936115Y88735D01*
X936115Y91910D02*
X936113Y92021D01*
X936107Y92131D01*
X936098Y92242D01*
X936084Y92352D01*
X936067Y92461D01*
X936046Y92570D01*
X936021Y92678D01*
X935992Y92785D01*
X935960Y92891D01*
X935924Y92996D01*
X935884Y93099D01*
X935841Y93201D01*
X935794Y93302D01*
X935743Y93401D01*
X935690Y93498D01*
X935633Y93592D01*
X935572Y93685D01*
X935509Y93776D01*
X935442Y93865D01*
X935372Y93951D01*
X935299Y94034D01*
X935224Y94116D01*
X935146Y94194D01*
X935064Y94269D01*
X934981Y94342D01*
X934895Y94412D01*
X934806Y94479D01*
X934715Y94542D01*
X934622Y94603D01*
X934528Y94660D01*
X934431Y94713D01*
X934332Y94764D01*
X934231Y94811D01*
X934129Y94854D01*
X934026Y94894D01*
X933921Y94930D01*
X933815Y94962D01*
X933708Y94991D01*
X933600Y95016D01*
X933491Y95037D01*
X933382Y95054D01*
X933272Y95068D01*
X933161Y95077D01*
X933051Y95083D01*
X932940Y95085D01*
X932829Y95083D01*
X932719Y95077D01*
X932608Y95068D01*
X932498Y95054D01*
X932389Y95037D01*
X932280Y95016D01*
X932172Y94991D01*
X932065Y94962D01*
X931959Y94930D01*
X931854Y94894D01*
X931751Y94854D01*
X931649Y94811D01*
X931548Y94764D01*
X931449Y94713D01*
X931353Y94660D01*
X931258Y94603D01*
X931165Y94542D01*
X931074Y94479D01*
X930985Y94412D01*
X930899Y94342D01*
X930816Y94269D01*
X930734Y94194D01*
X930656Y94116D01*
X930581Y94034D01*
X930508Y93951D01*
X930438Y93865D01*
X930371Y93776D01*
X930308Y93685D01*
X930247Y93592D01*
X930190Y93497D01*
X930137Y93401D01*
X930086Y93302D01*
X930039Y93201D01*
X929996Y93099D01*
X929956Y92996D01*
X929920Y92891D01*
X929888Y92785D01*
X929859Y92678D01*
X929834Y92570D01*
X929813Y92461D01*
X929796Y92352D01*
X929782Y92242D01*
X929773Y92131D01*
X929767Y92021D01*
X929765Y91910D01*
X924685Y92545D02*
X924685Y88735D01*
X924685Y92545D02*
X924687Y92645D01*
X924693Y92744D01*
X924703Y92844D01*
X924716Y92942D01*
X924734Y93041D01*
X924755Y93138D01*
X924780Y93234D01*
X924809Y93330D01*
X924842Y93424D01*
X924878Y93517D01*
X924918Y93608D01*
X924962Y93698D01*
X925009Y93786D01*
X925059Y93872D01*
X925113Y93956D01*
X925170Y94038D01*
X925230Y94117D01*
X925294Y94195D01*
X925360Y94269D01*
X925429Y94341D01*
X925501Y94410D01*
X925575Y94476D01*
X925653Y94540D01*
X925732Y94600D01*
X925814Y94657D01*
X925898Y94711D01*
X925984Y94761D01*
X926072Y94808D01*
X926162Y94852D01*
X926253Y94892D01*
X926346Y94928D01*
X926440Y94961D01*
X926536Y94990D01*
X926632Y95015D01*
X926729Y95036D01*
X926828Y95054D01*
X926926Y95067D01*
X927026Y95077D01*
X927125Y95083D01*
X927225Y95085D01*
X927325Y95083D01*
X927424Y95077D01*
X927524Y95067D01*
X927622Y95054D01*
X927721Y95036D01*
X927818Y95015D01*
X927914Y94990D01*
X928010Y94961D01*
X928104Y94928D01*
X928197Y94892D01*
X928288Y94852D01*
X928378Y94808D01*
X928466Y94761D01*
X928552Y94711D01*
X928636Y94657D01*
X928718Y94600D01*
X928797Y94540D01*
X928875Y94476D01*
X928949Y94410D01*
X929021Y94341D01*
X929090Y94269D01*
X929156Y94195D01*
X929220Y94117D01*
X929280Y94038D01*
X929337Y93956D01*
X929391Y93872D01*
X929441Y93786D01*
X929488Y93698D01*
X929532Y93608D01*
X929572Y93517D01*
X929608Y93424D01*
X929641Y93330D01*
X929670Y93234D01*
X929695Y93138D01*
X929716Y93041D01*
X929734Y92942D01*
X929747Y92844D01*
X929757Y92744D01*
X929763Y92645D01*
X929765Y92545D01*
X929765Y90005D01*
X950085Y91275D02*
X958975Y88735D01*
X958975Y95085D01*
X956435Y93180D02*
X961515Y93180D01*
X1005965Y92545D02*
X1005965Y88735D01*
X1005965Y92545D02*
X1005967Y92645D01*
X1005973Y92744D01*
X1005983Y92844D01*
X1005996Y92942D01*
X1006014Y93041D01*
X1006035Y93138D01*
X1006060Y93234D01*
X1006089Y93330D01*
X1006122Y93424D01*
X1006158Y93517D01*
X1006198Y93608D01*
X1006242Y93698D01*
X1006289Y93786D01*
X1006339Y93872D01*
X1006393Y93956D01*
X1006450Y94038D01*
X1006510Y94117D01*
X1006574Y94195D01*
X1006640Y94269D01*
X1006709Y94341D01*
X1006781Y94410D01*
X1006855Y94476D01*
X1006933Y94540D01*
X1007012Y94600D01*
X1007094Y94657D01*
X1007178Y94711D01*
X1007264Y94761D01*
X1007352Y94808D01*
X1007442Y94852D01*
X1007533Y94892D01*
X1007626Y94928D01*
X1007720Y94961D01*
X1007816Y94990D01*
X1007912Y95015D01*
X1008009Y95036D01*
X1008108Y95054D01*
X1008206Y95067D01*
X1008306Y95077D01*
X1008405Y95083D01*
X1008505Y95085D01*
X1009140Y95085D01*
X1009251Y95083D01*
X1009361Y95077D01*
X1009472Y95068D01*
X1009582Y95054D01*
X1009691Y95037D01*
X1009800Y95016D01*
X1009908Y94991D01*
X1010015Y94962D01*
X1010121Y94930D01*
X1010226Y94894D01*
X1010329Y94854D01*
X1010431Y94811D01*
X1010532Y94764D01*
X1010631Y94713D01*
X1010728Y94660D01*
X1010822Y94603D01*
X1010915Y94542D01*
X1011006Y94479D01*
X1011095Y94412D01*
X1011181Y94342D01*
X1011264Y94269D01*
X1011346Y94194D01*
X1011424Y94116D01*
X1011499Y94034D01*
X1011572Y93951D01*
X1011642Y93865D01*
X1011709Y93776D01*
X1011772Y93685D01*
X1011833Y93592D01*
X1011890Y93497D01*
X1011943Y93401D01*
X1011994Y93302D01*
X1012041Y93201D01*
X1012084Y93099D01*
X1012124Y92996D01*
X1012160Y92891D01*
X1012192Y92785D01*
X1012221Y92678D01*
X1012246Y92570D01*
X1012267Y92461D01*
X1012284Y92352D01*
X1012298Y92242D01*
X1012307Y92131D01*
X1012313Y92021D01*
X1012315Y91910D01*
X1012313Y91799D01*
X1012307Y91689D01*
X1012298Y91578D01*
X1012284Y91468D01*
X1012267Y91359D01*
X1012246Y91250D01*
X1012221Y91142D01*
X1012192Y91035D01*
X1012160Y90929D01*
X1012124Y90824D01*
X1012084Y90721D01*
X1012041Y90619D01*
X1011994Y90518D01*
X1011943Y90419D01*
X1011890Y90322D01*
X1011833Y90228D01*
X1011772Y90135D01*
X1011709Y90044D01*
X1011642Y89955D01*
X1011572Y89869D01*
X1011499Y89786D01*
X1011424Y89704D01*
X1011346Y89626D01*
X1011264Y89551D01*
X1011181Y89478D01*
X1011095Y89408D01*
X1011006Y89341D01*
X1010915Y89278D01*
X1010822Y89217D01*
X1010728Y89160D01*
X1010631Y89107D01*
X1010532Y89056D01*
X1010431Y89009D01*
X1010329Y88966D01*
X1010226Y88926D01*
X1010121Y88890D01*
X1010015Y88858D01*
X1009908Y88829D01*
X1009800Y88804D01*
X1009691Y88783D01*
X1009582Y88766D01*
X1009472Y88752D01*
X1009361Y88743D01*
X1009251Y88737D01*
X1009140Y88735D01*
X1005965Y88735D01*
X1005825Y88737D01*
X1005685Y88743D01*
X1005545Y88752D01*
X1005406Y88766D01*
X1005267Y88783D01*
X1005129Y88804D01*
X1004991Y88829D01*
X1004854Y88858D01*
X1004718Y88890D01*
X1004583Y88927D01*
X1004449Y88967D01*
X1004316Y89010D01*
X1004184Y89058D01*
X1004053Y89108D01*
X1003924Y89163D01*
X1003797Y89221D01*
X1003671Y89282D01*
X1003547Y89347D01*
X1003425Y89416D01*
X1003305Y89487D01*
X1003187Y89562D01*
X1003070Y89640D01*
X1002956Y89722D01*
X1002845Y89806D01*
X1002736Y89894D01*
X1002629Y89984D01*
X1002524Y90078D01*
X1002423Y90174D01*
X1002324Y90273D01*
X1002228Y90374D01*
X1002134Y90479D01*
X1002044Y90586D01*
X1001956Y90695D01*
X1001872Y90806D01*
X1001790Y90920D01*
X1001712Y91037D01*
X1001637Y91155D01*
X1001566Y91275D01*
X1001497Y91397D01*
X1001432Y91521D01*
X1001371Y91647D01*
X1001313Y91774D01*
X1001258Y91903D01*
X1001208Y92034D01*
X1001160Y92166D01*
X1001117Y92299D01*
X1001077Y92433D01*
X1001040Y92568D01*
X1001008Y92704D01*
X1000979Y92841D01*
X1000954Y92979D01*
X1000933Y93117D01*
X1000916Y93256D01*
X1000902Y93395D01*
X1000893Y93535D01*
X1000887Y93675D01*
X1000885Y93815D01*
X1026285Y88735D02*
X1027555Y88735D01*
X1026285Y88735D02*
X1026285Y95085D01*
X1037715Y91910D01*
X1059940Y95085D02*
X1059829Y95083D01*
X1059719Y95077D01*
X1059608Y95068D01*
X1059498Y95054D01*
X1059389Y95037D01*
X1059280Y95016D01*
X1059172Y94991D01*
X1059065Y94962D01*
X1058959Y94930D01*
X1058854Y94894D01*
X1058751Y94854D01*
X1058649Y94811D01*
X1058548Y94764D01*
X1058449Y94713D01*
X1058353Y94660D01*
X1058258Y94603D01*
X1058165Y94542D01*
X1058074Y94479D01*
X1057985Y94412D01*
X1057899Y94342D01*
X1057816Y94269D01*
X1057734Y94194D01*
X1057656Y94116D01*
X1057581Y94034D01*
X1057508Y93951D01*
X1057438Y93865D01*
X1057371Y93776D01*
X1057308Y93685D01*
X1057247Y93592D01*
X1057190Y93498D01*
X1057137Y93401D01*
X1057086Y93302D01*
X1057039Y93201D01*
X1056996Y93099D01*
X1056956Y92996D01*
X1056920Y92891D01*
X1056888Y92785D01*
X1056859Y92678D01*
X1056834Y92570D01*
X1056813Y92461D01*
X1056796Y92352D01*
X1056782Y92242D01*
X1056773Y92131D01*
X1056767Y92021D01*
X1056765Y91910D01*
X1056767Y91799D01*
X1056773Y91689D01*
X1056782Y91578D01*
X1056796Y91468D01*
X1056813Y91359D01*
X1056834Y91250D01*
X1056859Y91142D01*
X1056888Y91035D01*
X1056920Y90929D01*
X1056956Y90824D01*
X1056996Y90721D01*
X1057039Y90619D01*
X1057086Y90518D01*
X1057137Y90419D01*
X1057190Y90322D01*
X1057247Y90228D01*
X1057308Y90135D01*
X1057371Y90044D01*
X1057438Y89955D01*
X1057508Y89869D01*
X1057581Y89786D01*
X1057656Y89704D01*
X1057734Y89626D01*
X1057816Y89551D01*
X1057899Y89478D01*
X1057985Y89408D01*
X1058074Y89341D01*
X1058165Y89278D01*
X1058258Y89217D01*
X1058353Y89160D01*
X1058449Y89107D01*
X1058548Y89056D01*
X1058649Y89009D01*
X1058751Y88966D01*
X1058854Y88926D01*
X1058959Y88890D01*
X1059065Y88858D01*
X1059172Y88829D01*
X1059280Y88804D01*
X1059389Y88783D01*
X1059498Y88766D01*
X1059608Y88752D01*
X1059719Y88743D01*
X1059829Y88737D01*
X1059940Y88735D01*
X1060051Y88737D01*
X1060161Y88743D01*
X1060272Y88752D01*
X1060382Y88766D01*
X1060491Y88783D01*
X1060600Y88804D01*
X1060708Y88829D01*
X1060815Y88858D01*
X1060921Y88890D01*
X1061026Y88926D01*
X1061129Y88966D01*
X1061231Y89009D01*
X1061332Y89056D01*
X1061431Y89107D01*
X1061528Y89160D01*
X1061622Y89217D01*
X1061715Y89278D01*
X1061806Y89341D01*
X1061895Y89408D01*
X1061981Y89478D01*
X1062064Y89551D01*
X1062146Y89626D01*
X1062224Y89704D01*
X1062299Y89786D01*
X1062372Y89869D01*
X1062442Y89955D01*
X1062509Y90044D01*
X1062572Y90135D01*
X1062633Y90228D01*
X1062690Y90322D01*
X1062743Y90419D01*
X1062794Y90518D01*
X1062841Y90619D01*
X1062884Y90721D01*
X1062924Y90824D01*
X1062960Y90929D01*
X1062992Y91035D01*
X1063021Y91142D01*
X1063046Y91250D01*
X1063067Y91359D01*
X1063084Y91468D01*
X1063098Y91578D01*
X1063107Y91689D01*
X1063113Y91799D01*
X1063115Y91910D01*
X1063113Y92021D01*
X1063107Y92131D01*
X1063098Y92242D01*
X1063084Y92352D01*
X1063067Y92461D01*
X1063046Y92570D01*
X1063021Y92678D01*
X1062992Y92785D01*
X1062960Y92891D01*
X1062924Y92996D01*
X1062884Y93099D01*
X1062841Y93201D01*
X1062794Y93302D01*
X1062743Y93401D01*
X1062690Y93497D01*
X1062633Y93592D01*
X1062572Y93685D01*
X1062509Y93776D01*
X1062442Y93865D01*
X1062372Y93951D01*
X1062299Y94034D01*
X1062224Y94116D01*
X1062146Y94194D01*
X1062064Y94269D01*
X1061981Y94342D01*
X1061895Y94412D01*
X1061806Y94479D01*
X1061715Y94542D01*
X1061622Y94603D01*
X1061528Y94660D01*
X1061431Y94713D01*
X1061332Y94764D01*
X1061231Y94811D01*
X1061129Y94854D01*
X1061026Y94894D01*
X1060921Y94930D01*
X1060815Y94962D01*
X1060708Y94991D01*
X1060600Y95016D01*
X1060491Y95037D01*
X1060382Y95054D01*
X1060272Y95068D01*
X1060161Y95077D01*
X1060051Y95083D01*
X1059940Y95085D01*
X1054225Y94450D02*
X1054125Y94448D01*
X1054026Y94442D01*
X1053926Y94432D01*
X1053828Y94419D01*
X1053729Y94401D01*
X1053632Y94380D01*
X1053536Y94355D01*
X1053440Y94326D01*
X1053346Y94293D01*
X1053253Y94257D01*
X1053162Y94217D01*
X1053072Y94173D01*
X1052984Y94126D01*
X1052898Y94076D01*
X1052814Y94022D01*
X1052732Y93965D01*
X1052653Y93905D01*
X1052575Y93841D01*
X1052501Y93775D01*
X1052429Y93706D01*
X1052360Y93634D01*
X1052294Y93560D01*
X1052230Y93482D01*
X1052170Y93403D01*
X1052113Y93321D01*
X1052059Y93237D01*
X1052009Y93151D01*
X1051962Y93063D01*
X1051918Y92973D01*
X1051878Y92882D01*
X1051842Y92789D01*
X1051809Y92695D01*
X1051780Y92599D01*
X1051755Y92503D01*
X1051734Y92406D01*
X1051716Y92307D01*
X1051703Y92209D01*
X1051693Y92109D01*
X1051687Y92010D01*
X1051685Y91910D01*
X1051687Y91810D01*
X1051693Y91711D01*
X1051703Y91611D01*
X1051716Y91513D01*
X1051734Y91414D01*
X1051755Y91317D01*
X1051780Y91221D01*
X1051809Y91125D01*
X1051842Y91031D01*
X1051878Y90938D01*
X1051918Y90847D01*
X1051962Y90757D01*
X1052009Y90669D01*
X1052059Y90583D01*
X1052113Y90499D01*
X1052170Y90417D01*
X1052230Y90338D01*
X1052294Y90260D01*
X1052360Y90186D01*
X1052429Y90114D01*
X1052501Y90045D01*
X1052575Y89979D01*
X1052653Y89915D01*
X1052732Y89855D01*
X1052814Y89798D01*
X1052898Y89744D01*
X1052984Y89694D01*
X1053072Y89647D01*
X1053162Y89603D01*
X1053253Y89563D01*
X1053346Y89527D01*
X1053440Y89494D01*
X1053536Y89465D01*
X1053632Y89440D01*
X1053729Y89419D01*
X1053828Y89401D01*
X1053926Y89388D01*
X1054026Y89378D01*
X1054125Y89372D01*
X1054225Y89370D01*
X1054325Y89372D01*
X1054424Y89378D01*
X1054524Y89388D01*
X1054622Y89401D01*
X1054721Y89419D01*
X1054818Y89440D01*
X1054914Y89465D01*
X1055010Y89494D01*
X1055104Y89527D01*
X1055197Y89563D01*
X1055288Y89603D01*
X1055378Y89647D01*
X1055466Y89694D01*
X1055552Y89744D01*
X1055636Y89798D01*
X1055718Y89855D01*
X1055797Y89915D01*
X1055875Y89979D01*
X1055949Y90045D01*
X1056021Y90114D01*
X1056090Y90186D01*
X1056156Y90260D01*
X1056220Y90338D01*
X1056280Y90417D01*
X1056337Y90499D01*
X1056391Y90583D01*
X1056441Y90669D01*
X1056488Y90757D01*
X1056532Y90847D01*
X1056572Y90938D01*
X1056608Y91031D01*
X1056641Y91125D01*
X1056670Y91221D01*
X1056695Y91317D01*
X1056716Y91414D01*
X1056734Y91513D01*
X1056747Y91611D01*
X1056757Y91711D01*
X1056763Y91810D01*
X1056765Y91910D01*
X1056763Y92010D01*
X1056757Y92109D01*
X1056747Y92209D01*
X1056734Y92307D01*
X1056716Y92406D01*
X1056695Y92503D01*
X1056670Y92599D01*
X1056641Y92695D01*
X1056608Y92789D01*
X1056572Y92882D01*
X1056532Y92973D01*
X1056488Y93063D01*
X1056441Y93151D01*
X1056391Y93237D01*
X1056337Y93321D01*
X1056280Y93403D01*
X1056220Y93482D01*
X1056156Y93560D01*
X1056090Y93634D01*
X1056021Y93706D01*
X1055949Y93775D01*
X1055875Y93841D01*
X1055797Y93905D01*
X1055718Y93965D01*
X1055636Y94022D01*
X1055552Y94076D01*
X1055466Y94126D01*
X1055378Y94173D01*
X1055288Y94217D01*
X1055197Y94257D01*
X1055104Y94293D01*
X1055010Y94326D01*
X1054914Y94355D01*
X1054818Y94380D01*
X1054721Y94401D01*
X1054622Y94419D01*
X1054524Y94432D01*
X1054424Y94442D01*
X1054325Y94448D01*
X1054225Y94450D01*
X1083435Y95085D02*
X1083435Y91275D01*
X1083433Y91175D01*
X1083427Y91076D01*
X1083417Y90976D01*
X1083404Y90878D01*
X1083386Y90779D01*
X1083365Y90682D01*
X1083340Y90586D01*
X1083311Y90490D01*
X1083278Y90396D01*
X1083242Y90303D01*
X1083202Y90212D01*
X1083158Y90122D01*
X1083111Y90034D01*
X1083061Y89948D01*
X1083007Y89864D01*
X1082950Y89782D01*
X1082890Y89703D01*
X1082826Y89625D01*
X1082760Y89551D01*
X1082691Y89479D01*
X1082619Y89410D01*
X1082545Y89344D01*
X1082467Y89280D01*
X1082388Y89220D01*
X1082306Y89163D01*
X1082222Y89109D01*
X1082136Y89059D01*
X1082048Y89012D01*
X1081958Y88968D01*
X1081867Y88928D01*
X1081774Y88892D01*
X1081680Y88859D01*
X1081584Y88830D01*
X1081488Y88805D01*
X1081391Y88784D01*
X1081292Y88766D01*
X1081194Y88753D01*
X1081094Y88743D01*
X1080995Y88737D01*
X1080895Y88735D01*
X1080260Y88735D01*
X1080149Y88737D01*
X1080039Y88743D01*
X1079928Y88752D01*
X1079818Y88766D01*
X1079709Y88783D01*
X1079600Y88804D01*
X1079492Y88829D01*
X1079385Y88858D01*
X1079279Y88890D01*
X1079174Y88926D01*
X1079071Y88966D01*
X1078969Y89009D01*
X1078868Y89056D01*
X1078769Y89107D01*
X1078673Y89160D01*
X1078578Y89217D01*
X1078485Y89278D01*
X1078394Y89341D01*
X1078305Y89408D01*
X1078219Y89478D01*
X1078136Y89551D01*
X1078054Y89626D01*
X1077976Y89704D01*
X1077901Y89786D01*
X1077828Y89869D01*
X1077758Y89955D01*
X1077691Y90044D01*
X1077628Y90135D01*
X1077567Y90228D01*
X1077510Y90322D01*
X1077457Y90419D01*
X1077406Y90518D01*
X1077359Y90619D01*
X1077316Y90721D01*
X1077276Y90824D01*
X1077240Y90929D01*
X1077208Y91035D01*
X1077179Y91142D01*
X1077154Y91250D01*
X1077133Y91359D01*
X1077116Y91468D01*
X1077102Y91578D01*
X1077093Y91689D01*
X1077087Y91799D01*
X1077085Y91910D01*
X1077087Y92021D01*
X1077093Y92131D01*
X1077102Y92242D01*
X1077116Y92352D01*
X1077133Y92461D01*
X1077154Y92570D01*
X1077179Y92678D01*
X1077208Y92785D01*
X1077240Y92891D01*
X1077276Y92996D01*
X1077316Y93099D01*
X1077359Y93201D01*
X1077406Y93302D01*
X1077457Y93401D01*
X1077510Y93498D01*
X1077567Y93592D01*
X1077628Y93685D01*
X1077691Y93776D01*
X1077758Y93865D01*
X1077828Y93951D01*
X1077901Y94034D01*
X1077976Y94116D01*
X1078054Y94194D01*
X1078136Y94269D01*
X1078219Y94342D01*
X1078305Y94412D01*
X1078394Y94479D01*
X1078485Y94542D01*
X1078578Y94603D01*
X1078673Y94660D01*
X1078769Y94713D01*
X1078868Y94764D01*
X1078969Y94811D01*
X1079071Y94854D01*
X1079174Y94894D01*
X1079279Y94930D01*
X1079385Y94962D01*
X1079492Y94991D01*
X1079600Y95016D01*
X1079709Y95037D01*
X1079818Y95054D01*
X1079928Y95068D01*
X1080039Y95077D01*
X1080149Y95083D01*
X1080260Y95085D01*
X1083435Y95085D01*
X1083575Y95083D01*
X1083715Y95077D01*
X1083855Y95068D01*
X1083994Y95054D01*
X1084133Y95037D01*
X1084271Y95016D01*
X1084409Y94991D01*
X1084546Y94962D01*
X1084682Y94930D01*
X1084817Y94893D01*
X1084951Y94853D01*
X1085084Y94810D01*
X1085216Y94762D01*
X1085347Y94712D01*
X1085476Y94657D01*
X1085603Y94599D01*
X1085729Y94538D01*
X1085853Y94473D01*
X1085975Y94404D01*
X1086095Y94333D01*
X1086213Y94258D01*
X1086330Y94180D01*
X1086444Y94098D01*
X1086555Y94014D01*
X1086664Y93926D01*
X1086771Y93836D01*
X1086876Y93742D01*
X1086977Y93646D01*
X1087076Y93547D01*
X1087172Y93446D01*
X1087266Y93341D01*
X1087356Y93234D01*
X1087444Y93125D01*
X1087528Y93014D01*
X1087610Y92900D01*
X1087688Y92783D01*
X1087763Y92665D01*
X1087834Y92545D01*
X1087903Y92423D01*
X1087968Y92299D01*
X1088029Y92173D01*
X1088087Y92046D01*
X1088142Y91917D01*
X1088192Y91786D01*
X1088240Y91654D01*
X1088283Y91521D01*
X1088323Y91387D01*
X1088360Y91252D01*
X1088392Y91116D01*
X1088421Y90979D01*
X1088446Y90841D01*
X1088467Y90703D01*
X1088484Y90564D01*
X1088498Y90425D01*
X1088507Y90285D01*
X1088513Y90145D01*
X1088515Y90005D01*
X1127885Y91910D02*
X1130425Y88735D01*
X1127885Y91910D02*
X1139315Y91910D01*
X1139315Y88735D02*
X1139315Y95085D01*
X1130425Y100165D02*
X1127885Y103340D01*
X1139315Y103340D01*
X1139315Y100165D02*
X1139315Y106515D01*
X873885Y40475D02*
X873883Y40375D01*
X873877Y40276D01*
X873867Y40176D01*
X873854Y40078D01*
X873836Y39979D01*
X873815Y39882D01*
X873790Y39786D01*
X873761Y39690D01*
X873728Y39596D01*
X873692Y39503D01*
X873652Y39412D01*
X873608Y39322D01*
X873561Y39234D01*
X873511Y39148D01*
X873457Y39064D01*
X873400Y38982D01*
X873340Y38903D01*
X873276Y38825D01*
X873210Y38751D01*
X873141Y38679D01*
X873069Y38610D01*
X872995Y38544D01*
X872917Y38480D01*
X872838Y38420D01*
X872756Y38363D01*
X872672Y38309D01*
X872586Y38259D01*
X872498Y38212D01*
X872408Y38168D01*
X872317Y38128D01*
X872224Y38092D01*
X872130Y38059D01*
X872034Y38030D01*
X871938Y38005D01*
X871841Y37984D01*
X871742Y37966D01*
X871644Y37953D01*
X871544Y37943D01*
X871445Y37937D01*
X871345Y37935D01*
X871204Y37937D01*
X871063Y37942D01*
X870922Y37952D01*
X870781Y37965D01*
X870641Y37981D01*
X870501Y38002D01*
X870362Y38026D01*
X870223Y38054D01*
X870086Y38085D01*
X869949Y38120D01*
X869813Y38158D01*
X869678Y38200D01*
X869545Y38246D01*
X869412Y38295D01*
X869281Y38348D01*
X869152Y38404D01*
X869023Y38463D01*
X868897Y38526D01*
X868772Y38592D01*
X868649Y38661D01*
X868528Y38734D01*
X868409Y38810D01*
X868291Y38889D01*
X868176Y38970D01*
X868064Y39055D01*
X867953Y39143D01*
X867845Y39234D01*
X867739Y39327D01*
X867636Y39424D01*
X867535Y39523D01*
X867853Y46825D02*
X867855Y46925D01*
X867861Y47024D01*
X867871Y47124D01*
X867884Y47222D01*
X867902Y47321D01*
X867923Y47418D01*
X867948Y47514D01*
X867977Y47610D01*
X868010Y47704D01*
X868046Y47797D01*
X868086Y47888D01*
X868130Y47978D01*
X868177Y48066D01*
X868227Y48152D01*
X868281Y48236D01*
X868338Y48318D01*
X868398Y48397D01*
X868462Y48475D01*
X868528Y48549D01*
X868597Y48621D01*
X868669Y48690D01*
X868743Y48756D01*
X868821Y48820D01*
X868900Y48880D01*
X868982Y48937D01*
X869066Y48991D01*
X869152Y49041D01*
X869240Y49088D01*
X869330Y49132D01*
X869421Y49172D01*
X869514Y49208D01*
X869608Y49241D01*
X869704Y49270D01*
X869800Y49295D01*
X869897Y49316D01*
X869996Y49334D01*
X870094Y49347D01*
X870194Y49357D01*
X870293Y49363D01*
X870393Y49365D01*
X870393Y49366D02*
X870526Y49364D01*
X870659Y49359D01*
X870792Y49349D01*
X870925Y49336D01*
X871057Y49319D01*
X871189Y49299D01*
X871320Y49275D01*
X871450Y49247D01*
X871580Y49216D01*
X871708Y49181D01*
X871836Y49142D01*
X871962Y49100D01*
X872087Y49054D01*
X872211Y49005D01*
X872334Y48953D01*
X872455Y48897D01*
X872574Y48837D01*
X872692Y48775D01*
X872807Y48709D01*
X872921Y48640D01*
X873033Y48567D01*
X873143Y48492D01*
X873251Y48413D01*
X869122Y44602D02*
X869038Y44654D01*
X868955Y44709D01*
X868875Y44768D01*
X868797Y44829D01*
X868722Y44893D01*
X868649Y44961D01*
X868578Y45031D01*
X868511Y45103D01*
X868446Y45178D01*
X868384Y45256D01*
X868325Y45336D01*
X868269Y45418D01*
X868217Y45502D01*
X868168Y45588D01*
X868122Y45676D01*
X868079Y45766D01*
X868040Y45857D01*
X868005Y45950D01*
X867973Y46044D01*
X867945Y46139D01*
X867920Y46235D01*
X867900Y46332D01*
X867882Y46430D01*
X867869Y46528D01*
X867860Y46627D01*
X867854Y46726D01*
X867852Y46825D01*
X872615Y42698D02*
X872699Y42646D01*
X872782Y42591D01*
X872862Y42532D01*
X872940Y42471D01*
X873015Y42407D01*
X873088Y42339D01*
X873159Y42269D01*
X873226Y42197D01*
X873291Y42122D01*
X873353Y42044D01*
X873412Y41964D01*
X873468Y41882D01*
X873520Y41798D01*
X873569Y41712D01*
X873615Y41624D01*
X873658Y41534D01*
X873697Y41443D01*
X873732Y41350D01*
X873764Y41256D01*
X873792Y41161D01*
X873817Y41065D01*
X873837Y40968D01*
X873855Y40870D01*
X873868Y40772D01*
X873877Y40673D01*
X873883Y40574D01*
X873885Y40475D01*
X872615Y42698D02*
X869123Y44603D01*
X877949Y49365D02*
X881759Y37935D01*
X885569Y49365D01*
X893507Y49366D02*
X893611Y49364D01*
X893716Y49358D01*
X893820Y49349D01*
X893923Y49336D01*
X894026Y49318D01*
X894128Y49298D01*
X894230Y49273D01*
X894330Y49245D01*
X894430Y49213D01*
X894528Y49177D01*
X894625Y49138D01*
X894720Y49096D01*
X894814Y49050D01*
X894906Y49000D01*
X894996Y48948D01*
X895084Y48892D01*
X895170Y48832D01*
X895254Y48770D01*
X895335Y48705D01*
X895414Y48637D01*
X895491Y48565D01*
X895564Y48492D01*
X895636Y48415D01*
X895704Y48336D01*
X895769Y48255D01*
X895831Y48171D01*
X895891Y48085D01*
X895947Y47997D01*
X895999Y47907D01*
X896049Y47815D01*
X896095Y47721D01*
X896137Y47626D01*
X896176Y47529D01*
X896212Y47431D01*
X896244Y47331D01*
X896272Y47231D01*
X896297Y47129D01*
X896317Y47027D01*
X896335Y46924D01*
X896348Y46821D01*
X896357Y46717D01*
X896363Y46612D01*
X896365Y46508D01*
X893507Y49365D02*
X893389Y49363D01*
X893270Y49357D01*
X893152Y49348D01*
X893035Y49335D01*
X892918Y49317D01*
X892801Y49297D01*
X892685Y49272D01*
X892570Y49244D01*
X892457Y49211D01*
X892344Y49176D01*
X892232Y49136D01*
X892122Y49094D01*
X892013Y49047D01*
X891905Y48997D01*
X891800Y48944D01*
X891696Y48887D01*
X891594Y48827D01*
X891494Y48764D01*
X891396Y48697D01*
X891300Y48628D01*
X891207Y48555D01*
X891116Y48479D01*
X891027Y48401D01*
X890941Y48319D01*
X890858Y48235D01*
X890777Y48149D01*
X890700Y48059D01*
X890625Y47968D01*
X890553Y47874D01*
X890484Y47777D01*
X890419Y47679D01*
X890356Y47578D01*
X890297Y47475D01*
X890241Y47371D01*
X890189Y47265D01*
X890140Y47157D01*
X890095Y47048D01*
X890053Y46937D01*
X890015Y46825D01*
X895412Y44286D02*
X895488Y44361D01*
X895563Y44440D01*
X895634Y44521D01*
X895703Y44605D01*
X895768Y44691D01*
X895830Y44779D01*
X895890Y44869D01*
X895946Y44961D01*
X895999Y45056D01*
X896048Y45152D01*
X896094Y45250D01*
X896137Y45349D01*
X896176Y45450D01*
X896211Y45552D01*
X896243Y45655D01*
X896271Y45759D01*
X896296Y45864D01*
X896317Y45971D01*
X896334Y46077D01*
X896347Y46184D01*
X896356Y46292D01*
X896362Y46400D01*
X896364Y46508D01*
X895412Y44285D02*
X890014Y37935D01*
X896364Y37935D01*
D10*
X677290Y129820D02*
X664590Y129820D01*
X658240Y136170D01*
X658240Y148870D02*
X664590Y155220D01*
X658240Y136170D02*
X651890Y129820D01*
X639190Y129820D01*
X632840Y136170D01*
X632840Y148870D02*
X639190Y155220D01*
X651890Y155220D01*
X658240Y148870D01*
X683640Y148870D02*
X683640Y136170D01*
X677290Y129820D01*
X683640Y148870D02*
X677290Y155220D01*
X664590Y155220D01*
X632840Y136170D02*
X626490Y129820D01*
X613790Y129820D01*
X607440Y136170D01*
X607440Y148870D02*
X613790Y155220D01*
X626490Y155220D01*
X632840Y148870D01*
X601090Y129820D02*
X588390Y129820D01*
X582040Y136170D01*
X582040Y148870D01*
X588390Y155220D01*
X607440Y136170D02*
X601090Y129820D01*
X607440Y148870D02*
X601090Y155220D01*
X588390Y155220D01*
D11*
X688085Y145695D02*
X691260Y148235D01*
X691260Y136805D01*
X688085Y136805D02*
X694435Y136805D01*
X575055Y148235D02*
X572515Y139345D01*
X578865Y139345D01*
X576960Y141885D02*
X576960Y136805D01*
X657986Y113945D02*
X658086Y113947D01*
X658185Y113953D01*
X658285Y113963D01*
X658383Y113976D01*
X658482Y113994D01*
X658579Y114015D01*
X658675Y114040D01*
X658771Y114069D01*
X658865Y114102D01*
X658958Y114138D01*
X659049Y114178D01*
X659139Y114222D01*
X659227Y114269D01*
X659313Y114319D01*
X659397Y114373D01*
X659479Y114430D01*
X659558Y114490D01*
X659636Y114554D01*
X659710Y114620D01*
X659782Y114689D01*
X659851Y114761D01*
X659917Y114835D01*
X659981Y114913D01*
X660041Y114992D01*
X660098Y115074D01*
X660152Y115158D01*
X660202Y115244D01*
X660249Y115332D01*
X660293Y115422D01*
X660333Y115513D01*
X660369Y115606D01*
X660402Y115700D01*
X660431Y115796D01*
X660456Y115892D01*
X660477Y115989D01*
X660495Y116088D01*
X660508Y116186D01*
X660518Y116286D01*
X660524Y116385D01*
X660526Y116485D01*
X657986Y113945D02*
X657845Y113947D01*
X657704Y113952D01*
X657563Y113962D01*
X657422Y113975D01*
X657282Y113991D01*
X657142Y114012D01*
X657003Y114036D01*
X656864Y114064D01*
X656727Y114095D01*
X656590Y114130D01*
X656454Y114168D01*
X656319Y114210D01*
X656186Y114256D01*
X656053Y114305D01*
X655922Y114358D01*
X655793Y114414D01*
X655664Y114473D01*
X655538Y114536D01*
X655413Y114602D01*
X655290Y114671D01*
X655169Y114744D01*
X655050Y114820D01*
X654932Y114899D01*
X654817Y114980D01*
X654705Y115065D01*
X654594Y115153D01*
X654486Y115244D01*
X654380Y115337D01*
X654277Y115434D01*
X654176Y115533D01*
X654494Y122835D02*
X654496Y122935D01*
X654502Y123034D01*
X654512Y123134D01*
X654525Y123232D01*
X654543Y123331D01*
X654564Y123428D01*
X654589Y123524D01*
X654618Y123620D01*
X654651Y123714D01*
X654687Y123807D01*
X654727Y123898D01*
X654771Y123988D01*
X654818Y124076D01*
X654868Y124162D01*
X654922Y124246D01*
X654979Y124328D01*
X655039Y124407D01*
X655103Y124485D01*
X655169Y124559D01*
X655238Y124631D01*
X655310Y124700D01*
X655384Y124766D01*
X655462Y124830D01*
X655541Y124890D01*
X655623Y124947D01*
X655707Y125001D01*
X655793Y125051D01*
X655881Y125098D01*
X655971Y125142D01*
X656062Y125182D01*
X656155Y125218D01*
X656249Y125251D01*
X656345Y125280D01*
X656441Y125305D01*
X656538Y125326D01*
X656637Y125344D01*
X656735Y125357D01*
X656835Y125367D01*
X656934Y125373D01*
X657034Y125375D01*
X657034Y125376D02*
X657167Y125374D01*
X657300Y125369D01*
X657433Y125359D01*
X657566Y125346D01*
X657698Y125329D01*
X657830Y125309D01*
X657961Y125285D01*
X658091Y125257D01*
X658221Y125226D01*
X658349Y125191D01*
X658477Y125152D01*
X658603Y125110D01*
X658728Y125064D01*
X658852Y125015D01*
X658975Y124963D01*
X659096Y124907D01*
X659215Y124847D01*
X659333Y124785D01*
X659448Y124719D01*
X659562Y124650D01*
X659674Y124577D01*
X659784Y124502D01*
X659892Y124423D01*
X655763Y120612D02*
X655679Y120664D01*
X655596Y120719D01*
X655516Y120778D01*
X655438Y120839D01*
X655363Y120903D01*
X655290Y120971D01*
X655219Y121041D01*
X655152Y121113D01*
X655087Y121188D01*
X655025Y121266D01*
X654966Y121346D01*
X654910Y121428D01*
X654858Y121512D01*
X654809Y121598D01*
X654763Y121686D01*
X654720Y121776D01*
X654681Y121867D01*
X654646Y121960D01*
X654614Y122054D01*
X654586Y122149D01*
X654561Y122245D01*
X654541Y122342D01*
X654523Y122440D01*
X654510Y122538D01*
X654501Y122637D01*
X654495Y122736D01*
X654493Y122835D01*
X659256Y118708D02*
X659340Y118656D01*
X659423Y118601D01*
X659503Y118542D01*
X659581Y118481D01*
X659656Y118417D01*
X659729Y118349D01*
X659800Y118279D01*
X659867Y118207D01*
X659932Y118132D01*
X659994Y118054D01*
X660053Y117974D01*
X660109Y117892D01*
X660161Y117808D01*
X660210Y117722D01*
X660256Y117634D01*
X660299Y117544D01*
X660338Y117453D01*
X660373Y117360D01*
X660405Y117266D01*
X660433Y117171D01*
X660458Y117075D01*
X660478Y116978D01*
X660496Y116880D01*
X660509Y116782D01*
X660518Y116683D01*
X660524Y116584D01*
X660526Y116485D01*
X659256Y118708D02*
X655764Y120613D01*
X664590Y125375D02*
X668400Y113945D01*
X672210Y125375D01*
X676655Y113945D02*
X679830Y113945D01*
X679941Y113947D01*
X680051Y113953D01*
X680162Y113962D01*
X680272Y113976D01*
X680381Y113993D01*
X680490Y114014D01*
X680598Y114039D01*
X680705Y114068D01*
X680811Y114100D01*
X680916Y114136D01*
X681019Y114176D01*
X681121Y114219D01*
X681222Y114266D01*
X681321Y114317D01*
X681418Y114370D01*
X681512Y114427D01*
X681605Y114488D01*
X681696Y114551D01*
X681785Y114618D01*
X681871Y114688D01*
X681954Y114761D01*
X682036Y114836D01*
X682114Y114914D01*
X682189Y114996D01*
X682262Y115079D01*
X682332Y115165D01*
X682399Y115254D01*
X682462Y115345D01*
X682523Y115438D01*
X682580Y115532D01*
X682633Y115629D01*
X682684Y115728D01*
X682731Y115829D01*
X682774Y115931D01*
X682814Y116034D01*
X682850Y116139D01*
X682882Y116245D01*
X682911Y116352D01*
X682936Y116460D01*
X682957Y116569D01*
X682974Y116678D01*
X682988Y116788D01*
X682997Y116899D01*
X683003Y117009D01*
X683005Y117120D01*
X683003Y117231D01*
X682997Y117341D01*
X682988Y117452D01*
X682974Y117562D01*
X682957Y117671D01*
X682936Y117780D01*
X682911Y117888D01*
X682882Y117995D01*
X682850Y118101D01*
X682814Y118206D01*
X682774Y118309D01*
X682731Y118411D01*
X682684Y118512D01*
X682633Y118611D01*
X682580Y118707D01*
X682523Y118802D01*
X682462Y118895D01*
X682399Y118986D01*
X682332Y119075D01*
X682262Y119161D01*
X682189Y119244D01*
X682114Y119326D01*
X682036Y119404D01*
X681954Y119479D01*
X681871Y119552D01*
X681785Y119622D01*
X681696Y119689D01*
X681605Y119752D01*
X681512Y119813D01*
X681418Y119870D01*
X681321Y119923D01*
X681222Y119974D01*
X681121Y120021D01*
X681019Y120064D01*
X680916Y120104D01*
X680811Y120140D01*
X680705Y120172D01*
X680598Y120201D01*
X680490Y120226D01*
X680381Y120247D01*
X680272Y120264D01*
X680162Y120278D01*
X680051Y120287D01*
X679941Y120293D01*
X679830Y120295D01*
X680465Y125375D02*
X676655Y125375D01*
X680465Y125375D02*
X680565Y125373D01*
X680664Y125367D01*
X680764Y125357D01*
X680862Y125344D01*
X680961Y125326D01*
X681058Y125305D01*
X681154Y125280D01*
X681250Y125251D01*
X681344Y125218D01*
X681437Y125182D01*
X681528Y125142D01*
X681618Y125098D01*
X681706Y125051D01*
X681792Y125001D01*
X681876Y124947D01*
X681958Y124890D01*
X682037Y124830D01*
X682115Y124766D01*
X682189Y124700D01*
X682261Y124631D01*
X682330Y124559D01*
X682396Y124485D01*
X682460Y124407D01*
X682520Y124328D01*
X682577Y124246D01*
X682631Y124162D01*
X682681Y124076D01*
X682728Y123988D01*
X682772Y123898D01*
X682812Y123807D01*
X682848Y123714D01*
X682881Y123620D01*
X682910Y123524D01*
X682935Y123428D01*
X682956Y123331D01*
X682974Y123232D01*
X682987Y123134D01*
X682997Y123034D01*
X683003Y122935D01*
X683005Y122835D01*
X683003Y122735D01*
X682997Y122636D01*
X682987Y122536D01*
X682974Y122438D01*
X682956Y122339D01*
X682935Y122242D01*
X682910Y122146D01*
X682881Y122050D01*
X682848Y121956D01*
X682812Y121863D01*
X682772Y121772D01*
X682728Y121682D01*
X682681Y121594D01*
X682631Y121508D01*
X682577Y121424D01*
X682520Y121342D01*
X682460Y121263D01*
X682396Y121185D01*
X682330Y121111D01*
X682261Y121039D01*
X682189Y120970D01*
X682115Y120904D01*
X682037Y120840D01*
X681958Y120780D01*
X681876Y120723D01*
X681792Y120669D01*
X681706Y120619D01*
X681618Y120572D01*
X681528Y120528D01*
X681437Y120488D01*
X681344Y120452D01*
X681250Y120419D01*
X681154Y120390D01*
X681058Y120365D01*
X680961Y120344D01*
X680862Y120326D01*
X680764Y120313D01*
X680664Y120303D01*
X680565Y120297D01*
X680465Y120295D01*
X677925Y120295D01*
M02*
