M48
;GenerationSoftware,Autodesk,EAGLE,9.6.2*%
;CreationDate,2023-01-20T17:46:06Z*%
FMAT,2
ICI,OFF
METRIC,TZ,000.000
T8C0.350
T7C0.600
T6C0.813
T5C1.016
T4C1.100
T3C1.300
T2C1.651
T1C3.000
%
G90
M71
T1
X42180Y5810
X50892Y32218
X66132Y32218
X40640Y34750
X2318Y37798
X2000Y6000
X82000Y6000
T2
X115980Y35290
X115980Y20050
X75340Y20050
X75340Y35290
T3
X39370Y14050
X42870Y14050
X35870Y14050
T4
X25400Y10620
X25400Y34750
X20320Y10620
X20320Y34750
T5
X13968Y14434
X8892Y11886
X11432Y11890
X13972Y11894
X8888Y14426
X11428Y14430
X59474Y14252
X67094Y14252
X64554Y14252
X62014Y14252
T6
X24130Y25860
X19050Y25860
X16510Y25860
X13970Y25860
X19050Y18240
X13970Y18240
X16510Y18240
X29210Y18240
X31750Y18240
X21590Y18240
X26670Y18240
X21590Y25860
X24130Y18240
X87960Y6270
X90500Y6270
X93040Y6270
X95580Y6270
X98120Y6270
X100660Y6270
X103200Y6270
X105740Y6270
X108280Y6270
X110820Y6270
X113360Y6270
X115900Y6270
X31750Y25860
X29210Y25860
X26670Y25860
T7
X49352Y20788
X51892Y20788
X54432Y20788
X56972Y20788
X59512Y20788
X62052Y20788
X64592Y20788
X67132Y20788
T8
X11430Y20780
M30